<svg width="1920" height="1080" viewBox="0 0 1920 1080" fill="none" xmlns="http://www.w3.org/2000/svg">
<g clip-path="url(#clip0_110_2)">
<rect width="1920" height="1080" fill="white"/>
<rect width="1920" height="1080" fill="white"/>
<rect x="164" y="254" width="500" height="500" rx="55" fill="#2C2C2C"/>
<path fill-rule="evenodd" clip-rule="evenodd" d="M414 334H344C316.386 334 294 356.386 294 384C294 411.614 316.386 434 344 434H414V334Z" fill="#FF0000"/>
<path d="M484 334C511.614 334 534 356.386 534 384C534 411.614 511.614 434 484 434H414V334H484Z" fill="#D9D9D9"/>
<path d="M484 334C511.614 334 534 356.386 534 384C534 411.614 511.614 434 484 434H414V334H484Z" fill="#FF0000" fill-opacity="0.5"/>
<path d="M294 494C294 460.863 320.863 434 354 434H414V554H354C320.863 554 294 527.137 294 494V494Z" fill="#6F3FFF"/>
<path d="M294 614C294 580.863 320.863 554 354 554V554C387.137 554 414 580.863 414 614V674H354C320.863 674 294 647.137 294 614V614Z" fill="#00ACEE"/>
<circle cx="474" cy="494" r="60" fill="#00FF73"/>
<path fill-rule="evenodd" clip-rule="evenodd" d="M1683 696H1633.33V663.815C1618.38 673.163 1603.27 677.225 1584.33 677.225C1530.58 677.225 1487 633.696 1487 580C1487 526.304 1530.58 482.775 1584.33 482.775C1603.27 482.775 1618.38 489.519 1633.33 498.867V464H1683V696ZM1584.33 509.595C1549.85 509.595 1521.9 541.117 1521.9 580C1521.9 618.883 1549.85 650.405 1584.33 650.405C1618.8 650.405 1646.75 618.883 1646.75 580C1646.75 541.117 1618.8 509.595 1584.33 509.595Z" fill="black"/>
<path d="M1163.32 468.689H1214.31V497.236C1232.56 475.054 1254.28 463.964 1279.48 463.964C1292.87 463.964 1304.48 466.72 1314.33 472.233C1324.17 477.745 1332.24 486.08 1338.54 497.236C1347.73 486.08 1357.64 477.745 1368.27 472.233C1378.9 466.72 1390.25 463.964 1402.33 463.964C1417.69 463.964 1430.68 467.114 1441.31 473.414C1451.94 479.583 1459.88 488.705 1465.13 500.78C1468.94 509.705 1470.84 524.142 1470.84 544.093V677.772H1415.52V558.268C1415.52 537.53 1413.62 524.142 1409.81 518.105C1404.69 510.23 1396.82 506.292 1386.19 506.292C1378.44 506.292 1371.16 508.655 1364.33 513.38C1357.51 518.105 1352.59 525.061 1349.57 534.249C1346.55 543.305 1345.04 557.677 1345.04 577.365V677.772H1289.72V563.19C1289.72 542.846 1288.73 529.721 1286.76 523.814C1284.79 517.908 1281.71 513.511 1277.51 510.624C1273.44 507.736 1267.86 506.292 1260.78 506.292C1252.24 506.292 1244.57 508.589 1237.74 513.183C1230.92 517.777 1225.99 524.405 1222.98 533.067C1220.09 541.73 1218.64 556.102 1218.64 576.183V677.772H1163.32V468.689Z" fill="black"/>
<path d="M947.284 691.553L1010.48 699.231C1011.53 706.581 1013.96 711.635 1017.77 714.391C1023.02 718.328 1031.29 720.297 1042.57 720.297C1057.01 720.297 1067.84 718.132 1075.06 713.8C1079.91 710.913 1083.59 706.253 1086.08 699.822C1087.79 695.228 1088.64 686.763 1088.64 674.425V643.909C1072.1 666.484 1051.24 677.772 1026.04 677.772C997.947 677.772 975.7 665.894 959.294 642.137C946.431 623.368 940 600.006 940 572.049C940 537.005 948.4 510.23 965.2 491.723C982.132 473.217 1003.13 463.964 1028.2 463.964C1054.06 463.964 1075.39 475.317 1092.19 498.023V468.689H1143.96V656.312C1143.96 680.987 1141.93 699.428 1137.86 711.635C1133.79 723.841 1128.08 733.422 1120.73 740.379C1113.38 747.335 1103.54 752.782 1091.2 756.719C1078.99 760.657 1063.51 762.626 1044.74 762.626C1009.3 762.626 984.166 756.523 969.335 744.316C954.503 732.241 947.088 716.885 947.088 698.247C947.088 696.409 947.153 694.178 947.284 691.553ZM996.701 568.899C996.701 591.08 1000.97 607.356 1009.5 617.724C1018.16 627.962 1028.79 633.081 1041.39 633.081C1054.91 633.081 1066.33 627.831 1075.65 617.331C1084.97 606.699 1089.63 591.015 1089.63 570.277C1089.63 548.621 1085.16 532.542 1076.24 522.042C1067.31 511.542 1056.03 506.292 1042.38 506.292C1029.12 506.292 1018.16 511.477 1009.5 521.845C1000.97 532.083 996.701 547.768 996.701 568.899Z" fill="black"/>
<path d="M863.862 677.772V468.689H919.184V677.772H863.862Z" fill="black"/>
<path d="M931.821 404.937C931.821 427.206 913.769 445.258 891.501 445.258C869.232 445.258 851.18 427.206 851.18 404.937C851.18 382.669 869.232 364.617 891.501 364.617C913.769 364.617 931.821 382.669 931.821 404.937Z" fill="black"/>
<path d="M700 465.329H730.713V335.676C730.713 320.265 729.547 245 816.236 245C902.925 245 918.381 352.521 918.381 352.521H859.244C859.244 352.521 863.276 335.676 851.18 314.217C839.084 292.757 804.812 294.206 791.154 314.217C787.34 322.43 786.035 325.045 786.035 335.676V465.329H827.379V508.838H786.035V674.412H730.713V508.838H700V465.329Z" fill="black"/>
<path d="M1170.64 757V692.576H1214.8V703.475H1183.64V718.724H1210.54V729.622H1183.64V757H1170.64ZM1237.3 757H1224.95V710.33H1236.42V716.966C1238.38 713.831 1240.14 711.766 1241.7 710.77C1243.28 709.773 1245.06 709.275 1247.06 709.275C1249.87 709.275 1252.58 710.052 1255.19 711.604L1251.36 722.371C1249.28 721.023 1247.35 720.35 1245.56 720.35C1243.83 720.35 1242.37 720.833 1241.17 721.8C1239.97 722.737 1239.01 724.451 1238.31 726.941C1237.64 729.432 1237.3 734.646 1237.3 742.586V757ZM1287.57 742.146L1299.88 744.212C1298.3 748.724 1295.79 752.166 1292.36 754.539C1288.97 756.883 1284.7 758.055 1279.58 758.055C1271.46 758.055 1265.46 755.403 1261.56 750.101C1258.48 745.853 1256.94 740.491 1256.94 734.017C1256.94 726.282 1258.97 720.232 1263.01 715.867C1267.05 711.473 1272.16 709.275 1278.35 709.275C1285.29 709.275 1290.77 711.575 1294.78 716.175C1298.79 720.745 1300.71 727.762 1300.54 737.225H1269.6C1269.69 740.887 1270.68 743.743 1272.59 745.794C1274.49 747.815 1276.87 748.826 1279.71 748.826C1281.64 748.826 1283.27 748.299 1284.59 747.244C1285.9 746.189 1286.9 744.49 1287.57 742.146ZM1288.28 729.666C1288.19 726.092 1287.27 723.382 1285.51 721.536C1283.75 719.661 1281.61 718.724 1279.09 718.724C1276.4 718.724 1274.17 719.705 1272.41 721.668C1270.66 723.631 1269.79 726.297 1269.82 729.666H1288.28ZM1337.67 742.146L1349.98 744.212C1348.39 748.724 1345.89 752.166 1342.46 754.539C1339.06 756.883 1334.8 758.055 1329.67 758.055C1321.56 758.055 1315.55 755.403 1311.66 750.101C1308.58 745.853 1307.04 740.491 1307.04 734.017C1307.04 726.282 1309.06 720.232 1313.11 715.867C1317.15 711.473 1322.26 709.275 1328.44 709.275C1335.39 709.275 1340.87 711.575 1344.88 716.175C1348.89 720.745 1350.81 727.762 1350.64 737.225H1319.7C1319.79 740.887 1320.78 743.743 1322.69 745.794C1324.59 747.815 1326.96 748.826 1329.81 748.826C1331.74 748.826 1333.37 748.299 1334.68 747.244C1336 746.189 1337 744.49 1337.67 742.146ZM1338.38 729.666C1338.29 726.092 1337.36 723.382 1335.61 721.536C1333.85 719.661 1331.71 718.724 1329.19 718.724C1326.5 718.724 1324.27 719.705 1322.51 721.668C1320.75 723.631 1319.89 726.297 1319.92 729.666H1338.38Z" fill="black"/>
<path d="M1361.5 698.576H1385.28C1390.64 698.576 1394.73 698.986 1397.54 699.807C1401.32 700.92 1404.56 702.897 1407.25 705.739C1409.95 708.581 1412 712.067 1413.4 716.198C1414.81 720.3 1415.51 725.368 1415.51 731.403C1415.51 736.706 1414.85 741.276 1413.54 745.114C1411.92 749.802 1409.62 753.596 1406.64 756.496C1404.38 758.693 1401.33 760.407 1397.5 761.638C1394.62 762.546 1390.79 763 1385.98 763H1361.5V698.576ZM1374.51 709.475V752.146H1384.22C1387.86 752.146 1390.48 751.94 1392.09 751.53C1394.2 751.003 1395.94 750.109 1397.32 748.85C1398.73 747.59 1399.87 745.524 1400.75 742.653C1401.63 739.753 1402.07 735.812 1402.07 730.832C1402.07 725.852 1401.63 722.028 1400.75 719.362C1399.87 716.696 1398.64 714.616 1397.06 713.122C1395.47 711.628 1393.47 710.617 1391.04 710.09C1389.22 709.68 1385.66 709.475 1380.36 709.475H1374.51ZM1453.53 748.146L1465.83 750.212C1464.25 754.724 1461.74 758.166 1458.32 760.539C1454.92 762.883 1450.65 764.055 1445.53 764.055C1437.41 764.055 1431.41 761.403 1427.51 756.101C1424.43 751.853 1422.9 746.491 1422.9 740.017C1422.9 732.282 1424.92 726.232 1428.96 721.867C1433 717.473 1438.12 715.275 1444.3 715.275C1451.24 715.275 1456.72 717.575 1460.73 722.175C1464.75 726.745 1466.67 733.762 1466.49 743.225H1435.55C1435.64 746.887 1436.64 749.743 1438.54 751.794C1440.44 753.815 1442.82 754.826 1445.66 754.826C1447.59 754.826 1449.22 754.299 1450.54 753.244C1451.86 752.189 1452.85 750.49 1453.53 748.146ZM1454.23 735.666C1454.14 732.092 1453.22 729.382 1451.46 727.536C1449.7 725.661 1447.56 724.724 1445.04 724.724C1442.35 724.724 1440.12 725.705 1438.36 727.668C1436.61 729.631 1435.74 732.297 1435.77 735.666H1454.23ZM1472.25 749.685L1484.64 747.795C1485.17 750.197 1486.24 752.028 1487.85 753.288C1489.46 754.519 1491.71 755.134 1494.61 755.134C1497.81 755.134 1500.21 754.548 1501.82 753.376C1502.91 752.556 1503.45 751.457 1503.45 750.08C1503.45 749.143 1503.15 748.366 1502.57 747.751C1501.95 747.165 1500.58 746.623 1498.44 746.125C1488.48 743.928 1482.16 741.921 1479.5 740.104C1475.81 737.585 1473.96 734.084 1473.96 729.602C1473.96 725.559 1475.56 722.16 1478.75 719.406C1481.94 716.652 1486.89 715.275 1493.6 715.275C1499.99 715.275 1504.74 716.315 1507.84 718.396C1510.95 720.476 1513.09 723.552 1514.26 727.624L1502.61 729.777C1502.11 727.961 1501.16 726.569 1499.76 725.603C1498.38 724.636 1496.4 724.152 1493.82 724.152C1490.57 724.152 1488.24 724.606 1486.84 725.515C1485.9 726.159 1485.43 726.994 1485.43 728.02C1485.43 728.898 1485.84 729.646 1486.66 730.261C1487.77 731.081 1491.61 732.238 1498.17 733.732C1504.77 735.227 1509.37 737.058 1511.97 739.226C1514.55 741.423 1515.84 744.484 1515.84 748.41C1515.84 752.688 1514.05 756.364 1510.48 759.44C1506.9 762.517 1501.62 764.055 1494.61 764.055C1488.26 764.055 1483.22 762.766 1479.5 760.188C1475.81 757.609 1473.39 754.108 1472.25 749.685ZM1526.69 710.002V698.576H1539.04V710.002H1526.69ZM1526.69 763V716.33H1539.04V763H1526.69ZM1550.6 766.076L1564.71 767.79C1564.94 769.431 1565.48 770.559 1566.33 771.174C1567.5 772.053 1569.35 772.492 1571.87 772.492C1575.09 772.492 1577.51 772.009 1579.12 771.042C1580.21 770.397 1581.03 769.357 1581.58 767.922C1581.96 766.896 1582.15 765.007 1582.15 762.253V755.441C1578.46 760.48 1573.8 763 1568.18 763C1561.91 763 1556.94 760.349 1553.28 755.046C1550.41 750.856 1548.97 745.642 1548.97 739.401C1548.97 731.579 1550.85 725.603 1554.6 721.472C1558.38 717.341 1563.07 715.275 1568.66 715.275C1574.43 715.275 1579.19 717.81 1582.94 722.878V716.33H1594.5V758.21C1594.5 763.718 1594.05 767.834 1593.14 770.559C1592.23 773.283 1590.96 775.422 1589.32 776.975C1587.68 778.527 1585.48 779.743 1582.72 780.622C1580 781.501 1576.54 781.94 1572.35 781.94C1564.44 781.94 1558.83 780.578 1555.52 777.854C1552.21 775.158 1550.56 771.73 1550.56 767.57C1550.56 767.16 1550.57 766.662 1550.6 766.076ZM1561.63 738.698C1561.63 743.649 1562.58 747.282 1564.49 749.597C1566.42 751.882 1568.79 753.024 1571.61 753.024C1574.62 753.024 1577.17 751.853 1579.25 749.509C1581.33 747.136 1582.37 743.635 1582.37 739.006C1582.37 734.172 1581.38 730.583 1579.38 728.239C1577.39 725.896 1574.87 724.724 1571.83 724.724C1568.87 724.724 1566.42 725.881 1564.49 728.195C1562.58 730.48 1561.63 733.981 1561.63 738.698ZM1649.21 763H1636.87V739.182C1636.87 734.143 1636.6 730.891 1636.07 729.426C1635.55 727.932 1634.68 726.774 1633.48 725.954C1632.31 725.134 1630.89 724.724 1629.22 724.724C1627.08 724.724 1625.16 725.31 1623.46 726.481C1621.76 727.653 1620.59 729.206 1619.95 731.14C1619.33 733.073 1619.02 736.647 1619.02 741.862V763H1606.67V716.33H1618.14V723.186C1622.22 717.912 1627.34 715.275 1633.53 715.275C1636.25 715.275 1638.74 715.773 1641 716.77C1643.25 717.736 1644.95 718.981 1646.09 720.505C1647.27 722.028 1648.07 723.757 1648.51 725.69C1648.98 727.624 1649.21 730.393 1649.21 733.996V763Z" fill="black"/>
<path d="M1167.25 819.038L1179.91 817.808C1180.67 822.056 1182.21 825.176 1184.52 827.168C1186.87 829.16 1190.02 830.156 1193.97 830.156C1198.16 830.156 1201.31 829.277 1203.42 827.52C1205.56 825.732 1206.63 823.652 1206.63 821.279C1206.63 819.756 1206.17 818.467 1205.26 817.412C1204.39 816.328 1202.83 815.391 1200.61 814.6C1199.08 814.072 1195.61 813.135 1190.19 811.787C1183.22 810.059 1178.33 807.935 1175.51 805.415C1171.56 801.87 1169.58 797.549 1169.58 792.451C1169.58 789.17 1170.5 786.108 1172.35 783.267C1174.22 780.396 1176.91 778.213 1180.39 776.719C1183.91 775.225 1188.14 774.478 1193.09 774.478C1201.18 774.478 1207.26 776.25 1211.33 779.795C1215.43 783.34 1217.58 788.071 1217.79 793.989L1204.78 794.561C1204.22 791.25 1203.02 788.877 1201.18 787.441C1199.36 785.977 1196.62 785.244 1192.96 785.244C1189.18 785.244 1186.22 786.021 1184.08 787.573C1182.71 788.569 1182.02 789.902 1182.02 791.572C1182.02 793.096 1182.66 794.399 1183.95 795.483C1185.59 796.86 1189.58 798.296 1195.9 799.79C1202.23 801.284 1206.91 802.837 1209.92 804.448C1212.97 806.03 1215.34 808.213 1217.04 810.996C1218.77 813.75 1219.63 817.163 1219.63 821.235C1219.63 824.927 1218.61 828.384 1216.56 831.606C1214.51 834.829 1211.61 837.231 1207.86 838.813C1204.11 840.366 1199.43 841.143 1193.84 841.143C1185.69 841.143 1179.44 839.268 1175.07 835.518C1170.71 831.738 1168.1 826.245 1167.25 819.038ZM1227.63 816.006C1227.63 811.904 1228.64 807.935 1230.67 804.097C1232.69 800.259 1235.54 797.329 1239.23 795.308C1242.96 793.286 1247.1 792.275 1251.67 792.275C1258.73 792.275 1264.52 794.575 1269.03 799.175C1273.54 803.745 1275.8 809.531 1275.8 816.533C1275.8 823.594 1273.51 829.453 1268.94 834.111C1264.4 838.74 1258.67 841.055 1251.76 841.055C1247.48 841.055 1243.39 840.088 1239.5 838.154C1235.63 836.221 1232.69 833.394 1230.67 829.673C1228.64 825.923 1227.63 821.367 1227.63 816.006ZM1240.29 816.665C1240.29 821.294 1241.39 824.839 1243.58 827.3C1245.78 829.761 1248.49 830.991 1251.71 830.991C1254.94 830.991 1257.63 829.761 1259.8 827.3C1262 824.839 1263.1 821.265 1263.1 816.577C1263.1 812.007 1262 808.491 1259.8 806.03C1257.63 803.569 1254.94 802.339 1251.71 802.339C1248.49 802.339 1245.78 803.569 1243.58 806.03C1241.39 808.491 1240.29 812.036 1240.29 816.665ZM1280.1 793.33H1286.96V789.814C1286.96 785.889 1287.37 782.959 1288.19 781.025C1289.04 779.092 1290.58 777.524 1292.8 776.323C1295.06 775.093 1297.9 774.478 1301.33 774.478C1304.84 774.478 1308.29 775.005 1311.66 776.06L1309.99 784.673C1308.02 784.204 1306.13 783.97 1304.32 783.97C1302.53 783.97 1301.24 784.395 1300.45 785.244C1299.69 786.064 1299.31 787.661 1299.31 790.034V793.33H1308.54V803.042H1299.31V840H1286.96V803.042H1280.1V793.33ZM1336.88 793.33V803.174H1328.44V821.982C1328.44 825.791 1328.52 828.018 1328.66 828.662C1328.84 829.277 1329.21 829.79 1329.76 830.2C1330.35 830.61 1331.05 830.815 1331.87 830.815C1333.01 830.815 1334.67 830.42 1336.84 829.629L1337.89 839.209C1335.02 840.439 1331.77 841.055 1328.14 841.055C1325.91 841.055 1323.9 840.688 1322.12 839.956C1320.33 839.194 1319.01 838.228 1318.16 837.056C1317.34 835.854 1316.77 834.243 1316.45 832.222C1316.18 830.786 1316.05 827.886 1316.05 823.521V803.174H1310.38V793.33H1316.05V784.058L1328.44 776.851V793.33H1336.88ZM1354.15 840L1339.39 793.33H1351.38L1360.13 823.916L1368.17 793.33H1380.08L1387.86 823.916L1396.78 793.33H1408.95L1393.97 840H1382.1L1374.06 809.985L1366.15 840H1354.15ZM1424.73 807.568L1413.52 805.547C1414.78 801.035 1416.95 797.695 1420.03 795.527C1423.1 793.359 1427.67 792.275 1433.74 792.275C1439.24 792.275 1443.35 792.935 1446.04 794.253C1448.74 795.542 1450.63 797.197 1451.71 799.219C1452.82 801.211 1453.38 804.888 1453.38 810.249L1453.25 824.663C1453.25 828.765 1453.44 831.797 1453.82 833.76C1454.23 835.693 1454.98 837.773 1456.06 840H1443.84C1443.52 839.18 1443.13 837.964 1442.66 836.353C1442.45 835.62 1442.31 835.137 1442.22 834.902C1440.11 836.953 1437.85 838.491 1435.45 839.517C1433.05 840.542 1430.48 841.055 1427.76 841.055C1422.96 841.055 1419.16 839.751 1416.38 837.144C1413.62 834.536 1412.25 831.24 1412.25 827.256C1412.25 824.619 1412.88 822.275 1414.14 820.225C1415.4 818.145 1417.15 816.562 1419.41 815.479C1421.7 814.365 1424.98 813.398 1429.25 812.578C1435.03 811.494 1439.02 810.483 1441.25 809.546V808.315C1441.25 805.942 1440.67 804.258 1439.49 803.262C1438.32 802.236 1436.11 801.724 1432.86 801.724C1430.66 801.724 1428.95 802.163 1427.72 803.042C1426.49 803.892 1425.49 805.4 1424.73 807.568ZM1441.25 817.588C1439.67 818.115 1437.16 818.745 1433.74 819.478C1430.31 820.21 1428.07 820.928 1427.01 821.631C1425.4 822.773 1424.6 824.224 1424.6 825.981C1424.6 827.71 1425.24 829.204 1426.53 830.464C1427.82 831.724 1429.46 832.354 1431.45 832.354C1433.68 832.354 1435.8 831.621 1437.82 830.156C1439.32 829.043 1440.3 827.681 1440.77 826.069C1441.09 825.015 1441.25 823.008 1441.25 820.049V817.588ZM1477.42 840H1465.07V793.33H1476.54V799.966C1478.5 796.831 1480.26 794.766 1481.81 793.77C1483.39 792.773 1485.18 792.275 1487.17 792.275C1489.99 792.275 1492.7 793.052 1495.3 794.604L1491.48 805.371C1489.4 804.023 1487.47 803.35 1485.68 803.35C1483.95 803.35 1482.49 803.833 1481.29 804.8C1480.08 805.737 1479.13 807.451 1478.43 809.941C1477.75 812.432 1477.42 817.646 1477.42 825.586V840ZM1527.69 825.146L1540 827.212C1538.41 831.724 1535.91 835.166 1532.48 837.539C1529.08 839.883 1524.82 841.055 1519.69 841.055C1511.58 841.055 1505.57 838.403 1501.68 833.101C1498.6 828.853 1497.06 823.491 1497.06 817.017C1497.06 809.282 1499.08 803.232 1503.13 798.867C1507.17 794.473 1512.28 792.275 1518.46 792.275C1525.41 792.275 1530.88 794.575 1534.9 799.175C1538.91 803.745 1540.83 810.762 1540.66 820.225H1509.72C1509.81 823.887 1510.8 826.743 1512.71 828.794C1514.61 830.815 1516.98 831.826 1519.83 831.826C1521.76 831.826 1523.38 831.299 1524.7 830.244C1526.02 829.189 1527.02 827.49 1527.69 825.146ZM1528.39 812.666C1528.31 809.092 1527.38 806.382 1525.63 804.536C1523.87 802.661 1521.73 801.724 1519.21 801.724C1516.51 801.724 1514.29 802.705 1512.53 804.668C1510.77 806.631 1509.91 809.297 1509.94 812.666H1528.39Z" fill="black"/>
</g>
<defs>
<clipPath id="clip0_110_2">
<rect width="1920" height="1080" fill="white"/>
</clipPath>
</defs>
</svg>
