<svg width="920" height="350" viewBox="0 0 920 350" fill="none" xmlns="http://www.w3.org/2000/svg">
<g clip-path="url(#clip0_89_2)">
<rect width="920" height="350" fill="white"/>
<rect width="252.055" height="350.076" fill="#787878"/>
<path d="M252.055 0H504.11V70.0152H252.055V0Z" fill="#D9D9D9"/>
<path d="M252.055 70.0152H504.11V140.03H252.055V70.0152Z" fill="#D9D9D9"/>
<path d="M252.055 70.0152H504.11V140.03H252.055V70.0152Z" fill="white"/>
<path d="M252.055 140.03H504.11V210.046H252.055V140.03Z" fill="#D9D9D9"/>
<path d="M252.055 140.03H504.11V210.046H252.055V140.03Z" fill="white"/>
<path d="M252.055 210.046H504.11V280.061H252.055V210.046Z" fill="#D9D9D9"/>
<path d="M252.055 210.046H504.11V280.061H252.055V210.046Z" fill="white"/>
<path d="M252.055 280.061H504.11V350.076H252.055V280.061Z" fill="#D9D9D9"/>
<path d="M252.055 280.061H504.11V350.076H252.055V280.061Z" fill="white"/>
<path d="M504.11 0H756.164V70.0152H504.11V0Z" fill="#D9D9D9"/>
<path d="M504.11 70.0152H756.164V140.03H504.11V70.0152Z" fill="#D9D9D9"/>
<path d="M504.11 70.0152H756.164V140.03H504.11V70.0152Z" fill="white"/>
<path d="M504.11 140.03H756.164V210.046H504.11V140.03Z" fill="#D9D9D9"/>
<path d="M504.11 140.03H756.164V210.046H504.11V140.03Z" fill="white"/>
<path d="M504.11 210.046H756.164V280.061H504.11V210.046Z" fill="#D9D9D9"/>
<path d="M504.11 210.046H756.164V280.061H504.11V210.046Z" fill="white"/>
<path d="M504.11 280.061H756.164V350.076H504.11V280.061Z" fill="#D9D9D9"/>
<path d="M504.11 280.061H756.164V350.076H504.11V280.061Z" fill="white"/>
<path d="M756.164 0H920V70.0152H756.164V0Z" fill="#D9D9D9"/>
<path d="M756.164 70.0152H920V140.03H756.164V70.0152Z" fill="#D9D9D9"/>
<path d="M756.164 70.0152H920V140.03H756.164V70.0152Z" fill="white"/>
<path d="M756.164 140.03H920V210.046H756.164V140.03Z" fill="#D9D9D9"/>
<path d="M756.164 140.03H920V210.046H756.164V140.03Z" fill="white"/>
<path d="M756.164 210.046H920V280.061H756.164V210.046Z" fill="#D9D9D9"/>
<path d="M756.164 210.046H920V280.061H756.164V210.046Z" fill="white"/>
<path d="M756.164 280.061H920V350.076H756.164V280.061Z" fill="#D9D9D9"/>
<path d="M756.164 280.061H920V350.076H756.164V280.061Z" fill="white"/>
<path d="M919.75 280.311V349.826H756.414V280.311H919.75ZM755.914 280.311V349.826H504.359V280.311H755.914ZM503.859 280.311V349.826H252.305V280.311H503.859ZM919.75 210.296V279.811H756.414V210.296H919.75ZM755.914 210.296V279.811H504.359V210.296H755.914ZM503.859 210.296V279.811H252.305V210.296H503.859ZM919.75 140.28V209.796H756.414V140.28H919.75ZM755.914 140.28V209.796H504.359V140.28H755.914ZM503.859 140.28V209.796H252.305V140.28H503.859ZM919.75 70.2656V139.78H756.414V70.2656H919.75ZM755.914 70.2656V139.78H504.359V70.2656H755.914ZM503.859 70.2656V139.78H252.305V70.2656H503.859ZM919.75 0.25V69.7656H756.414V0.25H919.75ZM755.914 0.25V69.7656H504.359V0.25H755.914ZM503.859 0.25V69.7656H252.305V0.25H503.859Z" stroke="black" stroke-width="0.5"/>
<path d="M833.66 111V109.86H836.12V101.655H834.155V100.785C834.645 100.695 835.07 100.585 835.43 100.455C835.8 100.325 836.135 100.175 836.435 100.005H837.485V109.86H839.69V111H833.66ZM841.635 101.565H854.715V102.705H841.635V101.565ZM844.62 108.255H851.61V109.395H844.62V108.255ZM847.56 98.415H848.745V112.2H847.56V98.415ZM847.2 101.94L848.22 102.27C847.77 103.33 847.22 104.345 846.57 105.315C845.92 106.275 845.2 107.145 844.41 107.925C843.62 108.695 842.795 109.33 841.935 109.83C841.875 109.74 841.795 109.64 841.695 109.53C841.595 109.41 841.495 109.295 841.395 109.185C841.305 109.075 841.215 108.98 841.125 108.9C841.755 108.57 842.365 108.16 842.955 107.67C843.555 107.18 844.12 106.63 844.65 106.02C845.19 105.4 845.675 104.745 846.105 104.055C846.535 103.365 846.9 102.66 847.2 101.94ZM849.105 101.985C849.505 102.935 850.02 103.855 850.65 104.745C851.28 105.625 851.985 106.42 852.765 107.13C853.555 107.83 854.38 108.39 855.24 108.81C855.15 108.89 855.05 108.985 854.94 109.095C854.84 109.205 854.74 109.325 854.64 109.455C854.54 109.575 854.455 109.69 854.385 109.8C853.515 109.31 852.68 108.685 851.88 107.925C851.09 107.155 850.375 106.29 849.735 105.33C849.095 104.37 848.555 103.37 848.115 102.33L849.105 101.985Z" fill="black"/>
<path d="M353.04 99.08V100.1C353.97 100.01 354.93 99.92 355.875 99.815C357.105 98.12 357.48 95.855 357.6 93.125H356.01V92H353.04V92.78H355.83V97.295H353.04V98.06H355.86V99.08H353.04ZM350.22 96.38H351.765V95.465H350.22V96.38ZM354.645 95.465H353.04V96.38H354.645V95.465ZM353.04 94.61H354.645V93.695H353.04V94.61ZM350.22 93.695V94.61H351.765V93.695H350.22ZM358.965 91.835H362.07C362.07 91.835 362.055 92.315 362.055 92.48C361.89 98.675 361.755 100.805 361.275 101.45C360.99 101.9 360.675 102.02 360.21 102.095C359.76 102.155 359.07 102.155 358.365 102.11C358.335 101.735 358.185 101.165 357.975 100.79C358.665 100.85 359.28 100.85 359.55 100.85C359.805 100.85 359.94 100.805 360.09 100.61C360.42 100.19 360.57 98.285 360.69 93.125H358.92C358.725 97.115 358.05 100.295 355.47 102.275C355.26 101.96 354.795 101.465 354.465 101.24C354.555 101.18 354.645 101.105 354.735 101.03C352.575 101.285 350.415 101.51 348.81 101.66L348.63 100.475C349.5 100.415 350.58 100.325 351.765 100.22V99.08H349.035V98.06H351.765V97.295H349.08V92.78H351.765V92H348.675V90.965H351.765V90.125C350.85 90.2 349.935 90.245 349.095 90.275C349.05 89.99 348.9 89.54 348.765 89.27C350.985 89.15 353.64 88.88 355.2 88.535L355.86 89.585C355.065 89.75 354.075 89.9 353.04 90.005V90.965H356.07V91.835H357.645C357.66 90.815 357.66 89.75 357.66 88.625H358.995C358.995 89.735 358.98 90.815 358.965 91.835ZM375.315 99.95V91.925H376.68V102.14H375.315V101.27H365.715V102.17H364.35V91.925H365.715V99.95H375.315ZM372.825 94.91V93.275H371.055V94.91H372.825ZM372.825 97.67V96.02H371.055V97.67H372.825ZM368.085 96.02V97.67H369.84V96.02H368.085ZM368.085 93.275V94.91H369.84V93.275H368.085ZM363.885 89.36H377.115V90.65H371.145V92.12H374.04V98.825H366.915V92.12H369.75V90.65H363.885V89.36ZM379.245 96.995L380.355 97.19C380.175 98.6 379.845 100.04 379.395 100.985C379.185 100.835 378.66 100.595 378.405 100.505C378.84 99.605 379.11 98.27 379.245 96.995ZM382.89 95.885L381.945 95.945V102.17H380.745V96.035C379.98 96.08 379.245 96.14 378.615 96.17L378.48 94.955L379.605 94.895C379.845 94.565 380.115 94.205 380.37 93.8C379.935 93.125 379.2 92.285 378.555 91.64L379.245 90.74C379.395 90.875 379.53 91.01 379.68 91.16C380.145 90.32 380.61 89.225 380.88 88.415L382.08 88.85C381.555 89.885 380.925 91.1 380.415 91.925C380.655 92.195 380.88 92.465 381.06 92.72C381.6 91.835 382.11 90.905 382.47 90.14L383.595 90.65C382.785 91.985 381.765 93.59 380.835 94.82L382.485 94.73C382.335 94.325 382.14 93.905 381.96 93.545L382.905 93.17C383.46 94.175 383.985 95.495 384.15 96.35L383.115 96.785C383.07 96.53 382.995 96.215 382.89 95.885ZM389.97 98.345H390.93V96.845H389.97V98.345ZM388.14 98.345H389.055V96.845H388.14V98.345ZM386.355 98.345H387.255V96.845H386.355V98.345ZM390.42 92.45H385.665V93.8H390.42V92.45ZM392.085 95.765V100.94C392.085 101.42 392.01 101.765 391.71 101.96C391.41 102.14 391.005 102.17 390.465 102.17C390.42 101.855 390.27 101.36 390.105 101.06C390.42 101.075 390.69 101.075 390.795 101.075C390.9 101.06 390.93 101.03 390.93 100.91V99.38H389.97V102.05H389.055V99.38H388.14V102.05H387.255V99.38H386.355V102.185H385.35V98.3C385.095 99.635 384.66 100.955 383.91 102.02C383.685 101.795 383.175 101.405 382.89 101.27C383.235 100.79 383.49 100.265 383.7 99.71L382.92 99.95C382.845 99.2 382.56 98.09 382.215 97.235L383.175 96.935C383.475 97.64 383.73 98.525 383.865 99.23C384.36 97.64 384.42 95.9 384.42 94.52V91.325H391.755V94.91H385.665C385.665 95.18 385.65 95.465 385.635 95.765H392.085ZM383.85 89.285H392.13V90.485H383.85V89.285ZM396.915 94.775V95.645H400.125V94.775H396.915ZM400.125 92.045V91.22H396.915V92.045H400.125ZM400.125 93.845V92.99H396.915V93.845H400.125ZM407.16 98.645H402.3C403.695 99.59 405.705 100.4 407.475 100.82C407.19 101.105 406.8 101.615 406.62 101.96C404.76 101.405 402.66 100.4 401.16 99.215V102.17H399.78V99.245C398.265 100.46 396.165 101.495 394.335 102.035C394.125 101.705 393.72 101.18 393.435 100.895C395.235 100.475 397.275 99.62 398.7 98.645H393.84V97.52H399.78V96.725H395.61V92.495C395.25 92.87 394.86 93.23 394.44 93.575C394.215 93.26 393.75 92.84 393.45 92.63C395.1 91.385 396.315 89.72 396.975 88.385L398.43 88.67C398.16 89.135 397.875 89.63 397.545 90.11H400.095C400.38 89.555 400.665 88.91 400.83 88.415L402.375 88.61C402.105 89.135 401.82 89.66 401.535 90.11H406.245V91.22H401.46V92.045H405.585V92.99H401.46V93.845H405.615V94.775H401.46V95.645H406.755V96.725H401.16V97.52H407.16V98.645ZM308.615 117.3C308.615 114.255 309.875 111.855 311.585 110.13L312.725 110.67C311.09 112.38 309.965 114.54 309.965 117.3C309.965 120.06 311.09 122.22 312.725 123.93L311.585 124.47C309.875 122.745 308.615 120.345 308.615 117.3ZM315.965 114.525H320.135V113.46H321.545V114.525H325.76V113.04H315.965V114.525ZM327.47 120.39H322.265C323.315 121.815 325.13 122.67 327.65 123C327.35 123.27 327.005 123.84 326.81 124.215C323.885 123.72 321.98 122.55 320.825 120.48C320.015 121.92 318.365 123.225 315.065 124.17C314.915 123.885 314.51 123.345 314.21 123.06C316.97 122.355 318.455 121.41 319.25 120.39H314.42V119.175H319.895C320.015 118.77 320.09 118.38 320.12 117.975H316.115V116.82H320.135V115.68H315.875V114.81H314.6V111.81H320.165V110.43H321.605V111.81H327.185V114.81H326.03V115.68H321.545V116.82H325.79V117.975H321.53C321.5 118.38 321.44 118.785 321.35 119.175H327.47V120.39ZM333.455 111.93L332.645 113.07C332.09 112.56 330.905 111.915 329.93 111.525L330.695 110.49C331.655 110.82 332.855 111.435 333.455 111.93ZM332.69 115.95L331.925 117.135C331.295 116.64 330.02 115.995 328.985 115.635L329.72 114.57C330.725 114.885 332.03 115.47 332.69 115.95ZM332.585 118.2L333.605 119.055C332.735 120.705 331.685 122.565 330.74 124.005L329.57 123.135C330.41 121.965 331.655 119.97 332.585 118.2ZM335.525 112.365V115.965H340.55V112.365H335.525ZM340.235 122.805H341.195C341.525 122.805 341.585 122.475 341.63 120.615C341.93 120.84 342.5 121.065 342.875 121.155C342.74 123.42 342.395 124.035 341.33 124.035H339.995C338.75 124.035 338.465 123.615 338.465 122.265V117.27H336.995C336.83 120.69 336.335 122.94 333.335 124.2C333.2 123.855 332.795 123.315 332.51 123.075C335.165 122.04 335.495 120.21 335.615 117.27H334.175V111.075H341.975V117.27H339.86V122.25C339.86 122.73 339.92 122.805 340.235 122.805ZM348.44 121.08V122.1C349.37 122.01 350.33 121.92 351.275 121.815C352.505 120.12 352.88 117.855 353 115.125H351.41V114H348.44V114.78H351.23V119.295H348.44V120.06H351.26V121.08H348.44ZM345.62 118.38H347.165V117.465H345.62V118.38ZM350.045 117.465H348.44V118.38H350.045V117.465ZM348.44 116.61H350.045V115.695H348.44V116.61ZM345.62 115.695V116.61H347.165V115.695H345.62ZM354.365 113.835H357.47C357.47 113.835 357.455 114.315 357.455 114.48C357.29 120.675 357.155 122.805 356.675 123.45C356.39 123.9 356.075 124.02 355.61 124.095C355.16 124.155 354.47 124.155 353.765 124.11C353.735 123.735 353.585 123.165 353.375 122.79C354.065 122.85 354.68 122.85 354.95 122.85C355.205 122.85 355.34 122.805 355.49 122.61C355.82 122.19 355.97 120.285 356.09 115.125H354.32C354.125 119.115 353.45 122.295 350.87 124.275C350.66 123.96 350.195 123.465 349.865 123.24C349.955 123.18 350.045 123.105 350.135 123.03C347.975 123.285 345.815 123.51 344.21 123.66L344.03 122.475C344.9 122.415 345.98 122.325 347.165 122.22V121.08H344.435V120.06H347.165V119.295H344.48V114.78H347.165V114H344.075V112.965H347.165V112.125C346.25 112.2 345.335 112.245 344.495 112.275C344.45 111.99 344.3 111.54 344.165 111.27C346.385 111.15 349.04 110.88 350.6 110.535L351.26 111.585C350.465 111.75 349.475 111.9 348.44 112.005V112.965H351.47V113.835H353.045C353.06 112.815 353.06 111.75 353.06 110.625H354.395C354.395 111.735 354.38 112.815 354.365 113.835ZM370.715 121.95V113.925H372.08V124.14H370.715V123.27H361.115V124.17H359.75V113.925H361.115V121.95H370.715ZM368.225 116.91V115.275H366.455V116.91H368.225ZM368.225 119.67V118.02H366.455V119.67H368.225ZM363.485 118.02V119.67H365.24V118.02H363.485ZM363.485 115.275V116.91H365.24V115.275H363.485ZM359.285 111.36H372.515V112.65H366.545V114.12H369.44V120.825H362.315V114.12H365.15V112.65H359.285V111.36ZM373.58 125.7L377.75 111.015H378.95L374.78 125.7H373.58ZM382.68 123L379.215 111.945H381.06L382.695 117.675C383.07 118.935 383.325 120.015 383.7 121.29H383.775C384.165 120.015 384.42 118.935 384.78 117.675L386.415 111.945H388.185L384.735 123H382.68ZM389.606 123V111.945H391.346V121.53H396.026V123H389.606ZM400.916 123.195C398.876 123.195 397.031 121.62 397.031 118.875C397.031 116.13 398.876 114.54 400.916 114.54C402.956 114.54 404.801 116.13 404.801 118.875C404.801 121.62 402.956 123.195 400.916 123.195ZM400.916 121.785C402.221 121.785 403.031 120.63 403.031 118.875C403.031 117.135 402.221 115.965 400.916 115.965C399.626 115.965 398.816 117.135 398.816 118.875C398.816 120.63 399.626 121.785 400.916 121.785ZM409.649 126.705C407.669 126.705 406.229 125.97 406.229 124.53C406.229 123.84 406.664 123.195 407.429 122.73V122.655C407.009 122.4 406.679 121.965 406.679 121.29C406.679 120.645 407.144 120.09 407.609 119.76V119.7C407.039 119.265 406.514 118.485 406.514 117.495C406.514 115.635 407.999 114.54 409.709 114.54C410.174 114.54 410.594 114.63 410.909 114.75H413.834V116.04H412.259C412.574 116.37 412.799 116.925 412.799 117.555C412.799 119.355 411.434 120.39 409.709 120.39C409.334 120.39 408.914 120.3 408.554 120.135C408.284 120.375 408.104 120.6 408.104 121.005C408.104 121.5 408.434 121.815 409.484 121.815H410.999C412.949 121.815 413.969 122.415 413.969 123.825C413.969 125.415 412.289 126.705 409.649 126.705ZM409.709 119.28C410.564 119.28 411.269 118.605 411.269 117.495C411.269 116.4 410.579 115.755 409.709 115.755C408.839 115.755 408.149 116.385 408.149 117.495C408.149 118.605 408.854 119.28 409.709 119.28ZM409.904 125.565C411.344 125.565 412.304 124.86 412.304 124.095C412.304 123.405 411.764 123.195 410.759 123.195H409.514C409.124 123.195 408.749 123.15 408.404 123.075C407.909 123.435 407.699 123.855 407.699 124.275C407.699 125.085 408.539 125.565 409.904 125.565ZM416.431 123.195C415.786 123.195 415.276 122.7 415.276 121.995C415.276 121.275 415.786 120.765 416.431 120.765C417.076 120.765 417.586 121.275 417.586 121.995C417.586 122.7 417.076 123.195 416.431 123.195ZM420.899 123.195C420.254 123.195 419.744 122.7 419.744 121.995C419.744 121.275 420.254 120.765 420.899 120.765C421.544 120.765 422.054 121.275 422.054 121.995C422.054 122.7 421.544 123.195 420.899 123.195ZM425.367 123.195C424.722 123.195 424.212 122.7 424.212 121.995C424.212 121.275 424.722 120.765 425.367 120.765C426.012 120.765 426.522 121.275 426.522 121.995C426.522 122.7 426.012 123.195 425.367 123.195ZM441.88 118.26H438.79V119.385H441.46V120.585H438.79V122.655C438.79 123.39 438.61 123.765 438.055 123.96C437.5 124.17 436.675 124.185 435.49 124.185C435.415 123.795 435.175 123.225 434.98 122.88C435.88 122.91 436.765 122.91 437.02 122.895C437.29 122.88 437.35 122.835 437.35 122.625V120.585H432.205C433.045 121.17 433.975 121.98 434.41 122.61L433.33 123.495C432.88 122.805 431.845 121.86 430.945 121.2L431.755 120.585H428.86V119.385H437.35V118.26H428.365V117.075H434.365V115.935H429.85V114.78H434.365V113.88H434.725C434.515 113.73 434.305 113.595 434.14 113.505C434.41 113.28 434.665 113.04 434.89 112.755H432.445C432.64 113.175 432.835 113.61 432.925 113.925L431.725 114.39C431.605 113.97 431.335 113.31 431.065 112.755H430.645C430.21 113.43 429.715 114.06 429.235 114.54C428.98 114.315 428.41 113.925 428.08 113.745C429.025 112.92 429.895 111.615 430.39 110.34L431.725 110.685C431.605 111 431.455 111.3 431.305 111.6H434.935V112.71C435.505 112.02 436 111.195 436.285 110.34L437.635 110.655C437.515 110.985 437.38 111.285 437.23 111.6H441.76V112.755H438.895C439.18 113.175 439.45 113.595 439.6 113.94L438.4 114.435C438.22 114 437.8 113.31 437.395 112.755H436.57C436.3 113.175 436.015 113.535 435.715 113.88H435.805V114.78H440.485V115.935H435.805V117.075H441.88V118.26ZM447.385 117.3C447.385 120.345 446.125 122.745 444.415 124.47L443.275 123.93C444.91 122.22 446.035 120.06 446.035 117.3C446.035 114.54 444.91 112.38 443.275 110.67L444.415 110.13C446.125 111.855 447.385 114.255 447.385 117.3Z" fill="black"/>
<path d="M576.399 112.195C574.659 112.195 573.564 111.49 572.784 110.725L573.609 109.6C574.239 110.23 575.034 110.785 576.189 110.785C577.434 110.785 578.379 109.9 578.379 108.43C578.379 106.96 577.539 106.12 576.279 106.12C575.574 106.12 575.154 106.33 574.509 106.75L573.669 106.195L573.999 100.945H579.594V102.415H575.499L575.244 105.25C575.724 105.01 576.159 104.86 576.759 104.86C578.604 104.86 580.119 105.955 580.119 108.37C580.119 110.815 578.334 112.195 576.399 112.195ZM585.209 112.195C583.049 112.195 581.639 110.275 581.639 106.435C581.639 102.61 583.049 100.75 585.209 100.75C587.369 100.75 588.779 102.625 588.779 106.435C588.779 110.275 587.369 112.195 585.209 112.195ZM585.209 110.83C586.334 110.83 587.129 109.63 587.129 106.435C587.129 103.27 586.334 102.115 585.209 102.115C584.084 102.115 583.289 103.27 583.289 106.435C583.289 109.63 584.084 110.83 585.209 110.83ZM590.674 115L590.284 114.025C591.319 113.605 591.919 112.84 591.919 111.97C591.859 111.985 591.814 111.985 591.754 111.985C591.139 111.985 590.599 111.595 590.599 110.875C590.599 110.2 591.139 109.765 591.799 109.765C592.639 109.765 593.134 110.47 593.134 111.625C593.134 113.2 592.219 114.415 590.674 115ZM598.232 112.195C596.072 112.195 594.662 110.275 594.662 106.435C594.662 102.61 596.072 100.75 598.232 100.75C600.392 100.75 601.802 102.625 601.802 106.435C601.802 110.275 600.392 112.195 598.232 112.195ZM598.232 110.83C599.357 110.83 600.152 109.63 600.152 106.435C600.152 103.27 599.357 102.115 598.232 102.115C597.107 102.115 596.312 103.27 596.312 106.435C596.312 109.63 597.107 110.83 598.232 110.83ZM606.786 112.195C604.626 112.195 603.216 110.275 603.216 106.435C603.216 102.61 604.626 100.75 606.786 100.75C608.946 100.75 610.356 102.625 610.356 106.435C610.356 110.275 608.946 112.195 606.786 112.195ZM606.786 110.83C607.911 110.83 608.706 109.63 608.706 106.435C608.706 103.27 607.911 102.115 606.786 102.115C605.661 102.115 604.866 103.27 604.866 106.435C604.866 109.63 605.661 110.83 606.786 110.83ZM615.341 112.195C613.181 112.195 611.771 110.275 611.771 106.435C611.771 102.61 613.181 100.75 615.341 100.75C617.501 100.75 618.911 102.625 618.911 106.435C618.911 110.275 617.501 112.195 615.341 112.195ZM615.341 110.83C616.466 110.83 617.261 109.63 617.261 106.435C617.261 103.27 616.466 102.115 615.341 102.115C614.216 102.115 613.421 103.27 613.421 106.435C613.421 109.63 614.216 110.83 615.341 110.83ZM627.766 105.88H631.951V101.785H627.766V105.88ZM622.366 101.785V105.88H626.386V101.785H622.366ZM633.361 100.405V111.445C633.361 112.255 633.181 112.675 632.626 112.915C632.086 113.14 631.216 113.17 629.881 113.17C629.821 112.78 629.596 112.15 629.371 111.775C630.331 111.82 631.291 111.805 631.576 111.79C631.861 111.79 631.951 111.7 631.951 111.43V107.26H622.366V113.185H620.971V100.405H633.361ZM644.836 106.3C644.836 103.255 646.096 100.855 647.806 99.13L648.946 99.67C647.311 101.38 646.186 103.54 646.186 106.3C646.186 109.06 647.311 111.22 648.946 112.93L647.806 113.47C646.096 111.745 644.836 109.345 644.836 106.3ZM656.011 107.62L655.201 108.715C654.976 108.295 654.481 107.59 654.031 106.975V113.155H652.681V107.095C652.126 108.46 651.436 109.75 650.761 110.59C650.626 110.2 650.296 109.63 650.086 109.3C650.971 108.28 651.931 106.495 652.501 104.905H650.371V103.585H652.681V101.545C651.991 101.695 651.301 101.8 650.656 101.89C650.596 101.575 650.416 101.11 650.251 100.81C651.916 100.54 653.806 100.105 654.931 99.61L655.891 100.675C655.351 100.885 654.706 101.08 654.031 101.26V103.585H655.786V104.905H654.031V105.595C654.466 105.97 655.741 107.275 656.011 107.62ZM657.646 103.615V106.15H661.906V103.615H657.646ZM661.801 111.73H662.581C662.851 111.73 662.911 111.505 662.941 109.915C663.211 110.125 663.781 110.365 664.141 110.455C664.036 112.465 663.691 112.99 662.731 112.99H661.576C660.421 112.99 660.151 112.57 660.151 111.28V107.38H659.071C658.846 109.9 658.156 112.03 655.531 113.2C655.366 112.87 654.991 112.36 654.691 112.12C656.986 111.16 657.496 109.42 657.706 107.38H656.326V102.4H657.646C657.421 101.71 656.911 100.69 656.401 99.925L657.556 99.43C658.111 100.21 658.696 101.245 658.921 101.95L657.931 102.4H661.696L660.586 101.965C661.051 101.275 661.606 100.195 661.891 99.4L663.316 99.88C662.821 100.78 662.251 101.755 661.786 102.4H663.301V107.38H661.501V111.265C661.501 111.685 661.546 111.73 661.801 111.73ZM670.711 100.105H674.551C674.851 104.53 675.901 108.085 678.931 109.63C678.601 109.855 678.106 110.35 677.836 110.695C675.856 109.525 674.701 107.59 674.026 105.16C673.261 107.59 672.046 109.435 670.276 110.695C670.051 110.425 669.511 109.9 669.181 109.645C671.311 108.325 672.526 106.045 673.081 103.075L673.591 103.15C673.501 102.595 673.441 102.01 673.381 101.425H670.711V100.105ZM669.091 102.055L667.996 102.97C667.516 102.265 666.436 101.26 665.491 100.6L666.526 99.76C667.456 100.405 668.581 101.335 669.091 102.055ZM668.686 105.235V109.975C669.346 111.01 670.576 111.49 672.226 111.55C673.891 111.61 677.221 111.565 679.096 111.445C678.931 111.775 678.706 112.435 678.631 112.87C676.936 112.945 673.921 112.975 672.211 112.9C670.306 112.825 669.016 112.33 668.071 111.175C667.366 111.79 666.646 112.39 665.866 113.035L665.146 111.595C665.821 111.175 666.616 110.62 667.321 110.05V106.525H665.401V105.235H668.686ZM684.406 106.3C684.406 109.345 683.146 111.745 681.436 113.47L680.296 112.93C681.931 111.22 683.056 109.06 683.056 106.3C683.056 103.54 681.931 101.38 680.296 99.67L681.436 99.13C683.146 100.855 684.406 103.255 684.406 106.3Z" fill="black"/>
<path d="M833.66 180V178.86H836.12V170.655H834.155V169.785C834.645 169.695 835.07 169.585 835.43 169.455C835.8 169.325 836.135 169.175 836.435 169.005H837.485V178.86H839.69V180H833.66ZM841.635 170.565H854.715V171.705H841.635V170.565ZM844.62 177.255H851.61V178.395H844.62V177.255ZM847.56 167.415H848.745V181.2H847.56V167.415ZM847.2 170.94L848.22 171.27C847.77 172.33 847.22 173.345 846.57 174.315C845.92 175.275 845.2 176.145 844.41 176.925C843.62 177.695 842.795 178.33 841.935 178.83C841.875 178.74 841.795 178.64 841.695 178.53C841.595 178.41 841.495 178.295 841.395 178.185C841.305 178.075 841.215 177.98 841.125 177.9C841.755 177.57 842.365 177.16 842.955 176.67C843.555 176.18 844.12 175.63 844.65 175.02C845.19 174.4 845.675 173.745 846.105 173.055C846.535 172.365 846.9 171.66 847.2 170.94ZM849.105 170.985C849.505 171.935 850.02 172.855 850.65 173.745C851.28 174.625 851.985 175.42 852.765 176.13C853.555 176.83 854.38 177.39 855.24 177.81C855.15 177.89 855.05 177.985 854.94 178.095C854.84 178.205 854.74 178.325 854.64 178.455C854.54 178.575 854.455 178.69 854.385 178.8C853.515 178.31 852.68 177.685 851.88 176.925C851.09 176.155 850.375 175.29 849.735 174.33C849.095 173.37 848.555 172.37 848.115 171.33L849.105 170.985Z" fill="black"/>
<path d="M332.423 170.86C332.288 171.025 332.048 171.31 331.928 171.49C331.283 172.585 329.858 174.49 328.253 175.63L327.008 174.625C328.328 173.86 329.633 172.375 330.068 171.52H321.848C321.248 171.52 320.723 171.565 320.078 171.61V169.945C320.633 170.02 321.248 170.08 321.848 170.08H330.233C330.563 170.08 331.238 170.035 331.478 169.975L332.423 170.86ZM326.363 172.855C326.363 176.77 326.138 179.65 322.193 181.675L320.813 180.55C321.248 180.4 321.773 180.16 322.253 179.815C324.398 178.435 324.743 176.545 324.743 174.055C324.743 173.65 324.728 173.29 324.653 172.855H326.363ZM335.625 171.055C336.12 171.1 336.72 171.13 337.215 171.13H343.545C344.115 171.13 344.7 171.1 345.105 171.055V172.765C344.685 172.735 344.055 172.72 343.545 172.72H337.23C336.69 172.72 336.105 172.735 335.625 172.765V171.055ZM334.335 178.435C334.89 178.48 335.49 178.525 336.045 178.525H344.865C345.345 178.525 345.885 178.495 346.365 178.435V180.25C345.87 180.205 345.285 180.175 344.865 180.175H336.045C335.49 180.175 334.875 180.205 334.335 180.25V178.435ZM360.36 170.035C360.195 170.335 359.94 170.92 359.82 171.25C359.34 172.495 358.62 174.1 357.66 175.51C358.995 176.605 360.285 177.775 361.32 178.9L360.12 180.22C359.04 178.975 357.915 177.91 356.67 176.83C355.305 178.495 353.505 180.205 350.925 181.585L349.605 180.4C352.155 179.185 353.97 177.625 355.44 175.81C354.345 174.925 352.785 173.77 351.3 172.855L352.29 171.655C353.55 172.45 355.215 173.605 356.415 174.52C357.3 173.215 357.855 171.88 358.29 170.65C358.41 170.32 358.545 169.78 358.62 169.42L360.36 170.035ZM364.455 174.31C364.95 174.34 365.88 174.4 366.69 174.4H374.85C375.57 174.4 376.155 174.34 376.53 174.31V176.17C376.2 176.155 375.51 176.095 374.85 176.095H366.69C365.865 176.095 364.965 176.125 364.455 176.17V174.31ZM382.267 169.315C383.197 169.84 384.892 170.95 385.597 171.46L384.712 172.75C383.947 172.195 382.342 171.13 381.412 170.605L382.267 169.315ZM379.792 180.01C381.457 179.725 383.287 179.17 384.862 178.3C387.367 176.875 389.392 174.865 390.607 172.735L391.522 174.325C390.172 176.365 388.087 178.285 385.657 179.695C384.142 180.58 382.042 181.3 380.677 181.555L379.792 180.01ZM379.987 172.72C380.932 173.215 382.642 174.28 383.347 174.775L382.477 176.11C381.682 175.54 380.092 174.52 379.132 174.01L379.987 172.72ZM395.977 172.66C396.322 172.705 397.192 172.72 397.657 172.72H403.402C403.747 172.72 404.212 172.705 404.422 172.705C404.407 172.885 404.407 173.275 404.407 173.575V181.06C404.407 181.3 404.422 181.72 404.437 181.96H402.937C402.952 181.825 402.952 181.6 402.952 181.36H397.072C396.622 181.36 396.067 181.39 395.812 181.405V179.92C396.067 179.95 396.547 179.98 397.072 179.98H402.952V177.61H397.822C397.282 177.61 396.667 177.61 396.337 177.64V176.215C396.682 176.23 397.282 176.26 397.807 176.26H402.952V174.07H397.657C397.192 174.07 396.292 174.1 395.977 174.115V172.66ZM411.202 169.825C412.252 170.53 414.202 172.09 415.042 172.96L413.857 174.175C413.077 173.38 411.217 171.745 410.107 170.995L411.202 169.825ZM409.657 179.86C412.162 179.485 414.112 178.645 415.552 177.76C417.967 176.275 419.842 174.025 420.757 172.105L421.672 173.74C420.592 175.69 418.747 177.73 416.407 179.17C414.892 180.1 412.987 180.985 410.662 181.405L409.657 179.86ZM427.747 179.08V180.1C428.677 180.01 429.637 179.92 430.582 179.815C431.812 178.12 432.187 175.855 432.307 173.125H430.717V172H427.747V172.78H430.537V177.295H427.747V178.06H430.567V179.08H427.747ZM424.927 176.38H426.472V175.465H424.927V176.38ZM429.352 175.465H427.747V176.38H429.352V175.465ZM427.747 174.61H429.352V173.695H427.747V174.61ZM424.927 173.695V174.61H426.472V173.695H424.927ZM433.672 171.835H436.777C436.777 171.835 436.762 172.315 436.762 172.48C436.597 178.675 436.462 180.805 435.982 181.45C435.697 181.9 435.382 182.02 434.917 182.095C434.467 182.155 433.777 182.155 433.072 182.11C433.042 181.735 432.892 181.165 432.682 180.79C433.372 180.85 433.987 180.85 434.257 180.85C434.512 180.85 434.647 180.805 434.797 180.61C435.127 180.19 435.277 178.285 435.397 173.125H433.627C433.432 177.115 432.757 180.295 430.177 182.275C429.967 181.96 429.502 181.465 429.172 181.24C429.262 181.18 429.352 181.105 429.442 181.03C427.282 181.285 425.122 181.51 423.517 181.66L423.337 180.475C424.207 180.415 425.287 180.325 426.472 180.22V179.08H423.742V178.06H426.472V177.295H423.787V172.78H426.472V172H423.382V170.965H426.472V170.125C425.557 170.2 424.642 170.245 423.802 170.275C423.757 169.99 423.607 169.54 423.472 169.27C425.692 169.15 428.347 168.88 429.907 168.535L430.567 169.585C429.772 169.75 428.782 169.9 427.747 170.005V170.965H430.777V171.835H432.352C432.367 170.815 432.367 169.75 432.367 168.625H433.702C433.702 169.735 433.687 170.815 433.672 171.835ZM450.022 179.95V171.925H451.387V182.14H450.022V181.27H440.422V182.17H439.057V171.925H440.422V179.95H450.022ZM447.532 174.91V173.275H445.762V174.91H447.532ZM447.532 177.67V176.02H445.762V177.67H447.532ZM442.792 176.02V177.67H444.547V176.02H442.792ZM442.792 173.275V174.91H444.547V173.275H442.792ZM438.592 169.36H451.822V170.65H445.852V172.12H448.747V178.825H441.622V172.12H444.457V170.65H438.592V169.36Z" fill="black"/>
<path d="M570.392 181V179.575H572.807V171.895H570.827V170.8C571.862 170.605 572.597 170.35 573.227 169.945H574.532V179.575H576.692V181H570.392ZM581.932 181.195C579.772 181.195 578.362 179.275 578.362 175.435C578.362 171.61 579.772 169.75 581.932 169.75C584.092 169.75 585.502 171.625 585.502 175.435C585.502 179.275 584.092 181.195 581.932 181.195ZM581.932 179.83C583.057 179.83 583.852 178.63 583.852 175.435C583.852 172.27 583.057 171.115 581.932 171.115C580.807 171.115 580.012 172.27 580.012 175.435C580.012 178.63 580.807 179.83 581.932 179.83ZM590.486 181.195C588.326 181.195 586.916 179.275 586.916 175.435C586.916 171.61 588.326 169.75 590.486 169.75C592.646 169.75 594.056 171.625 594.056 175.435C594.056 179.275 592.646 181.195 590.486 181.195ZM590.486 179.83C591.611 179.83 592.406 178.63 592.406 175.435C592.406 172.27 591.611 171.115 590.486 171.115C589.361 171.115 588.566 172.27 588.566 175.435C588.566 178.63 589.361 179.83 590.486 179.83ZM595.951 184L595.561 183.025C596.596 182.605 597.196 181.84 597.196 180.97C597.136 180.985 597.091 180.985 597.031 180.985C596.416 180.985 595.876 180.595 595.876 179.875C595.876 179.2 596.416 178.765 597.076 178.765C597.916 178.765 598.411 179.47 598.411 180.625C598.411 182.2 597.496 183.415 595.951 184ZM603.509 181.195C601.349 181.195 599.939 179.275 599.939 175.435C599.939 171.61 601.349 169.75 603.509 169.75C605.669 169.75 607.079 171.625 607.079 175.435C607.079 179.275 605.669 181.195 603.509 181.195ZM603.509 179.83C604.634 179.83 605.429 178.63 605.429 175.435C605.429 172.27 604.634 171.115 603.509 171.115C602.384 171.115 601.589 172.27 601.589 175.435C601.589 178.63 602.384 179.83 603.509 179.83ZM612.064 181.195C609.904 181.195 608.494 179.275 608.494 175.435C608.494 171.61 609.904 169.75 612.064 169.75C614.224 169.75 615.634 171.625 615.634 175.435C615.634 179.275 614.224 181.195 612.064 181.195ZM612.064 179.83C613.189 179.83 613.984 178.63 613.984 175.435C613.984 172.27 613.189 171.115 612.064 171.115C610.939 171.115 610.144 172.27 610.144 175.435C610.144 178.63 610.939 179.83 612.064 179.83ZM620.618 181.195C618.458 181.195 617.048 179.275 617.048 175.435C617.048 171.61 618.458 169.75 620.618 169.75C622.778 169.75 624.188 171.625 624.188 175.435C624.188 179.275 622.778 181.195 620.618 181.195ZM620.618 179.83C621.743 179.83 622.538 178.63 622.538 175.435C622.538 172.27 621.743 171.115 620.618 171.115C619.493 171.115 618.698 172.27 618.698 175.435C618.698 178.63 619.493 179.83 620.618 179.83ZM633.043 174.88H637.228V170.785H633.043V174.88ZM627.643 170.785V174.88H631.663V170.785H627.643ZM638.638 169.405V180.445C638.638 181.255 638.458 181.675 637.903 181.915C637.363 182.14 636.493 182.17 635.158 182.17C635.098 181.78 634.873 181.15 634.648 180.775C635.608 180.82 636.568 180.805 636.853 180.79C637.138 180.79 637.228 180.7 637.228 180.43V176.26H627.643V182.185H626.248V169.405H638.638ZM650.113 175.3C650.113 172.255 651.373 169.855 653.083 168.13L654.223 168.67C652.588 170.38 651.463 172.54 651.463 175.3C651.463 178.06 652.588 180.22 654.223 181.93L653.083 182.47C651.373 180.745 650.113 178.345 650.113 175.3ZM661.288 176.62L660.478 177.715C660.253 177.295 659.758 176.59 659.308 175.975V182.155H657.958V176.095C657.403 177.46 656.713 178.75 656.038 179.59C655.903 179.2 655.573 178.63 655.363 178.3C656.248 177.28 657.208 175.495 657.778 173.905H655.648V172.585H657.958V170.545C657.268 170.695 656.578 170.8 655.933 170.89C655.873 170.575 655.693 170.11 655.528 169.81C657.193 169.54 659.083 169.105 660.208 168.61L661.168 169.675C660.628 169.885 659.983 170.08 659.308 170.26V172.585H661.063V173.905H659.308V174.595C659.743 174.97 661.018 176.275 661.288 176.62ZM662.923 172.615V175.15H667.183V172.615H662.923ZM667.078 180.73H667.858C668.128 180.73 668.188 180.505 668.218 178.915C668.488 179.125 669.058 179.365 669.418 179.455C669.313 181.465 668.968 181.99 668.008 181.99H666.853C665.698 181.99 665.428 181.57 665.428 180.28V176.38H664.348C664.123 178.9 663.433 181.03 660.808 182.2C660.643 181.87 660.268 181.36 659.968 181.12C662.263 180.16 662.773 178.42 662.983 176.38H661.603V171.4H662.923C662.698 170.71 662.188 169.69 661.678 168.925L662.833 168.43C663.388 169.21 663.973 170.245 664.198 170.95L663.208 171.4H666.973L665.863 170.965C666.328 170.275 666.883 169.195 667.168 168.4L668.593 168.88C668.098 169.78 667.528 170.755 667.063 171.4H668.578V176.38H666.778V180.265C666.778 180.685 666.823 180.73 667.078 180.73ZM675.988 169.105H679.828C680.128 173.53 681.178 177.085 684.208 178.63C683.878 178.855 683.383 179.35 683.113 179.695C681.133 178.525 679.978 176.59 679.303 174.16C678.538 176.59 677.323 178.435 675.553 179.695C675.328 179.425 674.788 178.9 674.458 178.645C676.588 177.325 677.803 175.045 678.358 172.075L678.868 172.15C678.778 171.595 678.718 171.01 678.658 170.425H675.988V169.105ZM674.368 171.055L673.273 171.97C672.793 171.265 671.713 170.26 670.768 169.6L671.803 168.76C672.733 169.405 673.858 170.335 674.368 171.055ZM673.963 174.235V178.975C674.623 180.01 675.853 180.49 677.503 180.55C679.168 180.61 682.498 180.565 684.373 180.445C684.208 180.775 683.983 181.435 683.908 181.87C682.213 181.945 679.198 181.975 677.488 181.9C675.583 181.825 674.293 181.33 673.348 180.175C672.643 180.79 671.923 181.39 671.143 182.035L670.423 180.595C671.098 180.175 671.893 179.62 672.598 179.05V175.525H670.678V174.235H673.963ZM689.683 175.3C689.683 178.345 688.423 180.745 686.713 182.47L685.573 181.93C687.208 180.22 688.333 178.06 688.333 175.3C688.333 172.54 687.208 170.38 685.573 168.67L686.713 168.13C688.423 169.855 689.683 172.255 689.683 175.3Z" fill="black"/>
<path d="M833.66 249V247.86H836.12V239.655H834.155V238.785C834.645 238.695 835.07 238.585 835.43 238.455C835.8 238.325 836.135 238.175 836.435 238.005H837.485V247.86H839.69V249H833.66ZM841.635 239.565H854.715V240.705H841.635V239.565ZM844.62 246.255H851.61V247.395H844.62V246.255ZM847.56 236.415H848.745V250.2H847.56V236.415ZM847.2 239.94L848.22 240.27C847.77 241.33 847.22 242.345 846.57 243.315C845.92 244.275 845.2 245.145 844.41 245.925C843.62 246.695 842.795 247.33 841.935 247.83C841.875 247.74 841.795 247.64 841.695 247.53C841.595 247.41 841.495 247.295 841.395 247.185C841.305 247.075 841.215 246.98 841.125 246.9C841.755 246.57 842.365 246.16 842.955 245.67C843.555 245.18 844.12 244.63 844.65 244.02C845.19 243.4 845.675 242.745 846.105 242.055C846.535 241.365 846.9 240.66 847.2 239.94ZM849.105 239.985C849.505 240.935 850.02 241.855 850.65 242.745C851.28 243.625 851.985 244.42 852.765 245.13C853.555 245.83 854.38 246.39 855.24 246.81C855.15 246.89 855.05 246.985 854.94 247.095C854.84 247.205 854.74 247.325 854.64 247.455C854.54 247.575 854.455 247.69 854.385 247.8C853.515 247.31 852.68 246.685 851.88 245.925C851.09 245.155 850.375 244.29 849.735 243.33C849.095 242.37 848.555 241.37 848.115 240.33L849.105 239.985Z" fill="black"/>
<path d="M338.99 246.985H340.055C340.4 246.985 340.46 246.625 340.52 244.945C340.805 245.185 341.375 245.44 341.75 245.53C341.6 247.645 341.27 248.32 340.19 248.32H338.75C337.52 248.32 337.205 247.885 337.205 246.34V243.07L335.69 243.385L335.465 242.095L337.205 241.735V237.835H338.585V241.465L341.75 240.82L341.99 242.095L338.585 242.785V246.34C338.585 246.91 338.63 246.985 338.99 246.985ZM341.015 238.63H349.1C349.1 238.63 349.1 239.185 349.085 239.38C348.905 246.91 348.74 249.475 348.17 250.24C347.825 250.765 347.465 250.93 346.94 251.005C346.43 251.08 345.605 251.065 344.81 251.02C344.795 250.615 344.615 250 344.36 249.595C345.2 249.655 345.935 249.655 346.28 249.655C346.55 249.655 346.7 249.595 346.865 249.4C347.3 248.86 347.495 246.415 347.645 239.965H344.87C344.765 244.66 344.42 248.92 340.655 251.245C340.445 250.885 339.995 250.39 339.65 250.135C343.19 248.125 343.4 244.24 343.475 239.965H341.015V238.63ZM355.22 238.075C354.965 239.02 354.665 240.835 354.575 241.78C355.235 240.415 356.675 238.81 358.49 238.81C360.53 238.81 362.045 240.82 362.045 244.045C362.045 248.23 359.435 250.15 355.61 250.855L354.71 249.49C357.995 248.98 360.455 247.765 360.455 244.045C360.455 241.705 359.66 240.175 358.235 240.175C356.405 240.175 354.74 242.875 354.605 244.855C354.56 245.35 354.56 245.86 354.665 246.58L353.195 246.685C353.12 246.115 353.03 245.245 353.03 244.255C353.03 242.845 353.27 240.79 353.465 239.425C353.54 238.915 353.57 238.42 353.585 238L355.22 238.075ZM370.625 243.745L370.805 245.035C370.22 245.23 369.605 245.44 369.005 245.635V249.595C369.005 250.315 368.855 250.69 368.42 250.915C367.985 251.11 367.34 251.155 366.32 251.14C366.275 250.795 366.095 250.24 365.915 249.865C366.545 249.895 367.16 249.895 367.355 249.88C367.565 249.88 367.64 249.82 367.64 249.595V246.07C367.01 246.265 366.41 246.46 365.87 246.625L365.51 245.215C366.11 245.065 366.845 244.855 367.64 244.63V241.54H365.735V240.25H367.64V237.4H369.005V240.25H370.52V241.54H369.005V244.24C369.545 244.075 370.085 243.91 370.625 243.745ZM376.85 244.195H373.67C374.075 245.365 374.675 246.445 375.44 247.36C376.055 246.475 376.535 245.41 376.85 244.195ZM377.54 242.89L378.38 243.13C378.035 245.29 377.345 247 376.4 248.32C377.27 249.07 378.32 249.655 379.52 250.015C379.22 250.285 378.815 250.855 378.635 251.215C377.42 250.795 376.385 250.165 375.515 249.355C374.735 250.12 373.85 250.72 372.86 251.17C372.695 250.84 372.335 250.315 372.065 250.045C373.01 249.685 373.865 249.115 374.6 248.38C374.045 247.705 373.58 246.955 373.175 246.115C372.65 248.095 371.75 249.835 370.22 251.11C369.995 250.795 369.575 250.36 369.215 250.165C371.75 248.125 372.38 244.72 372.545 241.15H370.7V239.86H372.575C372.59 239.035 372.605 238.225 372.605 237.415H373.955C373.955 238.225 373.94 239.035 373.925 239.86H379.295V241.15H373.88C373.85 241.75 373.805 242.335 373.745 242.92H377.3L377.54 242.89ZM387.38 239.575C387.245 239.095 387.095 238.585 386.915 238.09L388.52 237.91C388.58 238.465 388.7 239.035 388.835 239.605C389.885 239.47 390.905 239.245 391.865 238.93L392.06 240.295C391.22 240.535 390.2 240.745 389.18 240.88C389.285 241.195 389.375 241.495 389.48 241.765C389.57 242.02 389.675 242.29 389.78 242.575C391.01 242.425 392 242.17 392.72 241.945L392.96 243.355C392.24 243.535 391.355 243.715 390.365 243.85C390.65 244.435 390.965 244.99 391.295 245.485C391.475 245.755 391.67 245.965 391.91 246.19L391.16 247.3C390.32 247.105 388.82 246.94 387.77 246.835L387.89 245.695C388.61 245.77 389.51 245.86 389.975 245.905C389.585 245.29 389.24 244.645 388.955 244.015C387.125 244.165 384.68 244.165 382.385 244.015L382.31 242.62C384.56 242.845 386.705 242.845 388.4 242.71C388.31 242.485 388.22 242.26 388.145 242.05C388.01 241.66 387.905 241.315 387.8 241C386.36 241.075 384.56 241.06 382.685 240.88L382.595 239.515C384.38 239.71 386.015 239.785 387.425 239.71C387.41 239.665 387.395 239.62 387.38 239.575ZM384.8 245.95C384.44 246.46 384.155 246.985 384.155 247.63C384.155 248.815 385.235 249.37 387.425 249.37C388.835 249.37 390.005 249.265 391.085 249.04L391.01 250.555C389.96 250.72 388.7 250.825 387.44 250.825C384.47 250.825 382.73 249.94 382.7 247.915C382.685 247.015 382.985 246.34 383.33 245.665L384.8 245.95ZM400.04 248.08V249.1C400.97 249.01 401.93 248.92 402.875 248.815C404.105 247.12 404.48 244.855 404.6 242.125H403.01V241H400.04V241.78H402.83V246.295H400.04V247.06H402.86V248.08H400.04ZM397.22 245.38H398.765V244.465H397.22V245.38ZM401.645 244.465H400.04V245.38H401.645V244.465ZM400.04 243.61H401.645V242.695H400.04V243.61ZM397.22 242.695V243.61H398.765V242.695H397.22ZM405.965 240.835H409.07C409.07 240.835 409.055 241.315 409.055 241.48C408.89 247.675 408.755 249.805 408.275 250.45C407.99 250.9 407.675 251.02 407.21 251.095C406.76 251.155 406.07 251.155 405.365 251.11C405.335 250.735 405.185 250.165 404.975 249.79C405.665 249.85 406.28 249.85 406.55 249.85C406.805 249.85 406.94 249.805 407.09 249.61C407.42 249.19 407.57 247.285 407.69 242.125H405.92C405.725 246.115 405.05 249.295 402.47 251.275C402.26 250.96 401.795 250.465 401.465 250.24C401.555 250.18 401.645 250.105 401.735 250.03C399.575 250.285 397.415 250.51 395.81 250.66L395.63 249.475C396.5 249.415 397.58 249.325 398.765 249.22V248.08H396.035V247.06H398.765V246.295H396.08V241.78H398.765V241H395.675V239.965H398.765V239.125C397.85 239.2 396.935 239.245 396.095 239.275C396.05 238.99 395.9 238.54 395.765 238.27C397.985 238.15 400.64 237.88 402.2 237.535L402.86 238.585C402.065 238.75 401.075 238.9 400.04 239.005V239.965H403.07V240.835H404.645C404.66 239.815 404.66 238.75 404.66 237.625H405.995C405.995 238.735 405.98 239.815 405.965 240.835ZM422.315 248.95V240.925H423.68V251.14H422.315V250.27H412.715V251.17H411.35V240.925H412.715V248.95H422.315ZM419.825 243.91V242.275H418.055V243.91H419.825ZM419.825 246.67V245.02H418.055V246.67H419.825ZM415.085 245.02V246.67H416.84V245.02H415.085ZM415.085 242.275V243.91H416.84V242.275H415.085ZM410.885 238.36H424.115V239.65H418.145V241.12H421.04V247.825H413.915V241.12H416.75V239.65H410.885V238.36Z" fill="black"/>
<path d="M578.399 250.195C576.659 250.195 575.534 249.505 574.799 248.68L575.639 247.57C576.284 248.23 577.109 248.785 578.249 248.785C579.494 248.785 580.349 248.095 580.349 246.94C580.349 245.725 579.569 244.93 577.079 244.93V243.655C579.254 243.655 579.974 242.83 579.974 241.72C579.974 240.745 579.329 240.145 578.279 240.13C577.424 240.145 576.704 240.55 576.074 241.165L575.174 240.085C576.044 239.305 577.064 238.75 578.339 238.75C580.319 238.75 581.714 239.785 581.714 241.6C581.714 242.875 580.979 243.76 579.809 244.195V244.27C581.084 244.585 582.089 245.545 582.089 247.03C582.089 249.025 580.424 250.195 578.399 250.195ZM587.209 250.195C585.049 250.195 583.639 248.275 583.639 244.435C583.639 240.61 585.049 238.75 587.209 238.75C589.369 238.75 590.779 240.625 590.779 244.435C590.779 248.275 589.369 250.195 587.209 250.195ZM587.209 248.83C588.334 248.83 589.129 247.63 589.129 244.435C589.129 241.27 588.334 240.115 587.209 240.115C586.084 240.115 585.289 241.27 585.289 244.435C585.289 247.63 586.084 248.83 587.209 248.83ZM592.674 253L592.284 252.025C593.319 251.605 593.919 250.84 593.919 249.97C593.859 249.985 593.814 249.985 593.754 249.985C593.139 249.985 592.599 249.595 592.599 248.875C592.599 248.2 593.139 247.765 593.799 247.765C594.639 247.765 595.134 248.47 595.134 249.625C595.134 251.2 594.219 252.415 592.674 253ZM600.232 250.195C598.072 250.195 596.662 248.275 596.662 244.435C596.662 240.61 598.072 238.75 600.232 238.75C602.392 238.75 603.802 240.625 603.802 244.435C603.802 248.275 602.392 250.195 600.232 250.195ZM600.232 248.83C601.357 248.83 602.152 247.63 602.152 244.435C602.152 241.27 601.357 240.115 600.232 240.115C599.107 240.115 598.312 241.27 598.312 244.435C598.312 247.63 599.107 248.83 600.232 248.83ZM608.786 250.195C606.626 250.195 605.216 248.275 605.216 244.435C605.216 240.61 606.626 238.75 608.786 238.75C610.946 238.75 612.356 240.625 612.356 244.435C612.356 248.275 610.946 250.195 608.786 250.195ZM608.786 248.83C609.911 248.83 610.706 247.63 610.706 244.435C610.706 241.27 609.911 240.115 608.786 240.115C607.661 240.115 606.866 241.27 606.866 244.435C606.866 247.63 607.661 248.83 608.786 248.83ZM617.341 250.195C615.181 250.195 613.771 248.275 613.771 244.435C613.771 240.61 615.181 238.75 617.341 238.75C619.501 238.75 620.911 240.625 620.911 244.435C620.911 248.275 619.501 250.195 617.341 250.195ZM617.341 248.83C618.466 248.83 619.261 247.63 619.261 244.435C619.261 241.27 618.466 240.115 617.341 240.115C616.216 240.115 615.421 241.27 615.421 244.435C615.421 247.63 616.216 248.83 617.341 248.83ZM629.766 243.88H633.951V239.785H629.766V243.88ZM624.366 239.785V243.88H628.386V239.785H624.366ZM635.361 238.405V249.445C635.361 250.255 635.181 250.675 634.626 250.915C634.086 251.14 633.216 251.17 631.881 251.17C631.821 250.78 631.596 250.15 631.371 249.775C632.331 249.82 633.291 249.805 633.576 249.79C633.861 249.79 633.951 249.7 633.951 249.43V245.26H624.366V251.185H622.971V238.405H635.361ZM646.836 244.3C646.836 241.255 648.096 238.855 649.806 237.13L650.946 237.67C649.311 239.38 648.186 241.54 648.186 244.3C648.186 247.06 649.311 249.22 650.946 250.93L649.806 251.47C648.096 249.745 646.836 247.345 646.836 244.3ZM658.011 245.62L657.201 246.715C656.976 246.295 656.481 245.59 656.031 244.975V251.155H654.681V245.095C654.126 246.46 653.436 247.75 652.761 248.59C652.626 248.2 652.296 247.63 652.086 247.3C652.971 246.28 653.931 244.495 654.501 242.905H652.371V241.585H654.681V239.545C653.991 239.695 653.301 239.8 652.656 239.89C652.596 239.575 652.416 239.11 652.251 238.81C653.916 238.54 655.806 238.105 656.931 237.61L657.891 238.675C657.351 238.885 656.706 239.08 656.031 239.26V241.585H657.786V242.905H656.031V243.595C656.466 243.97 657.741 245.275 658.011 245.62ZM659.646 241.615V244.15H663.906V241.615H659.646ZM663.801 249.73H664.581C664.851 249.73 664.911 249.505 664.941 247.915C665.211 248.125 665.781 248.365 666.141 248.455C666.036 250.465 665.691 250.99 664.731 250.99H663.576C662.421 250.99 662.151 250.57 662.151 249.28V245.38H661.071C660.846 247.9 660.156 250.03 657.531 251.2C657.366 250.87 656.991 250.36 656.691 250.12C658.986 249.16 659.496 247.42 659.706 245.38H658.326V240.4H659.646C659.421 239.71 658.911 238.69 658.401 237.925L659.556 237.43C660.111 238.21 660.696 239.245 660.921 239.95L659.931 240.4H663.696L662.586 239.965C663.051 239.275 663.606 238.195 663.891 237.4L665.316 237.88C664.821 238.78 664.251 239.755 663.786 240.4H665.301V245.38H663.501V249.265C663.501 249.685 663.546 249.73 663.801 249.73ZM672.711 238.105H676.551C676.851 242.53 677.901 246.085 680.931 247.63C680.601 247.855 680.106 248.35 679.836 248.695C677.856 247.525 676.701 245.59 676.026 243.16C675.261 245.59 674.046 247.435 672.276 248.695C672.051 248.425 671.511 247.9 671.181 247.645C673.311 246.325 674.526 244.045 675.081 241.075L675.591 241.15C675.501 240.595 675.441 240.01 675.381 239.425H672.711V238.105ZM671.091 240.055L669.996 240.97C669.516 240.265 668.436 239.26 667.491 238.6L668.526 237.76C669.456 238.405 670.581 239.335 671.091 240.055ZM670.686 243.235V247.975C671.346 249.01 672.576 249.49 674.226 249.55C675.891 249.61 679.221 249.565 681.096 249.445C680.931 249.775 680.706 250.435 680.631 250.87C678.936 250.945 675.921 250.975 674.211 250.9C672.306 250.825 671.016 250.33 670.071 249.175C669.366 249.79 668.646 250.39 667.866 251.035L667.146 249.595C667.821 249.175 668.616 248.62 669.321 248.05V244.525H667.401V243.235H670.686ZM686.406 244.3C686.406 247.345 685.146 249.745 683.436 251.47L682.296 250.93C683.931 249.22 685.056 247.06 685.056 244.3C685.056 241.54 683.931 239.38 682.296 237.67L683.436 237.13C685.146 238.855 686.406 241.255 686.406 244.3Z" fill="black"/>
<path d="M833.66 321V319.86H836.12V311.655H834.155V310.785C834.645 310.695 835.07 310.585 835.43 310.455C835.8 310.325 836.135 310.175 836.435 310.005H837.485V319.86H839.69V321H833.66ZM841.635 311.565H854.715V312.705H841.635V311.565ZM844.62 318.255H851.61V319.395H844.62V318.255ZM847.56 308.415H848.745V322.2H847.56V308.415ZM847.2 311.94L848.22 312.27C847.77 313.33 847.22 314.345 846.57 315.315C845.92 316.275 845.2 317.145 844.41 317.925C843.62 318.695 842.795 319.33 841.935 319.83C841.875 319.74 841.795 319.64 841.695 319.53C841.595 319.41 841.495 319.295 841.395 319.185C841.305 319.075 841.215 318.98 841.125 318.9C841.755 318.57 842.365 318.16 842.955 317.67C843.555 317.18 844.12 316.63 844.65 316.02C845.19 315.4 845.675 314.745 846.105 314.055C846.535 313.365 846.9 312.66 847.2 311.94ZM849.105 311.985C849.505 312.935 850.02 313.855 850.65 314.745C851.28 315.625 851.985 316.42 852.765 317.13C853.555 317.83 854.38 318.39 855.24 318.81C855.15 318.89 855.05 318.985 854.94 319.095C854.84 319.205 854.74 319.325 854.64 319.455C854.54 319.575 854.455 319.69 854.385 319.8C853.515 319.31 852.68 318.685 851.88 317.925C851.09 317.155 850.375 316.29 849.735 315.33C849.095 314.37 848.555 313.37 848.115 312.33L849.105 311.985Z" fill="black"/>
<path d="M576.039 322V320.995C579.294 318.115 580.974 315.97 580.974 314.155C580.974 312.955 580.344 312.13 579.099 312.13C578.229 312.13 577.509 312.685 576.924 313.36L575.949 312.4C576.894 311.365 577.869 310.75 579.309 310.75C581.334 310.75 582.639 312.07 582.639 314.065C582.639 316.195 580.944 318.4 578.604 320.635C579.174 320.575 579.864 320.53 580.404 320.53H583.164V322H576.039ZM587.954 322.195C586.214 322.195 585.119 321.49 584.339 320.725L585.164 319.6C585.794 320.23 586.589 320.785 587.744 320.785C588.989 320.785 589.934 319.9 589.934 318.43C589.934 316.96 589.094 316.12 587.834 316.12C587.129 316.12 586.709 316.33 586.064 316.75L585.224 316.195L585.554 310.945H591.149V312.415H587.054L586.799 315.25C587.279 315.01 587.714 314.86 588.314 314.86C590.159 314.86 591.674 315.955 591.674 318.37C591.674 320.815 589.889 322.195 587.954 322.195ZM593.674 325L593.284 324.025C594.319 323.605 594.919 322.84 594.919 321.97C594.859 321.985 594.814 321.985 594.754 321.985C594.139 321.985 593.599 321.595 593.599 320.875C593.599 320.2 594.139 319.765 594.799 319.765C595.639 319.765 596.134 320.47 596.134 321.625C596.134 323.2 595.219 324.415 593.674 325ZM601.232 322.195C599.072 322.195 597.662 320.275 597.662 316.435C597.662 312.61 599.072 310.75 601.232 310.75C603.392 310.75 604.802 312.625 604.802 316.435C604.802 320.275 603.392 322.195 601.232 322.195ZM601.232 320.83C602.357 320.83 603.152 319.63 603.152 316.435C603.152 313.27 602.357 312.115 601.232 312.115C600.107 312.115 599.312 313.27 599.312 316.435C599.312 319.63 600.107 320.83 601.232 320.83ZM609.786 322.195C607.626 322.195 606.216 320.275 606.216 316.435C606.216 312.61 607.626 310.75 609.786 310.75C611.946 310.75 613.356 312.625 613.356 316.435C613.356 320.275 611.946 322.195 609.786 322.195ZM609.786 320.83C610.911 320.83 611.706 319.63 611.706 316.435C611.706 313.27 610.911 312.115 609.786 312.115C608.661 312.115 607.866 313.27 607.866 316.435C607.866 319.63 608.661 320.83 609.786 320.83ZM618.341 322.195C616.181 322.195 614.771 320.275 614.771 316.435C614.771 312.61 616.181 310.75 618.341 310.75C620.501 310.75 621.911 312.625 621.911 316.435C621.911 320.275 620.501 322.195 618.341 322.195ZM618.341 320.83C619.466 320.83 620.261 319.63 620.261 316.435C620.261 313.27 619.466 312.115 618.341 312.115C617.216 312.115 616.421 313.27 616.421 316.435C616.421 319.63 617.216 320.83 618.341 320.83ZM630.766 315.88H634.951V311.785H630.766V315.88ZM625.366 311.785V315.88H629.386V311.785H625.366ZM636.361 310.405V321.445C636.361 322.255 636.181 322.675 635.626 322.915C635.086 323.14 634.216 323.17 632.881 323.17C632.821 322.78 632.596 322.15 632.371 321.775C633.331 321.82 634.291 321.805 634.576 321.79C634.861 321.79 634.951 321.7 634.951 321.43V317.26H625.366V323.185H623.971V310.405H636.361ZM647.836 316.3C647.836 313.255 649.096 310.855 650.806 309.13L651.946 309.67C650.311 311.38 649.186 313.54 649.186 316.3C649.186 319.06 650.311 321.22 651.946 322.93L650.806 323.47C649.096 321.745 647.836 319.345 647.836 316.3ZM659.011 317.62L658.201 318.715C657.976 318.295 657.481 317.59 657.031 316.975V323.155H655.681V317.095C655.126 318.46 654.436 319.75 653.761 320.59C653.626 320.2 653.296 319.63 653.086 319.3C653.971 318.28 654.931 316.495 655.501 314.905H653.371V313.585H655.681V311.545C654.991 311.695 654.301 311.8 653.656 311.89C653.596 311.575 653.416 311.11 653.251 310.81C654.916 310.54 656.806 310.105 657.931 309.61L658.891 310.675C658.351 310.885 657.706 311.08 657.031 311.26V313.585H658.786V314.905H657.031V315.595C657.466 315.97 658.741 317.275 659.011 317.62ZM660.646 313.615V316.15H664.906V313.615H660.646ZM664.801 321.73H665.581C665.851 321.73 665.911 321.505 665.941 319.915C666.211 320.125 666.781 320.365 667.141 320.455C667.036 322.465 666.691 322.99 665.731 322.99H664.576C663.421 322.99 663.151 322.57 663.151 321.28V317.38H662.071C661.846 319.9 661.156 322.03 658.531 323.2C658.366 322.87 657.991 322.36 657.691 322.12C659.986 321.16 660.496 319.42 660.706 317.38H659.326V312.4H660.646C660.421 311.71 659.911 310.69 659.401 309.925L660.556 309.43C661.111 310.21 661.696 311.245 661.921 311.95L660.931 312.4H664.696L663.586 311.965C664.051 311.275 664.606 310.195 664.891 309.4L666.316 309.88C665.821 310.78 665.251 311.755 664.786 312.4H666.301V317.38H664.501V321.265C664.501 321.685 664.546 321.73 664.801 321.73ZM673.711 310.105H677.551C677.851 314.53 678.901 318.085 681.931 319.63C681.601 319.855 681.106 320.35 680.836 320.695C678.856 319.525 677.701 317.59 677.026 315.16C676.261 317.59 675.046 319.435 673.276 320.695C673.051 320.425 672.511 319.9 672.181 319.645C674.311 318.325 675.526 316.045 676.081 313.075L676.591 313.15C676.501 312.595 676.441 312.01 676.381 311.425H673.711V310.105ZM672.091 312.055L670.996 312.97C670.516 312.265 669.436 311.26 668.491 310.6L669.526 309.76C670.456 310.405 671.581 311.335 672.091 312.055ZM671.686 315.235V319.975C672.346 321.01 673.576 321.49 675.226 321.55C676.891 321.61 680.221 321.565 682.096 321.445C681.931 321.775 681.706 322.435 681.631 322.87C679.936 322.945 676.921 322.975 675.211 322.9C673.306 322.825 672.016 322.33 671.071 321.175C670.366 321.79 669.646 322.39 668.866 323.035L668.146 321.595C668.821 321.175 669.616 320.62 670.321 320.05V316.525H668.401V315.235H671.686ZM687.406 316.3C687.406 319.345 686.146 321.745 684.436 323.47L683.296 322.93C684.931 321.22 686.056 319.06 686.056 316.3C686.056 313.54 684.931 311.38 683.296 309.67L684.436 309.13C686.146 310.855 687.406 313.255 687.406 316.3Z" fill="black"/>
<path d="M293.675 300.185C294.095 300.215 294.545 300.245 295.07 300.245H302.24C302.735 300.245 303.185 300.23 303.53 300.185V301.685C303.155 301.67 302.78 301.64 302.24 301.64H298.505V304.535H303.335C303.65 304.535 304.31 304.505 304.67 304.475L304.685 306.005C304.295 305.975 303.695 305.975 303.365 305.975H298.505V308.66C298.505 309.455 299.03 309.83 300.335 309.83C301.715 309.83 302.99 309.77 304.235 309.62L304.145 311.225C303.05 311.3 301.505 311.36 300.08 311.36C297.605 311.36 296.915 310.49 296.915 309.14V305.975H294.2C293.795 305.975 293.12 306.005 292.685 306.035V304.46C293.105 304.505 293.765 304.535 294.2 304.535H296.915V301.64H295.07C294.545 301.64 294.095 301.655 293.675 301.685V300.185ZM307.475 304.31C307.97 304.34 308.9 304.4 309.71 304.4H317.87C318.59 304.4 319.175 304.34 319.55 304.31V306.17C319.22 306.155 318.53 306.095 317.87 306.095H309.71C308.885 306.095 307.985 306.125 307.475 306.17V304.31ZM325.287 299.315C326.217 299.84 327.912 300.95 328.617 301.46L327.732 302.75C326.967 302.195 325.362 301.13 324.432 300.605L325.287 299.315ZM322.812 310.01C324.477 309.725 326.307 309.17 327.882 308.3C330.387 306.875 332.412 304.865 333.627 302.735L334.542 304.325C333.192 306.365 331.107 308.285 328.677 309.695C327.162 310.58 325.062 311.3 323.697 311.555L322.812 310.01ZM323.007 302.72C323.952 303.215 325.662 304.28 326.367 304.775L325.497 306.11C324.702 305.54 323.112 304.52 322.152 304.01L323.007 302.72ZM338.997 302.66C339.342 302.705 340.212 302.72 340.677 302.72H346.422C346.767 302.72 347.232 302.705 347.442 302.705C347.427 302.885 347.427 303.275 347.427 303.575V311.06C347.427 311.3 347.442 311.72 347.457 311.96H345.957C345.972 311.825 345.972 311.6 345.972 311.36H340.092C339.642 311.36 339.087 311.39 338.832 311.405V309.92C339.087 309.95 339.567 309.98 340.092 309.98H345.972V307.61H340.842C340.302 307.61 339.687 307.61 339.357 307.64V306.215C339.702 306.23 340.302 306.26 340.827 306.26H345.972V304.07H340.677C340.212 304.07 339.312 304.1 338.997 304.115V302.66ZM354.222 299.825C355.272 300.53 357.222 302.09 358.062 302.96L356.877 304.175C356.097 303.38 354.237 301.745 353.127 300.995L354.222 299.825ZM352.677 309.86C355.182 309.485 357.132 308.645 358.572 307.76C360.987 306.275 362.862 304.025 363.777 302.105L364.692 303.74C363.612 305.69 361.767 307.73 359.427 309.17C357.912 310.1 356.007 310.985 353.682 311.405L352.677 309.86ZM377.292 298.88C377.667 299.42 378.207 300.35 378.507 300.935L377.517 301.355C377.217 300.755 376.737 299.855 376.332 299.285L377.292 298.88ZM378.987 298.235C379.392 298.79 379.962 299.735 380.232 300.275L379.257 300.71C378.942 300.065 378.447 299.21 378.027 298.64L378.987 298.235ZM373.482 299.69C373.182 300.14 372.867 300.71 372.702 301.01C372.627 301.145 372.567 301.265 372.477 301.4H376.092C376.512 301.4 376.932 301.34 377.217 301.25L378.447 302C378.297 302.24 378.132 302.615 378.027 302.915C377.622 304.355 376.737 306.365 375.387 308.015C374.007 309.71 372.192 311.09 369.387 312.17L367.992 310.91C370.887 310.055 372.672 308.72 374.007 307.175C375.117 305.9 376.017 304.01 376.287 302.75H371.592C370.647 304.04 369.357 305.36 367.797 306.41L366.477 305.435C369.087 303.86 370.482 301.79 371.187 300.47C371.367 300.155 371.622 299.555 371.742 299.12L373.482 299.69ZM384.147 299.69C384.537 299.735 385.092 299.765 385.587 299.765H391.422C391.902 299.765 392.517 299.735 392.892 299.69V301.235C392.517 301.205 391.917 301.19 391.407 301.19H385.587C385.107 301.19 384.567 301.205 384.147 301.235V299.69ZM394.077 303.815C393.987 303.98 393.867 304.205 393.837 304.34C393.417 305.795 392.742 307.31 391.632 308.54C390.087 310.25 388.182 311.195 386.262 311.735L385.092 310.385C387.282 309.935 389.112 308.96 390.342 307.685C391.197 306.8 391.737 305.675 392.007 304.685H384.372C384.012 304.685 383.352 304.7 382.782 304.745V303.185C383.367 303.245 383.937 303.29 384.372 303.29H392.052C392.457 303.29 392.817 303.23 393.012 303.155L394.077 303.815ZM408.822 301.025C408.702 301.265 408.627 301.595 408.552 301.895C408.222 303.425 407.532 305.81 406.317 307.4C404.952 309.185 403.077 310.61 400.347 311.465L399.057 310.055C401.997 309.335 403.692 308.06 404.922 306.485C405.957 305.18 406.602 303.26 406.797 301.88H399.432C398.787 301.88 398.187 301.91 397.812 301.94V300.26C398.232 300.32 398.937 300.38 399.432 300.38H406.707C406.962 300.38 407.337 300.365 407.667 300.275L408.822 301.025ZM412.159 306.95C414.124 306.5 416.344 305.48 417.559 304.745C418.984 303.86 420.424 302.585 421.204 301.625L422.374 302.765C421.624 303.56 420.334 304.64 418.999 305.525V310.79C418.999 311.27 419.014 311.975 419.074 312.23H417.334C417.364 311.975 417.394 311.27 417.394 310.79V306.47C416.104 307.145 414.379 307.88 412.879 308.36L412.159 306.95ZM432.829 302.24C433.099 302.87 433.834 304.835 434.029 305.495L432.619 306.005C432.439 305.3 431.764 303.425 431.419 302.705L432.829 302.24ZM438.304 303.2C438.169 303.575 438.079 303.845 438.019 304.085C437.614 305.69 436.969 307.28 435.919 308.615C434.539 310.385 432.679 311.6 430.984 312.245L429.739 310.97C431.434 310.49 433.414 309.35 434.659 307.805C435.694 306.515 436.444 304.565 436.654 302.675L438.304 303.2ZM429.334 303.02C429.679 303.71 430.429 305.6 430.714 306.425L429.289 306.95C429.034 306.155 428.254 304.115 427.924 303.53L429.334 303.02ZM448.729 299.33C448.429 299.78 448.114 300.365 447.949 300.665C447.889 300.785 447.814 300.92 447.739 301.04H451.339C451.759 301.04 452.179 300.995 452.464 300.89L453.694 301.64C453.544 301.88 453.379 302.255 453.274 302.555C452.869 303.995 451.984 306.005 450.634 307.655C449.254 309.365 447.439 310.73 444.634 311.81L443.239 310.565C446.134 309.695 447.919 308.375 449.254 306.815C450.364 305.54 451.264 303.65 451.534 302.39H446.854C445.894 303.68 444.619 305.015 443.044 306.065L441.724 305.075C444.334 303.515 445.729 301.43 446.434 300.11C446.614 299.81 446.869 299.195 446.989 298.76L448.729 299.33ZM467.205 300.905C467.1 301.055 466.875 301.43 466.77 301.685C466.245 302.915 465.36 304.61 464.31 305.96C465.855 307.28 467.67 309.215 468.6 310.355L467.28 311.525C466.29 310.175 464.79 308.525 463.305 307.145C461.7 308.855 459.675 310.46 457.53 311.465L456.315 310.19C458.745 309.26 460.995 307.46 462.48 305.795C463.5 304.655 464.505 303.005 464.865 301.835H459.36C458.775 301.835 457.965 301.91 457.725 301.925V300.23C458.025 300.275 458.895 300.335 459.36 300.335H464.925C465.48 300.335 465.975 300.275 466.23 300.185L467.205 300.905ZM340.395 333V321.885H342.615V331.14H347.13V333H340.395ZM352.177 333.21C350.077 333.21 348.142 331.59 348.142 328.8C348.142 326.01 350.077 324.39 352.177 324.39C354.277 324.39 356.212 326.01 356.212 328.8C356.212 331.59 354.277 333.21 352.177 333.21ZM352.177 331.41C353.317 331.41 353.962 330.39 353.962 328.8C353.962 327.225 353.317 326.19 352.177 326.19C351.037 326.19 350.392 327.225 350.392 328.8C350.392 330.39 351.037 331.41 352.177 331.41ZM359.335 333L357.16 324.6H359.365L360.28 328.74C360.445 329.565 360.55 330.36 360.7 331.2H360.76C360.925 330.36 361.075 329.55 361.285 328.74L362.305 324.6H364.255L365.305 328.74C365.5 329.565 365.65 330.36 365.83 331.2H365.905C366.055 330.36 366.175 329.565 366.325 328.74L367.24 324.6H369.28L367.21 333H364.615L363.73 329.34C363.55 328.545 363.415 327.78 363.25 326.895H363.175C363.01 327.78 362.89 328.56 362.71 329.34L361.855 333H359.335ZM374.432 333.21C372.077 333.21 370.247 331.575 370.247 328.8C370.247 326.085 372.167 324.39 374.162 324.39C376.472 324.39 377.672 326.085 377.672 328.395C377.672 328.815 377.627 329.22 377.567 329.415H372.392C372.572 330.795 373.472 331.515 374.717 331.515C375.407 331.515 376.007 331.305 376.607 330.93L377.357 332.28C376.532 332.85 375.467 333.21 374.432 333.21ZM372.362 327.945H375.782C375.782 326.82 375.272 326.1 374.192 326.1C373.307 326.1 372.527 326.73 372.362 327.945ZM379.488 333V324.6H381.288L381.453 326.085H381.498C382.113 324.99 383.013 324.39 383.883 324.39C384.348 324.39 384.618 324.465 384.873 324.57L384.498 326.475C384.198 326.385 383.958 326.34 383.613 326.34C382.953 326.34 382.158 326.775 381.693 327.99V333H379.488ZM388.631 333V323.175H385.301V322.005H393.356V323.175H390.026V333H388.631ZM395.195 333V321.06H396.575V324.33L396.515 326.01C396.895 325.63 397.3 325.31 397.73 325.05C398.16 324.78 398.655 324.645 399.215 324.645C400.075 324.645 400.705 324.92 401.105 325.47C401.505 326.01 401.705 326.8 401.705 327.84V333H400.34V328.02C400.34 327.25 400.215 326.695 399.965 326.355C399.725 326.015 399.335 325.845 398.795 325.845C398.375 325.845 398 325.95 397.67 326.16C397.34 326.37 396.975 326.68 396.575 327.09V333H395.195ZM404.307 333V324.855H405.687V333H404.307ZM404.997 323.175C404.727 323.175 404.507 323.095 404.337 322.935C404.177 322.765 404.097 322.54 404.097 322.26C404.097 321.99 404.177 321.775 404.337 321.615C404.507 321.455 404.727 321.375 404.997 321.375C405.267 321.375 405.487 321.455 405.657 321.615C405.827 321.775 405.912 321.99 405.912 322.26C405.912 322.54 405.827 322.765 405.657 322.935C405.487 323.095 405.267 323.175 404.997 323.175ZM408.438 333V324.855H409.563L409.698 326.34H409.728C410.008 325.82 410.348 325.41 410.748 325.11C411.158 324.8 411.588 324.645 412.038 324.645C412.228 324.645 412.388 324.66 412.518 324.69C412.658 324.71 412.788 324.755 412.908 324.825L412.653 326.01C412.513 325.97 412.388 325.94 412.278 325.92C412.168 325.89 412.028 325.875 411.858 325.875C411.528 325.875 411.173 326.02 410.793 326.31C410.413 326.59 410.088 327.075 409.818 327.765V333H408.438ZM416.823 333.195C416.143 333.195 415.548 333.03 415.038 332.7C414.538 332.37 414.148 331.89 413.868 331.26C413.598 330.62 413.463 329.845 413.463 328.935C413.463 328.055 413.628 327.295 413.958 326.655C414.288 326.015 414.718 325.52 415.248 325.17C415.788 324.82 416.368 324.645 416.988 324.645C417.468 324.645 417.878 324.73 418.218 324.9C418.568 325.06 418.923 325.29 419.283 325.59L419.208 324.195V321.06H420.588V333H419.463L419.343 332.04H419.298C418.978 332.36 418.608 332.635 418.188 332.865C417.768 333.085 417.313 333.195 416.823 333.195ZM417.123 332.04C417.503 332.04 417.863 331.95 418.203 331.77C418.543 331.58 418.878 331.3 419.208 330.93V326.655C418.868 326.345 418.538 326.125 418.218 325.995C417.898 325.865 417.568 325.8 417.228 325.8C416.798 325.8 416.403 325.935 416.043 326.205C415.693 326.465 415.408 326.83 415.188 327.3C414.978 327.76 414.873 328.3 414.873 328.92C414.873 329.57 414.963 330.13 415.143 330.6C415.323 331.07 415.578 331.43 415.908 331.68C416.248 331.92 416.653 332.04 417.123 332.04Z" fill="black"/>
<path d="M829.76 39.28H834V37.5H829.76V39.28ZM834 36.02V34.26H829.76V36.02H834ZM840.36 36.02V34.26H835.9V36.02H840.36ZM840.36 39.28V37.5H835.9V39.28H840.36ZM843.92 42.42V44.16H835.9V47.58H834V44.16H826.12V42.42H834V40.84H827.94V32.7H829.7C829.32 31.92 828.58 30.88 827.92 30.1L829.54 29.38C830.28 30.2 831.14 31.38 831.54 32.16L830.42 32.7H834.42C834.12 31.86 833.48 30.68 832.88 29.8L834.54 29.16C835.22 30.1 835.94 31.36 836.24 32.18L834.96 32.7H838.28C839 31.74 839.84 30.3 840.3 29.22L842.34 29.86C841.72 30.84 841.02 31.86 840.38 32.7H842.26V40.84H835.9V42.42H843.92ZM851.74 32.98H856.68V29.46H858.56V32.98H863.82V34.74H851.74V32.98ZM856.46 43.74L854.62 44.14C854.5 42.16 853.94 38.78 853.26 36.18L854.94 35.88C855.66 38.48 856.3 41.78 856.46 43.74ZM850.4 29.26L852.14 29.82C851.6 31.18 850.94 32.52 850.18 33.82V47.52H848.42V36.48C847.78 37.32 847.12 38.1 846.46 38.76C846.28 38.34 845.74 37.34 845.44 36.86C847.4 35.04 849.28 32.18 850.4 29.26ZM859.82 44.92H864.28V46.68H851.3V44.92H858.02C858.86 42.44 859.8 38.56 860.26 35.74L862.26 36.08C861.62 39 860.68 42.52 859.82 44.92Z" fill="black"/>
<path d="M619.76 39.28H624V37.5H619.76V39.28ZM624 36.02V34.26H619.76V36.02H624ZM630.36 36.02V34.26H625.9V36.02H630.36ZM630.36 39.28V37.5H625.9V39.28H630.36ZM633.92 42.42V44.16H625.9V47.58H624V44.16H616.12V42.42H624V40.84H617.94V32.7H619.7C619.32 31.92 618.58 30.88 617.92 30.1L619.54 29.38C620.28 30.2 621.14 31.38 621.54 32.16L620.42 32.7H624.42C624.12 31.86 623.48 30.68 622.88 29.8L624.54 29.16C625.22 30.1 625.94 31.36 626.24 32.18L624.96 32.7H628.28C629 31.74 629.84 30.3 630.3 29.22L632.34 29.86C631.72 30.84 631.02 31.86 630.38 32.7H632.26V40.84H625.9V42.42H633.92ZM639.92 29.26L641.6 29.8C641.1 31.18 640.46 32.58 639.74 33.9V47.56H638V36.68C637.48 37.38 636.96 38.04 636.42 38.6C636.26 38.2 635.72 37.22 635.44 36.78C637.22 34.96 638.9 32.14 639.92 29.26ZM648.54 35.78V32.86H646.66V35.78H648.54ZM652.02 44.36V37.44H650.12V44.36H652.02ZM643.28 37.44V44.36H645.08V37.44H643.28ZM648.54 37.44H646.66V44.36H648.54V37.44ZM653.96 32.86H650.3V35.78H653.82V47.1H652.02V45.98H643.28V47.2H641.56V35.78H644.92V32.86H641.34V31.18H653.96V32.86Z" fill="black"/>
<path d="M372.76 35.1V31.84H365.26V35.1H372.76ZM374.66 30.06V36.88H363.48V30.06H374.66ZM366.06 40.6H362.42V44.76H366.06V40.6ZM360.66 47.58V38.82H367.9V47.44H366.06V46.54H362.42V47.58H360.66ZM371.64 44.76H375.6V40.6H371.64V44.76ZM369.86 38.82H377.46V47.48H375.6V46.54H371.64V47.58H369.86V38.82ZM383.96 44.3H393.84V41.44H383.96V44.3ZM393.84 36.8H383.96V39.68H393.84V36.8ZM393.84 32.2H383.96V35.04H393.84V32.2ZM382.08 30.38H395.8V47.44H393.84V46.12H383.96V47.44H382.08V30.38Z" fill="black"/>
<path d="M46.6 181V182.275C48.025 182.175 49.5 182.05 50.95 181.925C52.9 179.225 53.5 175.65 53.675 171.175H51.4V169.225H46.6V170.2H51.025V177.925H46.6V178.9H51.125V181H46.6ZM41.95 176.075H43.9V174.95H41.95V176.075ZM48.55 174.95H46.6V176.075H48.55V174.95ZM46.6 173.175H48.55V172.075H46.6V173.175ZM41.95 172.075V173.175H43.9V172.075H41.95ZM56.575 168.45H61.65C61.65 168.45 61.625 169.425 61.625 169.775C61.4 180 61.2 183.625 60.4 184.775C59.825 185.6 59.25 185.85 58.425 186.025C57.675 186.175 56.525 186.15 55.325 186.125C55.275 185.3 54.95 184.1 54.45 183.275C55.55 183.375 56.5 183.4 56.975 183.4C57.35 183.4 57.6 183.3 57.825 182.975C58.35 182.3 58.6 179.25 58.75 171.175H56.5C56.175 177.875 55.025 183.025 50.825 186.35C50.45 185.75 49.725 184.925 49.075 184.375C45.475 184.75 41.875 185.125 39.175 185.35L38.825 182.85C40.225 182.75 41.975 182.625 43.9 182.5V181H39.5V178.9H43.9V177.925H39.6V170.2H43.9V169.225H38.975V167.075H43.9V166.075C42.45 166.175 41.025 166.25 39.675 166.275C39.575 165.675 39.3 164.75 39.025 164.175C42.725 163.975 47.05 163.55 49.8 162.95L51.1 165.175C49.775 165.45 48.225 165.675 46.6 165.85V167.075H51.4V168.45H53.75C53.775 166.8 53.775 165.075 53.775 163.225H56.625C56.625 165.05 56.625 166.8 56.575 168.45ZM83.075 181.9V168.75H85.95V186.15H83.075V184.7H67.975V186.175H65.075V168.75H67.975V181.9H83.075ZM78.875 173.625V171.525H76.7V173.625H78.875ZM78.875 178V175.875H76.7V178H78.875ZM71.975 175.875V178H74.15V175.875H71.975ZM71.975 171.525V173.625H74.15V171.525H71.975ZM64.325 164.325H86.7V167.1H76.9V169.1H81.45V180.425H69.55V169.1H73.925V167.1H64.325V164.325ZM89.675 177.45L91.95 177.825C91.75 180.2 91.2 182.65 90.475 184.25C90 183.95 88.975 183.45 88.4 183.25C89.125 181.775 89.475 179.55 89.675 177.45ZM93.125 173.475L95.2 173.35C94.975 172.75 94.725 172.15 94.45 171.625C94 172.275 93.575 172.9 93.125 173.475ZM96 175.75L94.725 175.85V186.175H92.225V176.05L88.925 176.3L88.625 173.725C89.225 173.7 89.875 173.65 90.6 173.625C90.925 173.175 91.275 172.675 91.6 172.175C90.95 171.025 89.725 169.625 88.7 168.55L90.125 166.625C90.325 166.8 90.525 167 90.725 167.2C91.425 165.825 92.125 164.125 92.525 162.85L95.05 163.725C94.15 165.45 93.125 167.425 92.25 168.825C92.55 169.175 92.825 169.525 93.05 169.85C93.875 168.45 94.625 167 95.2 165.775L97.55 166.85C96.625 168.375 95.55 170.05 94.45 171.625L96.4 170.825C97.3 172.575 98.15 174.825 98.4 176.275L96.325 177.175C96.25 176.75 96.15 176.275 96 175.75ZM108.2 181.7V183.825C108.575 183.85 108.9 183.85 109.075 183.85C109.2 183.85 109.25 183.8 109.25 183.6V181.7H108.2ZM105.3 179.6H106.375V177.5H105.3V179.6ZM102.5 179.6H103.5V177.5H102.5V179.6ZM109.25 177.5H108.2V179.6H109.25V177.5ZM108.325 170.2H101.175V171.85H108.325V170.2ZM111.675 175.275V183.65C111.675 184.625 111.575 185.275 110.975 185.7C110.425 186.1 109.75 186.175 108.9 186.175C108.8 185.525 108.5 184.575 108.2 183.925V185.975H106.375V181.7H105.3V185.975H103.5V181.7H102.5V186.175H100.45V180.65C100.025 182.6 99.35 184.5 98.3 186.05C97.85 185.575 96.725 184.75 96.125 184.475C96.625 183.75 97.025 182.925 97.325 182.1L96 182.525C95.9 181.275 95.4 179.4 94.85 177.925L96.8 177.35C97.225 178.325 97.6 179.475 97.825 180.5C98.5 177.95 98.575 175.2 98.575 173.025V167.85H111.175V174.2H101.15C101.15 174.55 101.15 174.9 101.125 175.275H111.675ZM97.65 164.225H111.75V166.75H97.65V164.225ZM119.925 173.8V174.875H124.65V173.8H119.925ZM124.65 168.85V167.825H119.925V168.85H124.65ZM124.65 171.85V170.8H119.925V171.85H124.65ZM136.725 180.475H129.325C131.575 181.775 134.575 182.9 137.325 183.5C136.7 184.075 135.875 185.175 135.475 185.875C132.55 185.075 129.375 183.575 126.9 181.775V186.15H123.975V181.875C121.5 183.675 118.275 185.2 115.35 186C114.9 185.275 114.075 184.175 113.45 183.55C116.3 182.95 119.4 181.8 121.725 180.475H114.275V178.1H123.975V177.125H117.1V170.375C116.65 170.8 116.175 171.2 115.675 171.6C115.2 170.925 114.225 170.025 113.575 169.6C116.35 167.6 118.375 164.975 119.5 162.8L122.575 163.375C122.175 164.1 121.725 164.8 121.225 165.525H124.775C125.2 164.625 125.625 163.625 125.875 162.825L129.225 163.225C128.8 164.025 128.325 164.825 127.875 165.525H135.35V167.825H127.5V168.85H134.125V170.8H127.5V171.85H134.15V173.8H127.5V174.875H136.075V177.125H126.9V178.1H136.725V180.475ZM150.5 171.3C152.25 171.3 153.7 172.75 153.7 174.5C153.7 176.25 152.25 177.7 150.5 177.7C148.75 177.7 147.3 176.25 147.3 174.5C147.3 172.75 148.75 171.3 150.5 171.3ZM166.275 170.7H169.65V168.825H167.125C166.85 169.525 166.55 170.15 166.275 170.7ZM172.475 168.825V170.7H177.95V173.375H172.475V175.2H177.35V181.575C177.35 182.725 177.175 183.425 176.45 183.85C175.75 184.275 174.8 184.325 173.55 184.3C173.475 183.55 173.15 182.5 172.825 181.775C173.525 181.825 174.15 181.825 174.375 181.8C174.6 181.8 174.675 181.75 174.675 181.5V177.85H172.475V186.15H169.65V177.85H167.6V184.175H164.95V175.2H169.65V173.375H163.975V170.7H165.85C165.2 170.375 164.175 169.95 163.6 169.75C164.625 168.175 165.45 165.65 165.9 163.275L168.625 163.85C168.475 164.625 168.275 165.375 168.05 166.125H169.65V162.975H172.475V166.125H176.95V168.825H172.475ZM181.85 164.875V178.95H179.075V164.875H181.85ZM183.55 163.25H186.4V182.65C186.4 184.25 186.075 185.05 185.175 185.55C184.25 186.025 182.8 186.125 180.875 186.125C180.775 185.3 180.375 184 180 183.125C181.275 183.175 182.575 183.175 183 183.175C183.4 183.15 183.55 183.05 183.55 182.625V163.25ZM194.3 162.925L197.2 163.825C196.55 165.575 195.725 167.35 194.8 169.025V186.15H191.8V173.65C191.275 174.275 190.75 174.9 190.25 175.45C189.975 174.725 189.125 173.025 188.6 172.275C190.875 170.025 193.05 166.475 194.3 162.925ZM212.225 169.725H205.125V172.35H211.6V175.05H205.125V177.875H211.925V180.625H205.125V186.175H202.075V169.725H201.125C200.125 171.575 198.975 173.275 197.85 174.575C197.375 174.025 196.2 172.975 195.575 172.5C197.775 170.25 199.75 166.65 200.875 163.075L203.75 163.8C203.4 164.85 203 165.875 202.525 166.9H212.225V169.725Z" fill="white"/>
</g>
<defs>
<clipPath id="clip0_89_2">
<rect width="920" height="350" fill="white"/>
</clipPath>
</defs>
</svg>
