<svg width="920" height="280" viewBox="0 0 920 280" fill="none" xmlns="http://www.w3.org/2000/svg">
<g clip-path="url(#clip0_89_3)">
<rect width="920" height="280" fill="white"/>
<rect y="-2.67029e-05" width="252" height="280" fill="#787878"/>
<path d="M252.055 -2.67029e-05H504.11V70.0152H252.055V-2.67029e-05Z" fill="#D9D9D9"/>
<path d="M252.055 70.0152H504.11V140.03H252.055V70.0152Z" fill="#D9D9D9"/>
<path d="M252.055 70.0152H504.11V140.03H252.055V70.0152Z" fill="white"/>
<path d="M252.055 140.03H504.11V210.046H252.055V140.03Z" fill="#D9D9D9"/>
<path d="M252.055 140.03H504.11V210.046H252.055V140.03Z" fill="white"/>
<path d="M252.055 210.046H504.11V280.061H252.055V210.046Z" fill="#D9D9D9"/>
<path d="M252.055 210.046H504.11V280.061H252.055V210.046Z" fill="white"/>
<path d="M504.11 -2.67029e-05H756.164V70.0152H504.11V-2.67029e-05Z" fill="#D9D9D9"/>
<path d="M504.11 70.0152H756.164V140.03H504.11V70.0152Z" fill="#D9D9D9"/>
<path d="M504.11 70.0152H756.164V140.03H504.11V70.0152Z" fill="white"/>
<path d="M504.11 140.03H756.164V210.046H504.11V140.03Z" fill="#D9D9D9"/>
<path d="M504.11 140.03H756.164V210.046H504.11V140.03Z" fill="white"/>
<path d="M504.11 210.046H756.164V280.061H504.11V210.046Z" fill="#D9D9D9"/>
<path d="M504.11 210.046H756.164V280.061H504.11V210.046Z" fill="white"/>
<path d="M756.164 -2.67029e-05H920V70.0152H756.164V-2.67029e-05Z" fill="#D9D9D9"/>
<path d="M756.164 70.0152H920V140.03H756.164V70.0152Z" fill="#D9D9D9"/>
<path d="M756.164 70.0152H920V140.03H756.164V70.0152Z" fill="white"/>
<path d="M756.164 140.03H920V210.046H756.164V140.03Z" fill="#D9D9D9"/>
<path d="M756.164 140.03H920V210.046H756.164V140.03Z" fill="white"/>
<path d="M756.164 210.046H920V280.061H756.164V210.046Z" fill="#D9D9D9"/>
<path d="M756.164 210.046H920V280.061H756.164V210.046Z" fill="white"/>
<path d="M919.75 210.296V279.811H756.414V210.296H919.75ZM755.914 210.296V279.811H504.359V210.296H755.914ZM503.859 210.296V279.811H252.305V210.296H503.859ZM919.75 140.28V209.796H756.414V140.28H919.75ZM755.914 140.28V209.796H504.359V140.28H755.914ZM503.859 140.28V209.796H252.305V140.28H503.859ZM919.75 70.2656V139.78H756.414V70.2656H919.75ZM755.914 70.2656V139.78H504.359V70.2656H755.914ZM503.859 70.2656V139.78H252.305V70.2656H503.859ZM919.75 0.249973V69.7656H756.414V0.249973H919.75ZM755.914 0.249973V69.7656H504.359V0.249973H755.914ZM503.859 0.249973V69.7656H252.305V0.249973H503.859Z" stroke="black" stroke-width="0.5"/>
<path d="M42.3 145.625C43.025 145.675 43.825 145.75 44.725 145.75H56.75C57.6 145.75 58.425 145.7 59 145.625V148.75C58.35 148.725 57.65 148.675 56.75 148.675H50.875V152.925H58.425C58.95 152.925 60.2 152.875 60.85 152.825L60.875 156.025C60.175 155.95 59.05 155.95 58.5 155.95H50.875V159.775C50.875 161.15 51.725 161.65 53.725 161.65C55.975 161.65 58.175 161.5 60.175 161.3L59.95 164.675C58.325 164.775 55.5 164.875 53.15 164.875C48.575 164.875 47.45 163.3 47.45 160.775V155.95H43.375C42.65 155.95 41.4 156.025 40.65 156.075V152.8C41.35 152.85 42.6 152.925 43.375 152.925H47.45V148.675H44.725C43.825 148.675 43.025 148.7 42.3 148.75V145.625ZM67.7 145.125C68.5 145.25 69.525 145.325 70.375 145.325H78.55C79.4 145.325 80.4 145.25 81.25 145.125V148.35C80.4 148.3 79.425 148.275 78.55 148.275H70.375C69.525 148.275 68.45 148.3 67.7 148.35V145.125ZM64.8 151.525C65.55 151.625 66.425 151.675 67.2 151.675H83.575C84.1 151.675 85.2 151.625 85.85 151.525V154.775C85.225 154.725 84.275 154.7 83.575 154.7H77.55C77.4 157.275 76.85 159.375 75.95 161.125C75.075 162.875 73.15 164.8 70.925 165.925L68 163.8C69.775 163.125 71.525 161.7 72.525 160.225C73.55 158.675 73.975 156.8 74.075 154.7H67.2C66.475 154.7 65.5 154.75 64.8 154.8V151.525ZM82.75 143.4C83.375 144.325 84.25 145.9 84.725 146.825L82.725 147.7C82.2 146.675 81.425 145.175 80.75 144.225L82.75 143.4ZM85.7 142.275C86.35 143.225 87.275 144.8 87.725 145.675L85.725 146.55C85.2 145.5 84.4 144.05 83.725 143.1L85.7 142.275ZM108.075 144.6C108.025 145.3 107.975 146.1 107.975 147.1V152.05C107.975 157.425 106.925 159.75 105.075 161.8C103.425 163.6 100.825 164.825 99 165.4L96.4 162.65C98.875 162.075 100.9 161.125 102.4 159.5C104.125 157.625 104.45 155.75 104.45 151.85V147.1C104.45 146.1 104.4 145.3 104.3 144.6H108.075ZM96.475 144.8C96.425 145.375 96.4 145.925 96.4 146.725V155.175C96.4 155.8 96.425 156.775 96.475 157.35H92.85C92.875 156.875 92.975 155.9 92.975 155.15V146.725C92.975 146.25 92.95 145.375 92.875 144.8H96.475ZM119.025 145C120.775 146.175 124.025 148.775 125.475 150.3L122.925 152.9C121.625 151.5 118.5 148.775 116.675 147.5L119.025 145ZM115.9 161.65C119.8 161.1 123.05 159.825 125.475 158.375C129.75 155.85 133 152.025 134.575 148.65L136.525 152.175C134.625 155.55 131.3 159 127.275 161.425C124.75 162.95 121.525 164.35 118 164.95L115.9 161.65ZM157.475 143.525C158.1 144.425 159 146.025 159.45 146.95L157.6 147.725L159.725 149.025C159.45 149.5 159.1 150.2 158.9 150.825C158.225 153.05 156.8 156.375 154.525 159.15C152.15 162.075 149.15 164.35 144.45 166.225L141.5 163.575C146.6 162.05 149.375 159.875 151.575 157.375C153.275 155.45 154.725 152.425 155.125 150.575H148.1C146.425 152.75 144.25 154.95 141.775 156.625L138.975 154.525C143.35 151.875 145.55 148.625 146.775 146.475C147.15 145.875 147.675 144.725 147.9 143.875L151.575 145.075C150.975 145.95 150.325 147.075 150.05 147.625C150.025 147.675 150 147.7 149.975 147.75H154.975C155.75 147.75 156.6 147.625 157.15 147.45L157.325 147.55C156.825 146.55 156.125 145.225 155.5 144.325L157.475 143.525ZM160.425 142.4C161.075 143.325 162 144.925 162.45 145.8L160.475 146.65C159.95 145.6 159.15 144.15 158.45 143.2L160.425 142.4ZM170.25 159.65V160.675H181V159.65H170.25ZM176.85 151.125H173.525C173.25 151.725 172.85 152.275 172.3 152.775H176.85V151.125ZM168.8 148.4L168.475 149.375H171.2C171.3 149.075 171.35 148.75 171.35 148.4H168.8ZM174.075 145.675V146.675H176.85V145.675H174.075ZM182.275 145.675H179.675V146.675H182.275V145.675ZM176.85 149.375V148.4H174.075C174.05 148.725 174.025 149.05 174 149.375H176.85ZM183.675 151.125H179.675V152.775H181.85C181.775 152.475 181.65 152.175 181.55 151.95C182.125 152.025 182.65 152.05 182.925 152.025C183.15 152.025 183.3 152.025 183.45 151.85C183.55 151.725 183.625 151.5 183.675 151.125ZM181 155.45V154.475H170.25V155.45H181ZM181 158.05V157.05H170.25V158.05H181ZM184.025 162.375H180.25C182.65 163.15 185.275 164.1 186.85 164.775L183.55 166.2C182.075 165.45 179.475 164.4 176.875 163.55L178.775 162.375H172.1L174.075 163.275C172 164.5 168.825 165.625 166.275 166.25C165.8 165.675 164.75 164.625 164.125 164.125C166.45 163.725 169 163.1 170.75 162.375H167.35V154.95C166.775 155.075 166.175 155.175 165.5 155.275C165.25 154.65 164.55 153.525 164.1 152.975C167.2 152.575 169 151.95 170.025 151.125H167.825L167.75 151.35L165.05 151.175C165.6 149.95 166.2 148.15 166.625 146.675H171.375V145.675H165.7V143.925H171.375V142.85H174.075V143.925H176.85V142.85H179.675V143.925H184.975V148.4H179.675V149.375H186.6C186.6 149.375 186.575 149.875 186.55 150.15C186.425 151.775 186.275 152.675 185.85 153.125C185.475 153.5 184.925 153.7 184.4 153.725C184.3 153.725 184.175 153.75 184.025 153.75V162.375ZM202.25 156.075H207.525V153H202.25V156.075ZM194.475 156.075H199.25V153H194.55V153.45C194.55 154.25 194.525 155.15 194.475 156.075ZM199.25 147.325H194.55V150.225H199.25V147.325ZM207.525 150.225V147.325H202.25V150.225H207.525ZM210.475 144.5V162.65C210.475 164.25 210.125 165.05 209.125 165.5C208.1 166 206.575 166.05 204.325 166.025C204.225 165.225 203.75 163.95 203.375 163.175C204.775 163.25 206.425 163.225 206.875 163.225C207.35 163.225 207.525 163.075 207.525 162.625V158.875H202.25V165.85H199.25V158.875H194.15C193.7 161.6 192.8 164.35 191 166.3C190.525 165.75 189.325 164.725 188.65 164.375C191.375 161.375 191.6 156.925 191.6 153.425V144.5H210.475Z" fill="white"/>
<path d="M606.399 250.195C604.659 250.195 603.534 249.505 602.799 248.68L603.639 247.57C604.284 248.23 605.109 248.785 606.249 248.785C607.494 248.785 608.349 248.095 608.349 246.94C608.349 245.725 607.569 244.93 605.079 244.93V243.655C607.254 243.655 607.974 242.83 607.974 241.72C607.974 240.745 607.329 240.145 606.279 240.13C605.424 240.145 604.704 240.55 604.074 241.165L603.174 240.085C604.044 239.305 605.064 238.75 606.339 238.75C608.319 238.75 609.714 239.785 609.714 241.6C609.714 242.875 608.979 243.76 607.809 244.195V244.27C609.084 244.585 610.089 245.545 610.089 247.03C610.089 249.025 608.424 250.195 606.399 250.195ZM615.209 250.195C613.049 250.195 611.639 248.275 611.639 244.435C611.639 240.61 613.049 238.75 615.209 238.75C617.369 238.75 618.779 240.625 618.779 244.435C618.779 248.275 617.369 250.195 615.209 250.195ZM615.209 248.83C616.334 248.83 617.129 247.63 617.129 244.435C617.129 241.27 616.334 240.115 615.209 240.115C614.084 240.115 613.289 241.27 613.289 244.435C613.289 247.63 614.084 248.83 615.209 248.83ZM620.674 253L620.284 252.025C621.319 251.605 621.919 250.84 621.919 249.97C621.859 249.985 621.814 249.985 621.754 249.985C621.139 249.985 620.599 249.595 620.599 248.875C620.599 248.2 621.139 247.765 621.799 247.765C622.639 247.765 623.134 248.47 623.134 249.625C623.134 251.2 622.219 252.415 620.674 253ZM628.232 250.195C626.072 250.195 624.662 248.275 624.662 244.435C624.662 240.61 626.072 238.75 628.232 238.75C630.392 238.75 631.802 240.625 631.802 244.435C631.802 248.275 630.392 250.195 628.232 250.195ZM628.232 248.83C629.357 248.83 630.152 247.63 630.152 244.435C630.152 241.27 629.357 240.115 628.232 240.115C627.107 240.115 626.312 241.27 626.312 244.435C626.312 247.63 627.107 248.83 628.232 248.83ZM636.786 250.195C634.626 250.195 633.216 248.275 633.216 244.435C633.216 240.61 634.626 238.75 636.786 238.75C638.946 238.75 640.356 240.625 640.356 244.435C640.356 248.275 638.946 250.195 636.786 250.195ZM636.786 248.83C637.911 248.83 638.706 247.63 638.706 244.435C638.706 241.27 637.911 240.115 636.786 240.115C635.661 240.115 634.866 241.27 634.866 244.435C634.866 247.63 635.661 248.83 636.786 248.83ZM645.341 250.195C643.181 250.195 641.771 248.275 641.771 244.435C641.771 240.61 643.181 238.75 645.341 238.75C647.501 238.75 648.911 240.625 648.911 244.435C648.911 248.275 647.501 250.195 645.341 250.195ZM645.341 248.83C646.466 248.83 647.261 247.63 647.261 244.435C647.261 241.27 646.466 240.115 645.341 240.115C644.216 240.115 643.421 241.27 643.421 244.435C643.421 247.63 644.216 248.83 645.341 248.83ZM657.766 243.88H661.951V239.785H657.766V243.88ZM652.366 239.785V243.88H656.386V239.785H652.366ZM663.361 238.405V249.445C663.361 250.255 663.181 250.675 662.626 250.915C662.086 251.14 661.216 251.17 659.881 251.17C659.821 250.78 659.596 250.15 659.371 249.775C660.331 249.82 661.291 249.805 661.576 249.79C661.861 249.79 661.951 249.7 661.951 249.43V245.26H652.366V251.185H650.971V238.405H663.361ZM671.581 244.825C670.846 244.09 670.246 243.655 669.181 243.655C668.086 243.655 667.141 244.42 666.541 245.56L665.221 244.84C666.196 243.07 667.606 242.155 669.196 242.155C670.591 242.155 671.611 242.71 672.661 243.775C673.396 244.51 673.996 244.945 675.061 244.945C676.156 244.945 677.101 244.18 677.701 243.04L679.021 243.76C678.046 245.53 676.636 246.445 675.046 246.445C673.651 246.445 672.631 245.89 671.581 244.825Z" fill="black"/>
<path d="M335.05 238.135C334.99 238.57 334.96 239.065 334.975 239.5C334.975 239.86 334.99 240.295 334.99 240.805H337.135C337.57 240.805 338.215 240.745 338.53 240.7V242.275C338.125 242.26 337.585 242.245 337.21 242.245H335.02C335.065 244.465 335.125 247.24 335.14 249.175C335.14 250.045 334.63 250.525 333.625 250.525C332.8 250.525 331.93 250.48 331.135 250.435L331.015 248.89C331.705 248.995 332.53 249.055 333.07 249.055C333.475 249.055 333.625 248.86 333.625 248.455C333.625 247.33 333.61 245.455 333.58 243.625C332.29 245.38 329.755 247.645 327.205 248.995L326.125 247.765C329.11 246.34 331.69 244.015 332.89 242.245H328.315C327.79 242.245 327.28 242.26 326.785 242.29V240.7C327.205 240.76 327.805 240.805 328.285 240.805H333.52C333.505 240.31 333.49 239.86 333.475 239.5C333.445 238.9 333.4 238.495 333.34 238.135H335.05ZM352.075 239.125C352.075 239.635 352.495 240.055 353.005 240.055C353.515 240.055 353.95 239.635 353.95 239.125C353.95 238.615 353.515 238.18 353.005 238.18C352.495 238.18 352.075 238.615 352.075 239.125ZM351.28 239.125C351.28 238.18 352.045 237.4 353.005 237.4C353.965 237.4 354.745 238.18 354.745 239.125C354.745 240.085 353.965 240.85 353.005 240.85C352.87 240.85 352.735 240.835 352.6 240.805C352.585 240.895 352.555 241 352.54 241.09C352.195 242.62 351.505 244.99 350.29 246.595C348.925 248.365 347.05 249.805 344.335 250.66L343.045 249.25C345.97 248.53 347.665 247.24 348.91 245.68C349.93 244.36 350.575 242.44 350.785 241.075H343.405C342.775 241.075 342.175 241.105 341.785 241.135V239.455C342.205 239.5 342.91 239.56 343.405 239.56H350.68C350.86 239.56 351.085 239.56 351.325 239.53C351.295 239.395 351.28 239.26 351.28 239.125ZM359.56 238.315C360.49 238.84 362.185 239.95 362.89 240.46L362.005 241.75C361.24 241.195 359.635 240.13 358.705 239.605L359.56 238.315ZM357.085 249.01C358.75 248.725 360.58 248.17 362.155 247.3C364.66 245.875 366.685 243.865 367.9 241.735L368.815 243.325C367.465 245.365 365.38 247.285 362.95 248.695C361.435 249.58 359.335 250.3 357.97 250.555L357.085 249.01ZM357.28 241.72C358.225 242.215 359.935 243.28 360.64 243.775L359.77 245.11C358.975 244.54 357.385 243.52 356.425 243.01L357.28 241.72ZM373.27 241.66C373.615 241.705 374.485 241.72 374.95 241.72H380.695C381.04 241.72 381.505 241.705 381.715 241.705C381.7 241.885 381.7 242.275 381.7 242.575V250.06C381.7 250.3 381.715 250.72 381.73 250.96H380.23C380.245 250.825 380.245 250.6 380.245 250.36H374.365C373.915 250.36 373.36 250.39 373.105 250.405V248.92C373.36 248.95 373.84 248.98 374.365 248.98H380.245V246.61H375.115C374.575 246.61 373.96 246.61 373.63 246.64V245.215C373.975 245.23 374.575 245.26 375.1 245.26H380.245V243.07H374.95C374.485 243.07 373.585 243.1 373.27 243.115V241.66ZM388.495 238.825C389.545 239.53 391.495 241.09 392.335 241.96L391.15 243.175C390.37 242.38 388.51 240.745 387.4 239.995L388.495 238.825ZM386.95 248.86C389.455 248.485 391.405 247.645 392.845 246.76C395.26 245.275 397.135 243.025 398.05 241.105L398.965 242.74C397.885 244.69 396.04 246.73 393.7 248.17C392.185 249.1 390.28 249.985 387.955 250.405L386.95 248.86ZM403.3 240.64L403.06 241.345H405.04C405.13 241.12 405.175 240.88 405.19 240.64H403.3ZM406.465 239.035V239.77H408.505V239.035H406.465ZM411.805 239.035H409.825V239.77H411.805V239.035ZM408.505 241.345V240.64H406.45C406.45 240.88 406.42 241.12 406.375 241.345H408.505ZM412.645 242.2H409.825V243.295H411.385C411.325 243.13 411.265 242.965 411.19 242.83C411.61 242.875 411.985 242.89 412.15 242.89C412.285 242.89 412.39 242.875 412.465 242.785C412.54 242.71 412.6 242.53 412.645 242.2ZM411.085 244.915V244.15H404.08V244.915H411.085ZM411.085 246.505V245.725H404.08V246.505H411.085ZM411.085 248.095V247.315H404.08V248.095H411.085ZM408.505 242.2H406.09C405.895 242.605 405.595 242.965 405.16 243.295H408.505V242.2ZM402.715 248.935V244.345C402.34 244.45 401.935 244.54 401.485 244.615C401.365 244.315 401.05 243.775 400.825 243.535C402.76 243.22 403.855 242.77 404.47 242.2H402.745L402.67 242.38L401.38 242.305C401.695 241.6 402.04 240.61 402.28 239.77H405.205V239.035H401.665V238.165H405.205V237.415H406.465V238.165H408.505V237.415H409.825V238.165H413.08V240.64H409.825V241.345H414.025C414.025 241.345 414.01 241.6 414.01 241.75C413.92 242.68 413.815 243.16 413.59 243.415C413.38 243.625 413.095 243.7 412.795 243.715C412.72 243.715 412.615 243.73 412.495 243.73V248.935H402.715ZM405.19 248.95L406.435 249.52C405.22 250.21 403.33 250.855 401.83 251.23C401.605 250.96 401.125 250.435 400.81 250.21C402.355 249.94 404.155 249.475 405.19 248.95ZM408.55 249.67L409.66 248.95C411.28 249.43 413.11 250.045 414.19 250.495L412.66 251.2C411.745 250.765 410.155 250.165 408.55 249.67ZM423.31 245.41H426.94V243.19H423.31V245.41ZM418.6 245.41H421.915V243.19H418.66V243.79C418.66 244.3 418.645 244.855 418.6 245.41ZM421.915 239.77H418.66V241.885H421.915V239.77ZM426.94 241.885V239.77H423.31V241.885H426.94ZM428.335 238.435V249.43C428.335 250.24 428.14 250.66 427.6 250.87C427.045 251.095 426.175 251.125 424.795 251.11C424.735 250.735 424.51 250.12 424.33 249.76C425.29 249.805 426.28 249.79 426.565 249.79C426.835 249.79 426.94 249.7 426.94 249.415V246.73H423.31V251.02H421.915V246.73H418.465C418.225 248.38 417.685 250.06 416.59 251.275C416.38 251.005 415.81 250.525 415.495 250.36C417.13 248.545 417.28 245.89 417.28 243.775V238.435H428.335Z" fill="black"/>
<path d="M831.66 184V182.86H834.12V174.655H832.155V173.785C832.645 173.695 833.07 173.585 833.43 173.455C833.8 173.325 834.135 173.175 834.435 173.005H835.485V182.86H837.69V184H831.66ZM842.425 171.46L843.475 171.76C843.195 172.61 842.86 173.45 842.47 174.28C842.08 175.1 841.655 175.875 841.195 176.605C840.745 177.335 840.27 177.985 839.77 178.555C839.74 178.465 839.685 178.35 839.605 178.21C839.525 178.07 839.44 177.93 839.35 177.79C839.27 177.64 839.19 177.525 839.11 177.445C839.56 176.955 839.99 176.39 840.4 175.75C840.81 175.1 841.185 174.41 841.525 173.68C841.875 172.95 842.175 172.21 842.425 171.46ZM841.06 175.315L842.11 174.25L842.14 174.265V185.17H841.06V175.315ZM847.375 171.445H848.47V185.11H847.375V171.445ZM843.13 174.43H852.97V175.51H843.13V174.43ZM844.9 181.375H850.885V182.41H844.9V181.375ZM849.01 174.985C849.3 175.875 849.665 176.76 850.105 177.64C850.545 178.51 851.035 179.315 851.575 180.055C852.115 180.785 852.675 181.385 853.255 181.855C853.125 181.955 852.975 182.09 852.805 182.26C852.645 182.43 852.51 182.59 852.4 182.74C851.82 182.2 851.26 181.535 850.72 180.745C850.19 179.945 849.705 179.075 849.265 178.135C848.825 177.185 848.455 176.22 848.155 175.24L849.01 174.985ZM846.895 174.925L847.735 175.165C847.425 176.175 847.04 177.16 846.58 178.12C846.13 179.07 845.63 179.95 845.08 180.76C844.53 181.56 843.955 182.235 843.355 182.785C843.295 182.695 843.215 182.595 843.115 182.485C843.025 182.375 842.93 182.27 842.83 182.17C842.73 182.07 842.635 181.99 842.545 181.93C843.135 181.46 843.705 180.85 844.255 180.1C844.805 179.35 845.31 178.53 845.77 177.64C846.23 176.74 846.605 175.835 846.895 174.925Z" fill="black"/>
<path d="M573.669 185V183.575H576.084V175.895H574.104V174.8C575.139 174.605 575.874 174.35 576.504 173.945H577.809V183.575H579.969V185H573.669ZM585.209 185.195C583.049 185.195 581.639 183.275 581.639 179.435C581.639 175.61 583.049 173.75 585.209 173.75C587.369 173.75 588.779 175.625 588.779 179.435C588.779 183.275 587.369 185.195 585.209 185.195ZM585.209 183.83C586.334 183.83 587.129 182.63 587.129 179.435C587.129 176.27 586.334 175.115 585.209 175.115C584.084 175.115 583.289 176.27 583.289 179.435C583.289 182.63 584.084 183.83 585.209 183.83ZM590.674 188L590.284 187.025C591.319 186.605 591.919 185.84 591.919 184.97C591.859 184.985 591.814 184.985 591.754 184.985C591.139 184.985 590.599 184.595 590.599 183.875C590.599 183.2 591.139 182.765 591.799 182.765C592.639 182.765 593.134 183.47 593.134 184.625C593.134 186.2 592.219 187.415 590.674 188ZM598.232 185.195C596.072 185.195 594.662 183.275 594.662 179.435C594.662 175.61 596.072 173.75 598.232 173.75C600.392 173.75 601.802 175.625 601.802 179.435C601.802 183.275 600.392 185.195 598.232 185.195ZM598.232 183.83C599.357 183.83 600.152 182.63 600.152 179.435C600.152 176.27 599.357 175.115 598.232 175.115C597.107 175.115 596.312 176.27 596.312 179.435C596.312 182.63 597.107 183.83 598.232 183.83ZM606.786 185.195C604.626 185.195 603.216 183.275 603.216 179.435C603.216 175.61 604.626 173.75 606.786 173.75C608.946 173.75 610.356 175.625 610.356 179.435C610.356 183.275 608.946 185.195 606.786 185.195ZM606.786 183.83C607.911 183.83 608.706 182.63 608.706 179.435C608.706 176.27 607.911 175.115 606.786 175.115C605.661 175.115 604.866 176.27 604.866 179.435C604.866 182.63 605.661 183.83 606.786 183.83ZM615.341 185.195C613.181 185.195 611.771 183.275 611.771 179.435C611.771 175.61 613.181 173.75 615.341 173.75C617.501 173.75 618.911 175.625 618.911 179.435C618.911 183.275 617.501 185.195 615.341 185.195ZM615.341 183.83C616.466 183.83 617.261 182.63 617.261 179.435C617.261 176.27 616.466 175.115 615.341 175.115C614.216 175.115 613.421 176.27 613.421 179.435C613.421 182.63 614.216 183.83 615.341 183.83ZM627.766 178.88H631.951V174.785H627.766V178.88ZM622.366 174.785V178.88H626.386V174.785H622.366ZM633.361 173.405V184.445C633.361 185.255 633.181 185.675 632.626 185.915C632.086 186.14 631.216 186.17 629.881 186.17C629.821 185.78 629.596 185.15 629.371 184.775C630.331 184.82 631.291 184.805 631.576 184.79C631.861 184.79 631.951 184.7 631.951 184.43V180.26H622.366V186.185H620.971V173.405H633.361ZM641.581 179.825C640.846 179.09 640.246 178.655 639.181 178.655C638.086 178.655 637.141 179.42 636.541 180.56L635.221 179.84C636.196 178.07 637.606 177.155 639.196 177.155C640.591 177.155 641.611 177.71 642.661 178.775C643.396 179.51 643.996 179.945 645.061 179.945C646.156 179.945 647.101 179.18 647.701 178.04L649.021 178.76C648.046 180.53 646.636 181.445 645.046 181.445C643.651 181.445 642.631 180.89 641.581 179.825ZM659.836 179.3C659.836 176.255 661.096 173.855 662.806 172.13L663.946 172.67C662.311 174.38 661.186 176.54 661.186 179.3C661.186 182.06 662.311 184.22 663.946 185.93L662.806 186.47C661.096 184.745 659.836 182.345 659.836 179.3ZM671.011 180.62L670.201 181.715C669.976 181.295 669.481 180.59 669.031 179.975V186.155H667.681V180.095C667.126 181.46 666.436 182.75 665.761 183.59C665.626 183.2 665.296 182.63 665.086 182.3C665.971 181.28 666.931 179.495 667.501 177.905H665.371V176.585H667.681V174.545C666.991 174.695 666.301 174.8 665.656 174.89C665.596 174.575 665.416 174.11 665.251 173.81C666.916 173.54 668.806 173.105 669.931 172.61L670.891 173.675C670.351 173.885 669.706 174.08 669.031 174.26V176.585H670.786V177.905H669.031V178.595C669.466 178.97 670.741 180.275 671.011 180.62ZM672.646 176.615V179.15H676.906V176.615H672.646ZM676.801 184.73H677.581C677.851 184.73 677.911 184.505 677.941 182.915C678.211 183.125 678.781 183.365 679.141 183.455C679.036 185.465 678.691 185.99 677.731 185.99H676.576C675.421 185.99 675.151 185.57 675.151 184.28V180.38H674.071C673.846 182.9 673.156 185.03 670.531 186.2C670.366 185.87 669.991 185.36 669.691 185.12C671.986 184.16 672.496 182.42 672.706 180.38H671.326V175.4H672.646C672.421 174.71 671.911 173.69 671.401 172.925L672.556 172.43C673.111 173.21 673.696 174.245 673.921 174.95L672.931 175.4H676.696L675.586 174.965C676.051 174.275 676.606 173.195 676.891 172.4L678.316 172.88C677.821 173.78 677.251 174.755 676.786 175.4H678.301V180.38H676.501V184.265C676.501 184.685 676.546 184.73 676.801 184.73ZM685.711 173.105H689.551C689.851 177.53 690.901 181.085 693.931 182.63C693.601 182.855 693.106 183.35 692.836 183.695C690.856 182.525 689.701 180.59 689.026 178.16C688.261 180.59 687.046 182.435 685.276 183.695C685.051 183.425 684.511 182.9 684.181 182.645C686.311 181.325 687.526 179.045 688.081 176.075L688.591 176.15C688.501 175.595 688.441 175.01 688.381 174.425H685.711V173.105ZM684.091 175.055L682.996 175.97C682.516 175.265 681.436 174.26 680.491 173.6L681.526 172.76C682.456 173.405 683.581 174.335 684.091 175.055ZM683.686 178.235V182.975C684.346 184.01 685.576 184.49 687.226 184.55C688.891 184.61 692.221 184.565 694.096 184.445C693.931 184.775 693.706 185.435 693.631 185.87C691.936 185.945 688.921 185.975 687.211 185.9C685.306 185.825 684.016 185.33 683.071 184.175C682.366 184.79 681.646 185.39 680.866 186.035L680.146 184.595C680.821 184.175 681.616 183.62 682.321 183.05V179.525H680.401V178.235H683.686ZM699.406 179.3C699.406 182.345 698.146 184.745 696.436 186.47L695.296 185.93C696.931 184.22 698.056 182.06 698.056 179.3C698.056 176.54 696.931 174.38 695.296 172.67L696.436 172.13C698.146 173.855 699.406 176.255 699.406 179.3Z" fill="black"/>
<path d="M354.025 161.82H355.6C355.585 162.03 355.585 162.285 355.555 162.555C355.69 164.55 356.47 171.285 362.08 173.865C361.645 174.195 361.24 174.66 361.015 175.035C357.385 173.28 355.72 169.845 354.94 166.95C354.22 169.815 352.645 173.055 349.165 175.05C348.91 174.69 348.46 174.255 348.01 173.955C354.01 170.76 353.92 163.8 354.025 161.82ZM375.925 161.55V168.06C375.925 168.765 375.79 169.11 375.295 169.32C374.815 169.515 374.08 169.545 373.015 169.545C372.955 169.185 372.775 168.63 372.595 168.285C373.36 168.315 374.095 168.315 374.305 168.3C374.545 168.3 374.605 168.24 374.605 168.045V161.55H375.925ZM373.135 162.27V167.28H371.86V162.27H373.135ZM366.61 165.06H368.2V163.23H366.61V165.06ZM370.765 173.385H376.705V174.675H363.295V173.385H369.325V171.795H364.825V170.52H369.325V169.35H368.2V166.305H366.52C366.31 167.565 365.725 168.855 364.225 169.725C364.045 169.47 363.565 168.945 363.31 168.75C364.525 168.06 365.005 167.19 365.2 166.305H363.505V165.06H365.32V163.23H364.015V162H370.735V163.23H369.505V165.06H371.065V166.305H369.505V169.08H370.765V170.52H375.175V171.795H370.765V173.385ZM386.53 166.8L385.18 167.52C384.79 166.5 383.83 164.94 382.9 163.845L384.175 163.23C385.15 164.31 386.095 165.765 386.53 166.8ZM384.13 169.59L384.46 170.94C382.42 171.87 380.215 172.815 378.55 173.52L378.04 172.065C378.61 171.855 379.315 171.585 380.08 171.285L379.795 162.27L381.25 162.21L381.505 170.7C382.375 170.34 383.26 169.965 384.13 169.59ZM392.035 174.03L390.865 175.155C390.22 174.15 388.96 172.665 387.76 171.36C386.635 173.025 385.06 174.285 382.885 175.215C382.69 174.915 382.12 174.27 381.76 173.985C386.74 172.14 388.3 168.525 388.915 162.21L390.445 162.36C390.1 165.51 389.545 168.03 388.54 170.04C389.815 171.36 391.315 172.965 392.035 174.03ZM399.295 164.955H396.685C396.385 165.645 396.04 166.29 395.68 166.875C396.55 167.4 397.51 168.06 398.185 168.63C398.665 167.55 399.04 166.32 399.295 164.955ZM403.93 161.43V168.345C404.95 169.26 406.09 170.04 407.23 170.55C406.915 170.82 406.45 171.36 406.24 171.75C405.445 171.345 404.665 170.805 403.93 170.19V175.14H402.49V168.825C401.71 168 401.02 167.07 400.435 166.125C399.325 170.61 397.15 173.52 394.405 175.08C394.165 174.765 393.625 174.24 393.28 174.045C395.005 173.145 396.445 171.78 397.54 169.89C396.895 169.275 395.89 168.54 394.96 167.94C394.675 168.315 394.375 168.66 394.075 168.975C393.82 168.735 393.235 168.27 392.905 168.06C394.555 166.56 395.785 164.085 396.46 161.4L397.84 161.685C397.66 162.36 397.465 163.005 397.225 163.635H399.7L399.955 163.59L400.885 163.905C400.81 164.34 400.735 164.775 400.66 165.18L401.2 164.97C401.545 165.6 401.98 166.23 402.49 166.845V161.43H403.93ZM305.515 190.3C305.515 187.255 306.775 184.855 308.485 183.13L309.625 183.67C307.99 185.38 306.865 187.54 306.865 190.3C306.865 193.06 307.99 195.22 309.625 196.93L308.485 197.47C306.775 195.745 305.515 193.345 305.515 190.3ZM316.045 190.81L315.31 191.83C315.13 191.395 314.725 190.675 314.35 190.015V197.17H313.06V190.825C312.61 192.25 312.055 193.57 311.455 194.425C311.32 194.05 310.99 193.525 310.795 193.225C311.68 191.995 312.535 189.775 312.94 187.87H311.11V186.58H313.06V183.415H314.35V186.58H315.955V187.87H314.35V188.41C314.74 188.935 315.805 190.435 316.045 190.81ZM319.45 188.995H321.19C321.07 188.68 320.95 188.35 320.86 188.02H319.765C319.675 188.335 319.57 188.665 319.45 188.995ZM324.7 190.165H323.065C323.605 191.02 324.235 191.755 324.94 192.235C324.655 192.475 324.235 192.925 324.04 193.27C323.59 192.925 323.185 192.475 322.795 191.965V192.925H320.89V193.99H323.98V195.145H320.89V197.2H319.63V195.145H316.57V193.99H319.63V192.925H317.755V191.845H319.63V190.69H320.89V191.845H322.705C322.33 191.335 322 190.765 321.7 190.165H318.91C318.28 191.32 317.365 192.46 316.03 193.435C315.835 193.165 315.385 192.685 315.085 192.49C316.09 191.77 316.825 190.99 317.38 190.165H315.865V188.995H318.055C318.205 188.665 318.325 188.35 318.43 188.02H316.885V186.91H318.73C318.805 186.595 318.85 186.295 318.88 185.995H316.45V184.84H318.97C318.985 184.615 318.985 184.405 318.985 184.21V183.535H320.245V184.225C320.245 184.42 320.245 184.63 320.23 184.84H324.325V185.995H320.155C320.125 186.295 320.08 186.595 320.02 186.91H323.95V188.02H322.045C322.165 188.35 322.3 188.68 322.45 188.995H324.7V190.165ZM331.45 190.015L331.63 191.245C331.045 191.44 330.46 191.62 329.875 191.8V197.17H328.585V192.205L326.23 192.925L325.87 191.59C326.62 191.395 327.565 191.14 328.585 190.855V187.705H327.385C327.205 188.5 326.995 189.22 326.77 189.79C326.545 189.61 326.035 189.31 325.75 189.16C326.275 187.945 326.545 186.055 326.695 184.27L327.88 184.465C327.805 185.11 327.73 185.755 327.64 186.385H328.585V183.415H329.875V186.385H331.27V187.705H329.875V190.465L331.45 190.015ZM333.85 185.83H339.58C339.58 185.83 339.58 186.31 339.565 186.49C339.235 193.225 338.95 195.595 338.365 196.33C338.05 196.78 337.75 196.915 337.27 196.99C336.865 197.065 336.235 197.05 335.575 197.02C335.56 196.615 335.41 196.045 335.185 195.655C335.815 195.715 336.37 195.715 336.655 195.715C336.895 195.715 337.045 195.655 337.195 195.445C337.63 194.95 337.945 192.82 338.215 187.12H337.795C337.03 190.99 335.425 194.935 332.995 196.885C332.725 196.63 332.23 196.27 331.84 196.06C334.255 194.335 335.83 190.75 336.58 187.12H335.575C334.915 189.64 333.61 192.385 332.02 193.795C331.765 193.54 331.315 193.195 330.94 193C332.485 191.8 333.715 189.43 334.405 187.12H333.34C332.875 188.2 332.335 189.145 331.72 189.88C331.495 189.685 330.94 189.265 330.64 189.085C331.855 187.765 332.71 185.635 333.205 183.415L334.465 183.655C334.3 184.405 334.075 185.14 333.85 185.83ZM346 185.35C345.91 184.945 345.82 184.6 345.7 184.27L347.38 184C347.425 184.285 347.47 184.75 347.545 185.08C347.575 185.26 347.68 185.83 347.83 186.61C349.195 186.385 350.47 186.175 351.055 186.055C351.52 185.965 351.985 185.86 352.285 185.77L352.57 187.345C352.3 187.375 351.79 187.45 351.37 187.51C350.71 187.615 349.45 187.81 348.1 188.02C348.265 188.875 348.445 189.835 348.625 190.765C350.08 190.525 351.415 190.3 352.135 190.165C352.705 190.045 353.2 189.94 353.545 189.835L353.86 191.41C353.515 191.44 352.975 191.545 352.405 191.635C351.625 191.755 350.305 191.965 348.91 192.19C349.18 193.54 349.39 194.665 349.48 195.07C349.585 195.505 349.72 196.03 349.87 196.48L348.145 196.795C348.07 196.255 348.025 195.775 347.935 195.325C347.875 194.95 347.65 193.825 347.395 192.43C345.76 192.7 344.245 192.955 343.54 193.09C342.925 193.195 342.475 193.285 342.145 193.375L341.8 191.77C342.175 191.755 342.805 191.68 343.225 191.62C343.96 191.515 345.49 191.275 347.11 191.02C346.93 190.09 346.75 189.13 346.585 188.26C345.205 188.485 343.96 188.695 343.435 188.785C342.985 188.86 342.625 188.935 342.145 189.055L341.83 187.405C342.25 187.375 342.67 187.345 343.135 187.3C343.69 187.24 344.935 187.06 346.3 186.85C346.15 186.1 346.045 185.56 346 185.35ZM361.18 186.67C361.225 186.97 361.315 187.33 361.405 187.705C361.495 188.05 361.66 188.635 361.855 189.34C363.88 188.95 366.235 188.5 366.775 188.38C367 188.335 367.255 188.245 367.42 188.17L368.38 188.845C367.75 190.135 366.22 192.295 365.17 193.36L363.865 192.7C364.72 191.935 365.815 190.6 366.28 189.775C365.92 189.85 364.09 190.21 362.2 190.6C362.785 192.715 363.475 195.22 363.7 195.925C363.79 196.195 363.955 196.75 364.06 197.035L362.44 197.44C362.395 197.08 362.32 196.645 362.2 196.255C361.99 195.52 361.315 193 360.76 190.9C359.41 191.17 358.225 191.425 357.805 191.515L357.445 190.075C357.88 190.045 358.27 189.985 358.75 189.91C358.96 189.88 359.59 189.76 360.415 189.61C360.22 188.905 360.055 188.335 359.965 188.02C359.86 187.645 359.725 187.315 359.575 187.06L361.18 186.67ZM373.72 184.69C374.11 184.735 374.665 184.765 375.16 184.765H380.995C381.475 184.765 382.09 184.735 382.465 184.69V186.235C382.09 186.205 381.49 186.19 380.98 186.19H375.16C374.68 186.19 374.14 186.205 373.72 186.235V184.69ZM383.65 188.815C383.56 188.98 383.44 189.205 383.41 189.34C382.99 190.795 382.315 192.31 381.205 193.54C379.66 195.25 377.755 196.195 375.835 196.735L374.665 195.385C376.855 194.935 378.685 193.96 379.915 192.685C380.77 191.8 381.31 190.675 381.58 189.685H373.945C373.585 189.685 372.925 189.7 372.355 189.745V188.185C372.94 188.245 373.51 188.29 373.945 188.29H381.625C382.03 188.29 382.39 188.23 382.585 188.155L383.65 188.815ZM393.595 184.33C393.295 184.78 392.98 185.365 392.815 185.665C392.755 185.785 392.68 185.92 392.605 186.04H396.205C396.625 186.04 397.045 185.995 397.33 185.89L398.56 186.64C398.41 186.88 398.245 187.255 398.14 187.555C397.735 188.995 396.85 191.005 395.5 192.655C394.12 194.365 392.305 195.73 389.5 196.81L388.105 195.565C391 194.695 392.785 193.375 394.12 191.815C395.23 190.54 396.13 188.65 396.4 187.39H391.72C390.76 188.68 389.485 190.015 387.91 191.065L386.59 190.075C389.2 188.515 390.595 186.43 391.3 185.11C391.48 184.81 391.735 184.195 391.855 183.76L393.595 184.33ZM407.95 184.18C407.65 184.63 407.335 185.215 407.17 185.515C407.11 185.62 407.065 185.71 407.005 185.815H410.62C411.04 185.815 411.46 185.755 411.745 185.65L412.96 186.4C412.825 186.655 412.66 187.03 412.555 187.33C412.135 188.635 411.355 190.33 410.26 191.86C410.89 192.31 411.475 192.76 411.94 193.135L410.83 194.455C410.41 194.065 409.84 193.6 409.225 193.105C407.89 194.56 406.105 195.88 403.66 196.81L402.295 195.61C404.86 194.83 406.675 193.525 407.965 192.16C406.93 191.41 405.85 190.675 404.98 190.12L406.015 189.055C406.915 189.58 407.965 190.255 408.97 190.945C409.855 189.73 410.56 188.26 410.845 187.165H406.105C405.115 188.53 403.75 189.985 402.145 191.095L400.87 190.105C403.465 188.5 404.95 186.325 405.67 184.99C405.85 184.675 406.12 184.075 406.24 183.64L407.95 184.18ZM416.155 189.31C416.65 189.34 417.58 189.4 418.39 189.4H426.55C427.27 189.4 427.855 189.34 428.23 189.31V191.17C427.9 191.155 427.21 191.095 426.55 191.095H418.39C417.565 191.095 416.665 191.125 416.155 191.17V189.31ZM443.98 191.26H440.89V192.385H443.56V193.585H440.89V195.655C440.89 196.39 440.71 196.765 440.155 196.96C439.6 197.17 438.775 197.185 437.59 197.185C437.515 196.795 437.275 196.225 437.08 195.88C437.98 195.91 438.865 195.91 439.12 195.895C439.39 195.88 439.45 195.835 439.45 195.625V193.585H434.305C435.145 194.17 436.075 194.98 436.51 195.61L435.43 196.495C434.98 195.805 433.945 194.86 433.045 194.2L433.855 193.585H430.96V192.385H439.45V191.26H430.465V190.075H436.465V188.935H431.95V187.78H436.465V186.88H436.825C436.615 186.73 436.405 186.595 436.24 186.505C436.51 186.28 436.765 186.04 436.99 185.755H434.545C434.74 186.175 434.935 186.61 435.025 186.925L433.825 187.39C433.705 186.97 433.435 186.31 433.165 185.755H432.745C432.31 186.43 431.815 187.06 431.335 187.54C431.08 187.315 430.51 186.925 430.18 186.745C431.125 185.92 431.995 184.615 432.49 183.34L433.825 183.685C433.705 184 433.555 184.3 433.405 184.6H437.035V185.71C437.605 185.02 438.1 184.195 438.385 183.34L439.735 183.655C439.615 183.985 439.48 184.285 439.33 184.6H443.86V185.755H440.995C441.28 186.175 441.55 186.595 441.7 186.94L440.5 187.435C440.32 187 439.9 186.31 439.495 185.755H438.67C438.4 186.175 438.115 186.535 437.815 186.88H437.905V187.78H442.585V188.935H437.905V190.075H443.98V191.26ZM449.485 190.3C449.485 193.345 448.225 195.745 446.515 197.47L445.375 196.93C447.01 195.22 448.135 193.06 448.135 190.3C448.135 187.54 447.01 185.38 445.375 183.67L446.515 183.13C448.225 184.855 449.485 187.255 449.485 190.3Z" fill="black"/>
<path d="M831.66 112V110.86H834.12V102.655H832.155V101.785C832.645 101.695 833.07 101.585 833.43 101.455C833.8 101.325 834.135 101.175 834.435 101.005H835.485V110.86H837.69V112H831.66ZM842.425 99.46L843.475 99.76C843.195 100.61 842.86 101.45 842.47 102.28C842.08 103.1 841.655 103.875 841.195 104.605C840.745 105.335 840.27 105.985 839.77 106.555C839.74 106.465 839.685 106.35 839.605 106.21C839.525 106.07 839.44 105.93 839.35 105.79C839.27 105.64 839.19 105.525 839.11 105.445C839.56 104.955 839.99 104.39 840.4 103.75C840.81 103.1 841.185 102.41 841.525 101.68C841.875 100.95 842.175 100.21 842.425 99.46ZM841.06 103.315L842.11 102.25L842.14 102.265V113.17H841.06V103.315ZM847.375 99.445H848.47V113.11H847.375V99.445ZM843.13 102.43H852.97V103.51H843.13V102.43ZM844.9 109.375H850.885V110.41H844.9V109.375ZM849.01 102.985C849.3 103.875 849.665 104.76 850.105 105.64C850.545 106.51 851.035 107.315 851.575 108.055C852.115 108.785 852.675 109.385 853.255 109.855C853.125 109.955 852.975 110.09 852.805 110.26C852.645 110.43 852.51 110.59 852.4 110.74C851.82 110.2 851.26 109.535 850.72 108.745C850.19 107.945 849.705 107.075 849.265 106.135C848.825 105.185 848.455 104.22 848.155 103.24L849.01 102.985ZM846.895 102.925L847.735 103.165C847.425 104.175 847.04 105.16 846.58 106.12C846.13 107.07 845.63 107.95 845.08 108.76C844.53 109.56 843.955 110.235 843.355 110.785C843.295 110.695 843.215 110.595 843.115 110.485C843.025 110.375 842.93 110.27 842.83 110.17C842.73 110.07 842.635 109.99 842.545 109.93C843.135 109.46 843.705 108.85 844.255 108.1C844.805 107.35 845.31 106.53 845.77 105.64C846.23 104.74 846.605 103.835 846.895 102.925Z" fill="black"/>
<path d="M576.399 113.195C574.659 113.195 573.564 112.49 572.784 111.725L573.609 110.6C574.239 111.23 575.034 111.785 576.189 111.785C577.434 111.785 578.379 110.9 578.379 109.43C578.379 107.96 577.539 107.12 576.279 107.12C575.574 107.12 575.154 107.33 574.509 107.75L573.669 107.195L573.999 101.945H579.594V103.415H575.499L575.244 106.25C575.724 106.01 576.159 105.86 576.759 105.86C578.604 105.86 580.119 106.955 580.119 109.37C580.119 111.815 578.334 113.195 576.399 113.195ZM585.209 113.195C583.049 113.195 581.639 111.275 581.639 107.435C581.639 103.61 583.049 101.75 585.209 101.75C587.369 101.75 588.779 103.625 588.779 107.435C588.779 111.275 587.369 113.195 585.209 113.195ZM585.209 111.83C586.334 111.83 587.129 110.63 587.129 107.435C587.129 104.27 586.334 103.115 585.209 103.115C584.084 103.115 583.289 104.27 583.289 107.435C583.289 110.63 584.084 111.83 585.209 111.83ZM590.674 116L590.284 115.025C591.319 114.605 591.919 113.84 591.919 112.97C591.859 112.985 591.814 112.985 591.754 112.985C591.139 112.985 590.599 112.595 590.599 111.875C590.599 111.2 591.139 110.765 591.799 110.765C592.639 110.765 593.134 111.47 593.134 112.625C593.134 114.2 592.219 115.415 590.674 116ZM598.232 113.195C596.072 113.195 594.662 111.275 594.662 107.435C594.662 103.61 596.072 101.75 598.232 101.75C600.392 101.75 601.802 103.625 601.802 107.435C601.802 111.275 600.392 113.195 598.232 113.195ZM598.232 111.83C599.357 111.83 600.152 110.63 600.152 107.435C600.152 104.27 599.357 103.115 598.232 103.115C597.107 103.115 596.312 104.27 596.312 107.435C596.312 110.63 597.107 111.83 598.232 111.83ZM606.786 113.195C604.626 113.195 603.216 111.275 603.216 107.435C603.216 103.61 604.626 101.75 606.786 101.75C608.946 101.75 610.356 103.625 610.356 107.435C610.356 111.275 608.946 113.195 606.786 113.195ZM606.786 111.83C607.911 111.83 608.706 110.63 608.706 107.435C608.706 104.27 607.911 103.115 606.786 103.115C605.661 103.115 604.866 104.27 604.866 107.435C604.866 110.63 605.661 111.83 606.786 111.83ZM615.341 113.195C613.181 113.195 611.771 111.275 611.771 107.435C611.771 103.61 613.181 101.75 615.341 101.75C617.501 101.75 618.911 103.625 618.911 107.435C618.911 111.275 617.501 113.195 615.341 113.195ZM615.341 111.83C616.466 111.83 617.261 110.63 617.261 107.435C617.261 104.27 616.466 103.115 615.341 103.115C614.216 103.115 613.421 104.27 613.421 107.435C613.421 110.63 614.216 111.83 615.341 111.83ZM627.766 106.88H631.951V102.785H627.766V106.88ZM622.366 102.785V106.88H626.386V102.785H622.366ZM633.361 101.405V112.445C633.361 113.255 633.181 113.675 632.626 113.915C632.086 114.14 631.216 114.17 629.881 114.17C629.821 113.78 629.596 113.15 629.371 112.775C630.331 112.82 631.291 112.805 631.576 112.79C631.861 112.79 631.951 112.7 631.951 112.43V108.26H622.366V114.185H620.971V101.405H633.361ZM641.581 107.825C640.846 107.09 640.246 106.655 639.181 106.655C638.086 106.655 637.141 107.42 636.541 108.56L635.221 107.84C636.196 106.07 637.606 105.155 639.196 105.155C640.591 105.155 641.611 105.71 642.661 106.775C643.396 107.51 643.996 107.945 645.061 107.945C646.156 107.945 647.101 107.18 647.701 106.04L649.021 106.76C648.046 108.53 646.636 109.445 645.046 109.445C643.651 109.445 642.631 108.89 641.581 107.825ZM659.836 107.3C659.836 104.255 661.096 101.855 662.806 100.13L663.946 100.67C662.311 102.38 661.186 104.54 661.186 107.3C661.186 110.06 662.311 112.22 663.946 113.93L662.806 114.47C661.096 112.745 659.836 110.345 659.836 107.3ZM671.011 108.62L670.201 109.715C669.976 109.295 669.481 108.59 669.031 107.975V114.155H667.681V108.095C667.126 109.46 666.436 110.75 665.761 111.59C665.626 111.2 665.296 110.63 665.086 110.3C665.971 109.28 666.931 107.495 667.501 105.905H665.371V104.585H667.681V102.545C666.991 102.695 666.301 102.8 665.656 102.89C665.596 102.575 665.416 102.11 665.251 101.81C666.916 101.54 668.806 101.105 669.931 100.61L670.891 101.675C670.351 101.885 669.706 102.08 669.031 102.26V104.585H670.786V105.905H669.031V106.595C669.466 106.97 670.741 108.275 671.011 108.62ZM672.646 104.615V107.15H676.906V104.615H672.646ZM676.801 112.73H677.581C677.851 112.73 677.911 112.505 677.941 110.915C678.211 111.125 678.781 111.365 679.141 111.455C679.036 113.465 678.691 113.99 677.731 113.99H676.576C675.421 113.99 675.151 113.57 675.151 112.28V108.38H674.071C673.846 110.9 673.156 113.03 670.531 114.2C670.366 113.87 669.991 113.36 669.691 113.12C671.986 112.16 672.496 110.42 672.706 108.38H671.326V103.4H672.646C672.421 102.71 671.911 101.69 671.401 100.925L672.556 100.43C673.111 101.21 673.696 102.245 673.921 102.95L672.931 103.4H676.696L675.586 102.965C676.051 102.275 676.606 101.195 676.891 100.4L678.316 100.88C677.821 101.78 677.251 102.755 676.786 103.4H678.301V108.38H676.501V112.265C676.501 112.685 676.546 112.73 676.801 112.73ZM685.711 101.105H689.551C689.851 105.53 690.901 109.085 693.931 110.63C693.601 110.855 693.106 111.35 692.836 111.695C690.856 110.525 689.701 108.59 689.026 106.16C688.261 108.59 687.046 110.435 685.276 111.695C685.051 111.425 684.511 110.9 684.181 110.645C686.311 109.325 687.526 107.045 688.081 104.075L688.591 104.15C688.501 103.595 688.441 103.01 688.381 102.425H685.711V101.105ZM684.091 103.055L682.996 103.97C682.516 103.265 681.436 102.26 680.491 101.6L681.526 100.76C682.456 101.405 683.581 102.335 684.091 103.055ZM683.686 106.235V110.975C684.346 112.01 685.576 112.49 687.226 112.55C688.891 112.61 692.221 112.565 694.096 112.445C693.931 112.775 693.706 113.435 693.631 113.87C691.936 113.945 688.921 113.975 687.211 113.9C685.306 113.825 684.016 113.33 683.071 112.175C682.366 112.79 681.646 113.39 680.866 114.035L680.146 112.595C680.821 112.175 681.616 111.62 682.321 111.05V107.525H680.401V106.235H683.686ZM699.406 107.3C699.406 110.345 698.146 112.745 696.436 114.47L695.296 113.93C696.931 112.22 698.056 110.06 698.056 107.3C698.056 104.54 696.931 102.38 695.296 100.67L696.436 100.13C698.146 101.855 699.406 104.255 699.406 107.3Z" fill="black"/>
<path d="M324.825 100.82H326.4C326.385 101.03 326.385 101.285 326.355 101.555C326.49 103.55 327.27 110.285 332.88 112.865C332.445 113.195 332.04 113.66 331.815 114.035C328.185 112.28 326.52 108.845 325.74 105.95C325.02 108.815 323.445 112.055 319.965 114.05C319.71 113.69 319.26 113.255 318.81 112.955C324.81 109.76 324.72 102.8 324.825 100.82ZM346.725 100.55V107.06C346.725 107.765 346.59 108.11 346.095 108.32C345.615 108.515 344.88 108.545 343.815 108.545C343.755 108.185 343.575 107.63 343.395 107.285C344.16 107.315 344.895 107.315 345.105 107.3C345.345 107.3 345.405 107.24 345.405 107.045V100.55H346.725ZM343.935 101.27V106.28H342.66V101.27H343.935ZM337.41 104.06H339V102.23H337.41V104.06ZM341.565 112.385H347.505V113.675H334.095V112.385H340.125V110.795H335.625V109.52H340.125V108.35H339V105.305H337.32C337.11 106.565 336.525 107.855 335.025 108.725C334.845 108.47 334.365 107.945 334.11 107.75C335.325 107.06 335.805 106.19 336 105.305H334.305V104.06H336.12V102.23H334.815V101H341.535V102.23H340.305V104.06H341.865V105.305H340.305V108.08H341.565V109.52H345.975V110.795H341.565V112.385ZM354 102.35C353.91 101.945 353.82 101.6 353.7 101.27L355.38 101C355.425 101.285 355.47 101.75 355.545 102.08C355.575 102.26 355.68 102.83 355.83 103.61C357.195 103.385 358.47 103.175 359.055 103.055C359.52 102.965 359.985 102.86 360.285 102.77L360.57 104.345C360.3 104.375 359.79 104.45 359.37 104.51C358.71 104.615 357.45 104.81 356.1 105.02C356.265 105.875 356.445 106.835 356.625 107.765C358.08 107.525 359.415 107.3 360.135 107.165C360.705 107.045 361.2 106.94 361.545 106.835L361.86 108.41C361.515 108.44 360.975 108.545 360.405 108.635C359.625 108.755 358.305 108.965 356.91 109.19C357.18 110.54 357.39 111.665 357.48 112.07C357.585 112.505 357.72 113.03 357.87 113.48L356.145 113.795C356.07 113.255 356.025 112.775 355.935 112.325C355.875 111.95 355.65 110.825 355.395 109.43C353.76 109.7 352.245 109.955 351.54 110.09C350.925 110.195 350.475 110.285 350.145 110.375L349.8 108.77C350.175 108.755 350.805 108.68 351.225 108.62C351.96 108.515 353.49 108.275 355.11 108.02C354.93 107.09 354.75 106.13 354.585 105.26C353.205 105.485 351.96 105.695 351.435 105.785C350.985 105.86 350.625 105.935 350.145 106.055L349.83 104.405C350.25 104.375 350.67 104.345 351.135 104.3C351.69 104.24 352.935 104.06 354.3 103.85C354.15 103.1 354.045 102.56 354 102.35ZM369.18 103.67C369.225 103.97 369.315 104.33 369.405 104.705C369.495 105.05 369.66 105.635 369.855 106.34C371.88 105.95 374.235 105.5 374.775 105.38C375 105.335 375.255 105.245 375.42 105.17L376.38 105.845C375.75 107.135 374.22 109.295 373.17 110.36L371.865 109.7C372.72 108.935 373.815 107.6 374.28 106.775C373.92 106.85 372.09 107.21 370.2 107.6C370.785 109.715 371.475 112.22 371.7 112.925C371.79 113.195 371.955 113.75 372.06 114.035L370.44 114.44C370.395 114.08 370.32 113.645 370.2 113.255C369.99 112.52 369.315 110 368.76 107.9C367.41 108.17 366.225 108.425 365.805 108.515L365.445 107.075C365.88 107.045 366.27 106.985 366.75 106.91C366.96 106.88 367.59 106.76 368.415 106.61C368.22 105.905 368.055 105.335 367.965 105.02C367.86 104.645 367.725 104.315 367.575 104.06L369.18 103.67ZM381.72 101.69C382.11 101.735 382.665 101.765 383.16 101.765H388.995C389.475 101.765 390.09 101.735 390.465 101.69V103.235C390.09 103.205 389.49 103.19 388.98 103.19H383.16C382.68 103.19 382.14 103.205 381.72 103.235V101.69ZM391.65 105.815C391.56 105.98 391.44 106.205 391.41 106.34C390.99 107.795 390.315 109.31 389.205 110.54C387.66 112.25 385.755 113.195 383.835 113.735L382.665 112.385C384.855 111.935 386.685 110.96 387.915 109.685C388.77 108.8 389.31 107.675 389.58 106.685H381.945C381.585 106.685 380.925 106.7 380.355 106.745V105.185C380.94 105.245 381.51 105.29 381.945 105.29H389.625C390.03 105.29 390.39 105.23 390.585 105.155L391.65 105.815ZM401.595 101.33C401.295 101.78 400.98 102.365 400.815 102.665C400.755 102.785 400.68 102.92 400.605 103.04H404.205C404.625 103.04 405.045 102.995 405.33 102.89L406.56 103.64C406.41 103.88 406.245 104.255 406.14 104.555C405.735 105.995 404.85 108.005 403.5 109.655C402.12 111.365 400.305 112.73 397.5 113.81L396.105 112.565C399 111.695 400.785 110.375 402.12 108.815C403.23 107.54 404.13 105.65 404.4 104.39H399.72C398.76 105.68 397.485 107.015 395.91 108.065L394.59 107.075C397.2 105.515 398.595 103.43 399.3 102.11C399.48 101.81 399.735 101.195 399.855 100.76L401.595 101.33ZM415.95 101.18C415.65 101.63 415.335 102.215 415.17 102.515C415.11 102.62 415.065 102.71 415.005 102.815H418.62C419.04 102.815 419.46 102.755 419.745 102.65L420.96 103.4C420.825 103.655 420.66 104.03 420.555 104.33C420.135 105.635 419.355 107.33 418.26 108.86C418.89 109.31 419.475 109.76 419.94 110.135L418.83 111.455C418.41 111.065 417.84 110.6 417.225 110.105C415.89 111.56 414.105 112.88 411.66 113.81L410.295 112.61C412.86 111.83 414.675 110.525 415.965 109.16C414.93 108.41 413.85 107.675 412.98 107.12L414.015 106.055C414.915 106.58 415.965 107.255 416.97 107.945C417.855 106.73 418.56 105.26 418.845 104.165H414.105C413.115 105.53 411.75 106.985 410.145 108.095L408.87 107.105C411.465 105.5 412.95 103.325 413.67 101.99C413.85 101.675 414.12 101.075 414.24 100.64L415.95 101.18ZM424.155 106.31C424.65 106.34 425.58 106.4 426.39 106.4H434.55C435.27 106.4 435.855 106.34 436.23 106.31V108.17C435.9 108.155 435.21 108.095 434.55 108.095H426.39C425.565 108.095 424.665 108.125 424.155 108.17V106.31Z" fill="black"/>
<path d="M826.76 37.28H831V35.5H826.76V37.28ZM831 34.02V32.26H826.76V34.02H831ZM837.36 34.02V32.26H832.9V34.02H837.36ZM837.36 37.28V35.5H832.9V37.28H837.36ZM840.92 40.42V42.16H832.9V45.58H831V42.16H823.12V40.42H831V38.84H824.94V30.7H826.7C826.32 29.92 825.58 28.88 824.92 28.1L826.54 27.38C827.28 28.2 828.14 29.38 828.54 30.16L827.42 30.7H831.42C831.12 29.86 830.48 28.68 829.88 27.8L831.54 27.16C832.22 28.1 832.94 29.36 833.24 30.18L831.96 30.7H835.28C836 29.74 836.84 28.3 837.3 27.22L839.34 27.86C838.72 28.84 838.02 29.86 837.38 30.7H839.26V38.84H832.9V40.42H840.92ZM848.74 30.98H853.68V27.46H855.56V30.98H860.82V32.74H848.74V30.98ZM853.46 41.74L851.62 42.14C851.5 40.16 850.94 36.78 850.26 34.18L851.94 33.88C852.66 36.48 853.3 39.78 853.46 41.74ZM847.4 27.26L849.14 27.82C848.6 29.18 847.94 30.52 847.18 31.82V45.52H845.42V34.48C844.78 35.32 844.12 36.1 843.46 36.76C843.28 36.34 842.74 35.34 842.44 34.86C844.4 33.04 846.28 30.18 847.4 27.26ZM856.82 42.92H861.28V44.68H848.3V42.92H855.02C855.86 40.44 856.8 36.56 857.26 33.74L859.26 34.08C858.62 37 857.68 40.52 856.82 42.92Z" fill="black"/>
<path d="M625.76 37.28H630V35.5H625.76V37.28ZM630 34.02V32.26H625.76V34.02H630ZM636.36 34.02V32.26H631.9V34.02H636.36ZM636.36 37.28V35.5H631.9V37.28H636.36ZM639.92 40.42V42.16H631.9V45.58H630V42.16H622.12V40.42H630V38.84H623.94V30.7H625.7C625.32 29.92 624.58 28.88 623.92 28.1L625.54 27.38C626.28 28.2 627.14 29.38 627.54 30.16L626.42 30.7H630.42C630.12 29.86 629.48 28.68 628.88 27.8L630.54 27.16C631.22 28.1 631.94 29.36 632.24 30.18L630.96 30.7H634.28C635 29.74 635.84 28.3 636.3 27.22L638.34 27.86C637.72 28.84 637.02 29.86 636.38 30.7H638.26V38.84H631.9V40.42H639.92ZM645.92 27.26L647.6 27.8C647.1 29.18 646.46 30.58 645.74 31.9V45.56H644V34.68C643.48 35.38 642.96 36.04 642.42 36.6C642.26 36.2 641.72 35.22 641.44 34.78C643.22 32.96 644.9 30.14 645.92 27.26ZM654.54 33.78V30.86H652.66V33.78H654.54ZM658.02 42.36V35.44H656.12V42.36H658.02ZM649.28 35.44V42.36H651.08V35.44H649.28ZM654.54 35.44H652.66V42.36H654.54V35.44ZM659.96 30.86H656.3V33.78H659.82V45.1H658.02V43.98H649.28V45.2H647.56V33.78H650.92V30.86H647.34V29.18H659.96V30.86Z" fill="black"/>
<path d="M371.76 33.1V29.84H364.26V33.1H371.76ZM373.66 28.06V34.88H362.48V28.06H373.66ZM365.06 38.6H361.42V42.76H365.06V38.6ZM359.66 45.58V36.82H366.9V45.44H365.06V44.54H361.42V45.58H359.66ZM370.64 42.76H374.6V38.6H370.64V42.76ZM368.86 36.82H376.46V45.48H374.6V44.54H370.64V45.58H368.86V36.82ZM382.96 42.3H392.84V39.44H382.96V42.3ZM392.84 34.8H382.96V37.68H392.84V34.8ZM392.84 30.2H382.96V33.04H392.84V30.2ZM381.08 28.38H394.8V45.44H392.84V44.12H382.96V45.44H381.08V28.38Z" fill="black"/>
</g>
<defs>
<clipPath id="clip0_89_3">
<rect width="920" height="280" fill="white"/>
</clipPath>
</defs>
</svg>
