<svg width="920" height="210" viewBox="0 0 920 210" fill="none" xmlns="http://www.w3.org/2000/svg">
<g clip-path="url(#clip0_89_4)">
<rect width="920" height="210" fill="white"/>
<rect width="252" height="210" fill="#787878"/>
<path d="M252.055 3.05176e-05H504.11V70.0153H252.055V3.05176e-05Z" fill="#D9D9D9"/>
<path d="M252.055 70.0153H504.11V140.03H252.055V70.0153Z" fill="#D9D9D9"/>
<path d="M252.055 70.0153H504.11V140.03H252.055V70.0153Z" fill="white"/>
<path d="M252.055 140.03H504.11V210.046H252.055V140.03Z" fill="#D9D9D9"/>
<path d="M252.055 140.03H504.11V210.046H252.055V140.03Z" fill="white"/>
<path d="M504.11 3.05176e-05H756.164V70.0153H504.11V3.05176e-05Z" fill="#D9D9D9"/>
<path d="M504.11 70.0153H756.164V140.03H504.11V70.0153Z" fill="#D9D9D9"/>
<path d="M504.11 70.0153H756.164V140.03H504.11V70.0153Z" fill="white"/>
<path d="M504.11 140.03H756.164V210.046H504.11V140.03Z" fill="#D9D9D9"/>
<path d="M504.11 140.03H756.164V210.046H504.11V140.03Z" fill="white"/>
<path d="M756.164 3.05176e-05H920V70.0153H756.164V3.05176e-05Z" fill="#D9D9D9"/>
<path d="M756.164 70.0153H920V140.03H756.164V70.0153Z" fill="#D9D9D9"/>
<path d="M756.164 70.0153H920V140.03H756.164V70.0153Z" fill="white"/>
<path d="M756.164 140.03H920V210.046H756.164V140.03Z" fill="#D9D9D9"/>
<path d="M756.164 140.03H920V210.046H756.164V140.03Z" fill="white"/>
<path d="M919.75 140.28V209.796H756.414V140.28H919.75ZM755.914 140.28V209.796H504.359V140.28H755.914ZM503.859 140.28V209.796H252.305V140.28H503.859ZM919.75 70.2657V139.78H756.414V70.2657H919.75ZM755.914 70.2657V139.78H504.359V70.2657H755.914ZM503.859 70.2657V139.78H252.305V70.2657H503.859ZM919.75 0.250031V69.7657H756.414V0.250031H919.75ZM755.914 0.250031V69.7657H504.359V0.250031H755.914ZM503.859 0.250031V69.7657H252.305V0.250031H503.859Z" stroke="black" stroke-width="0.5"/>
<path d="M56.9441 102.95C56.9441 109.15 55.4441 112.925 49.4191 115.575L46.7441 113.05C51.5691 111.375 53.6941 109.225 53.6941 103.075V102.125H47.7691V105.525C47.7691 106.625 47.8441 107.65 47.8691 108.15H44.3691C44.4441 107.65 44.5191 106.65 44.5191 105.525V102.125H42.3941C41.1441 102.125 40.2441 102.175 39.6941 102.225V98.825C40.1191 98.9 41.1441 99.05 42.3941 99.05H44.5191V96.575C44.5191 95.85 44.4441 95.075 44.3691 94.325H47.9191C47.8441 94.8 47.7691 95.6 47.7691 96.575V99.05H53.6941V96.425C53.6941 95.425 53.6191 94.6 53.5441 94.1H57.1191C57.0441 94.6 56.9441 95.425 56.9441 96.425V99.05H58.7941C60.1191 99.05 60.8691 99 61.5441 98.875V102.2C60.9941 102.15 60.1191 102.125 58.7941 102.125H56.9441V102.95ZM76.6309 95.15C76.3059 95.9 75.9309 96.825 75.5559 97.925C74.7559 100.375 72.7309 106.725 71.4809 110.075C74.5309 109.775 78.0809 109.375 80.6059 109.075C79.7309 107.275 78.8059 105.6 77.9809 104.5L81.1059 103.225C82.8809 105.925 85.4309 110.825 86.5809 113.625L83.2059 115.125C82.8809 114.275 82.4809 113.25 82.0059 112.175C77.9559 112.65 70.3809 113.45 67.2309 113.775C66.6059 113.85 65.6809 113.975 64.8809 114.075L64.3059 110.425C65.1559 110.425 66.2309 110.425 67.0559 110.4C67.2559 110.4 67.5059 110.375 67.7309 110.375C69.1809 106.675 71.3309 99.825 72.0559 97.225C72.4059 95.95 72.5559 95.175 72.6559 94.325L76.6309 95.15ZM102.181 93.575C102.106 94.175 102.031 95.1 102.031 95.875V97.175H105.031C105.806 97.175 106.506 97.1 107.106 96.925L109.181 98.95C108.531 99.575 107.781 100.425 107.231 101.025C105.956 102.475 104.056 104.35 101.981 105.925C101.981 107.925 101.956 110.65 101.956 112.225C101.956 113.225 102.056 114.65 102.131 115.425H98.5309C98.6309 114.725 98.7309 113.225 98.7309 112.225V107.95C96.4309 109.175 93.7559 110.2 91.0559 111.025L89.1309 108.075C93.9559 107 97.1559 105.275 99.3309 103.9C101.256 102.65 102.806 101.2 103.531 100.175H94.4809C93.5809 100.175 92.0059 100.2 91.2309 100.275V97C92.1809 97.15 93.5559 97.175 94.4309 97.175H98.7559V95.875C98.7559 95.1 98.7059 94.2 98.6059 93.575H102.181ZM109.531 111.275C107.356 109.55 105.731 108.5 103.556 107.3L105.631 104.9C107.931 106.15 109.231 106.875 111.631 108.525L109.531 111.275ZM114.306 104.275C118.781 103.125 122.456 101.5 125.231 99.8C127.806 98.2 130.656 95.7 132.281 93.725L134.981 96.3C133.081 98.175 130.681 100.125 128.256 101.725V111.825C128.256 112.925 128.306 114.475 128.481 115.1H124.531C124.631 114.5 124.706 112.925 124.706 111.825V103.825C122.131 105.175 118.956 106.525 115.881 107.425L114.306 104.275ZM150.331 113.45C150.431 112.975 150.531 112.275 150.531 111.6V97.025C150.531 95.9 150.356 94.95 150.331 94.875H154.056C154.031 94.95 153.881 95.925 153.881 97.05V110.125C155.906 109.25 158.381 107.275 160.056 104.85L161.981 107.6C159.906 110.3 156.306 113 153.506 114.425C152.956 114.725 152.656 114.975 152.431 115.175L150.331 113.45ZM138.756 113.075C140.956 111.525 142.306 109.225 143.006 107.1C143.706 104.95 143.731 100.225 143.731 97.2C143.731 96.2 143.656 95.525 143.506 94.9H147.181C147.156 95.025 147.006 96.125 147.006 97.175C147.006 100.125 146.931 105.4 146.256 107.925C145.506 110.75 143.931 113.2 141.806 115.1L138.756 113.075ZM166.031 100.7H169.406V98.825H166.881C166.606 99.525 166.306 100.15 166.031 100.7ZM172.231 98.825V100.7H177.706V103.375H172.231V105.2H177.106V111.575C177.106 112.725 176.931 113.425 176.206 113.85C175.506 114.275 174.556 114.325 173.306 114.3C173.231 113.55 172.906 112.5 172.581 111.775C173.281 111.825 173.906 111.825 174.131 111.8C174.356 111.8 174.431 111.75 174.431 111.5V107.85H172.231V116.15H169.406V107.85H167.356V114.175H164.706V105.2H169.406V103.375H163.731V100.7H165.606C164.956 100.375 163.931 99.95 163.356 99.75C164.381 98.175 165.206 95.65 165.656 93.275L168.381 93.85C168.231 94.625 168.031 95.375 167.806 96.125H169.406V92.975H172.231V96.125H176.706V98.825H172.231ZM181.606 94.875V108.95H178.831V94.875H181.606ZM183.306 93.25H186.156V112.65C186.156 114.25 185.831 115.05 184.931 115.55C184.006 116.025 182.556 116.125 180.631 116.125C180.531 115.3 180.131 114 179.756 113.125C181.031 113.175 182.331 113.175 182.756 113.175C183.156 113.15 183.306 113.05 183.306 112.625V93.25ZM194.056 92.925L196.956 93.825C196.306 95.575 195.481 97.35 194.556 99.025V116.15H191.556V103.65C191.031 104.275 190.506 104.9 190.006 105.45C189.731 104.725 188.881 103.025 188.356 102.275C190.631 100.025 192.806 96.475 194.056 92.925ZM211.981 99.725H204.881V102.35H211.356V105.05H204.881V107.875H211.681V110.625H204.881V116.175H201.831V99.725H200.881C199.881 101.575 198.731 103.275 197.606 104.575C197.131 104.025 195.956 102.975 195.331 102.5C197.531 100.25 199.506 96.65 200.631 93.075L203.506 93.8C203.156 94.85 202.756 95.875 202.281 96.9H211.981V99.725ZM107.75 138.65V139.675H118.5V138.65H107.75ZM114.35 130.125H111.025C110.75 130.725 110.35 131.275 109.8 131.775H114.35V130.125ZM106.3 127.4L105.975 128.375H108.7C108.8 128.075 108.85 127.75 108.85 127.4H106.3ZM111.575 124.675V125.675H114.35V124.675H111.575ZM119.775 124.675H117.175V125.675H119.775V124.675ZM114.35 128.375V127.4H111.575C111.55 127.725 111.525 128.05 111.5 128.375H114.35ZM121.175 130.125H117.175V131.775H119.35C119.275 131.475 119.15 131.175 119.05 130.95C119.625 131.025 120.15 131.05 120.425 131.025C120.65 131.025 120.8 131.025 120.95 130.85C121.05 130.725 121.125 130.5 121.175 130.125ZM118.5 134.45V133.475H107.75V134.45H118.5ZM118.5 137.05V136.05H107.75V137.05H118.5ZM121.525 141.375H117.75C120.15 142.15 122.775 143.1 124.35 143.775L121.05 145.2C119.575 144.45 116.975 143.4 114.375 142.55L116.275 141.375H109.6L111.575 142.275C109.5 143.5 106.325 144.625 103.775 145.25C103.3 144.675 102.25 143.625 101.625 143.125C103.95 142.725 106.5 142.1 108.25 141.375H104.85V133.95C104.275 134.075 103.675 134.175 103 134.275C102.75 133.65 102.05 132.525 101.6 131.975C104.7 131.575 106.5 130.95 107.525 130.125H105.325L105.25 130.35L102.55 130.175C103.1 128.95 103.7 127.15 104.125 125.675H108.875V124.675H103.2V122.925H108.875V121.85H111.575V122.925H114.35V121.85H117.175V122.925H122.475V127.4H117.175V128.375H124.1C124.1 128.375 124.075 128.875 124.05 129.15C123.925 130.775 123.775 131.675 123.35 132.125C122.975 132.5 122.425 132.7 121.9 132.725C121.8 132.725 121.675 132.75 121.525 132.75V141.375ZM139.75 135.075H145.025V132H139.75V135.075ZM131.975 135.075H136.75V132H132.05V132.45C132.05 133.25 132.025 134.15 131.975 135.075ZM136.75 126.325H132.05V129.225H136.75V126.325ZM145.025 129.225V126.325H139.75V129.225H145.025ZM147.975 123.5V141.65C147.975 143.25 147.625 144.05 146.625 144.5C145.6 145 144.075 145.05 141.825 145.025C141.725 144.225 141.25 142.95 140.875 142.175C142.275 142.25 143.925 142.225 144.375 142.225C144.85 142.225 145.025 142.075 145.025 141.625V137.875H139.75V144.85H136.75V137.875H131.65C131.2 140.6 130.3 143.35 128.5 145.3C128.025 144.75 126.825 143.725 126.15 143.375C128.875 140.375 129.1 135.925 129.1 132.425V123.5H147.975Z" fill="white"/>
<path d="M825.76 35.28H830V33.5H825.76V35.28ZM830 32.02V30.26H825.76V32.02H830ZM836.36 32.02V30.26H831.9V32.02H836.36ZM836.36 35.28V33.5H831.9V35.28H836.36ZM839.92 38.42V40.16H831.9V43.58H830V40.16H822.12V38.42H830V36.84H823.94V28.7H825.7C825.32 27.92 824.58 26.88 823.92 26.1L825.54 25.38C826.28 26.2 827.14 27.38 827.54 28.16L826.42 28.7H830.42C830.12 27.86 829.48 26.68 828.88 25.8L830.54 25.16C831.22 26.1 831.94 27.36 832.24 28.18L830.96 28.7H834.28C835 27.74 835.84 26.3 836.3 25.22L838.34 25.86C837.72 26.84 837.02 27.86 836.38 28.7H838.26V36.84H831.9V38.42H839.92ZM847.74 28.98H852.68V25.46H854.56V28.98H859.82V30.74H847.74V28.98ZM852.46 39.74L850.62 40.14C850.5 38.16 849.94 34.78 849.26 32.18L850.94 31.88C851.66 34.48 852.3 37.78 852.46 39.74ZM846.4 25.26L848.14 25.82C847.6 27.18 846.94 28.52 846.18 29.82V43.52H844.42V32.48C843.78 33.32 843.12 34.1 842.46 34.76C842.28 34.34 841.74 33.34 841.44 32.86C843.4 31.04 845.28 28.18 846.4 25.26ZM855.82 40.92H860.28V42.68H847.3V40.92H854.02C854.86 38.44 855.8 34.56 856.26 31.74L858.26 32.08C857.62 35 856.68 38.52 855.82 40.92Z" fill="black"/>
<path d="M616.76 35.28H621V33.5H616.76V35.28ZM621 32.02V30.26H616.76V32.02H621ZM627.36 32.02V30.26H622.9V32.02H627.36ZM627.36 35.28V33.5H622.9V35.28H627.36ZM630.92 38.42V40.16H622.9V43.58H621V40.16H613.12V38.42H621V36.84H614.94V28.7H616.7C616.32 27.92 615.58 26.88 614.92 26.1L616.54 25.38C617.28 26.2 618.14 27.38 618.54 28.16L617.42 28.7H621.42C621.12 27.86 620.48 26.68 619.88 25.8L621.54 25.16C622.22 26.1 622.94 27.36 623.24 28.18L621.96 28.7H625.28C626 27.74 626.84 26.3 627.3 25.22L629.34 25.86C628.72 26.84 628.02 27.86 627.38 28.7H629.26V36.84H622.9V38.42H630.92ZM636.92 25.26L638.6 25.8C638.1 27.18 637.46 28.58 636.74 29.9V43.56H635V32.68C634.48 33.38 633.96 34.04 633.42 34.6C633.26 34.2 632.72 33.22 632.44 32.78C634.22 30.96 635.9 28.14 636.92 25.26ZM645.54 31.78V28.86H643.66V31.78H645.54ZM649.02 40.36V33.44H647.12V40.36H649.02ZM640.28 33.44V40.36H642.08V33.44H640.28ZM645.54 33.44H643.66V40.36H645.54V33.44ZM650.96 28.86H647.3V31.78H650.82V43.1H649.02V41.98H640.28V43.2H638.56V31.78H641.92V28.86H638.34V27.18H650.96V28.86Z" fill="black"/>
<path d="M373.76 31.1V27.84H366.26V31.1H373.76ZM375.66 26.06V32.88H364.48V26.06H375.66ZM367.06 36.6H363.42V40.76H367.06V36.6ZM361.66 43.58V34.82H368.9V43.44H367.06V42.54H363.42V43.58H361.66ZM372.64 40.76H376.6V36.6H372.64V40.76ZM370.86 34.82H378.46V43.48H376.6V42.54H372.64V43.58H370.86V34.82ZM384.96 40.3H394.84V37.44H384.96V40.3ZM394.84 32.8H384.96V35.68H394.84V32.8ZM394.84 28.2H384.96V31.04H394.84V28.2ZM383.08 26.38H396.8V43.44H394.84V42.12H384.96V43.44H383.08V26.38Z" fill="black"/>
<path d="M827.213 183V181.48H830.493V170.54H827.873V169.38C828.526 169.26 829.093 169.113 829.573 168.94C830.066 168.767 830.513 168.567 830.913 168.34H832.313V181.48H835.253V183H827.213ZM847.227 170.06H855.567V171.48H847.227V170.06ZM847.507 170.86C847.72 172.06 848.02 173.273 848.407 174.5C848.807 175.727 849.327 176.907 849.967 178.04C850.62 179.16 851.427 180.173 852.387 181.08C853.36 181.987 854.54 182.72 855.927 183.28C855.82 183.387 855.694 183.52 855.547 183.68C855.414 183.853 855.287 184.02 855.167 184.18C855.047 184.353 854.947 184.52 854.867 184.68C853.48 184.027 852.3 183.22 851.327 182.26C850.354 181.287 849.54 180.22 848.887 179.06C848.234 177.887 847.707 176.673 847.307 175.42C846.92 174.167 846.614 172.947 846.387 171.76L847.507 170.86ZM852.727 170.54L854.327 170.78C854.047 172.313 853.68 173.78 853.227 175.18C852.774 176.567 852.187 177.853 851.467 179.04C850.747 180.227 849.847 181.293 848.767 182.24C847.7 183.187 846.407 183.987 844.887 184.64C844.82 184.52 844.727 184.387 844.607 184.24C844.5 184.093 844.387 183.947 844.267 183.8C844.16 183.653 844.054 183.527 843.947 183.42C845.414 182.82 846.654 182.08 847.667 181.2C848.68 180.32 849.52 179.327 850.187 178.22C850.854 177.113 851.387 175.913 851.787 174.62C852.187 173.327 852.5 171.967 852.727 170.54ZM847.907 166.18L849.467 166.48C849.187 167.707 848.834 168.887 848.407 170.02C847.994 171.14 847.514 172.18 846.967 173.14C846.42 174.1 845.814 174.947 845.147 175.68C845.08 175.56 844.98 175.42 844.847 175.26C844.727 175.087 844.6 174.913 844.467 174.74C844.334 174.567 844.214 174.433 844.107 174.34C845.04 173.393 845.82 172.207 846.447 170.78C847.087 169.34 847.574 167.807 847.907 166.18ZM837.587 170.48H844.867V171.92H837.587V170.48ZM840.687 166.2H842.147V184.58H840.687V166.2ZM840.607 171.38L841.587 171.7C841.414 172.54 841.194 173.413 840.927 174.32C840.674 175.213 840.38 176.093 840.047 176.96C839.727 177.827 839.38 178.633 839.007 179.38C838.647 180.127 838.274 180.76 837.887 181.28C837.807 181.067 837.687 180.833 837.527 180.58C837.367 180.313 837.22 180.093 837.087 179.92C837.46 179.44 837.82 178.873 838.167 178.22C838.527 177.553 838.86 176.84 839.167 176.08C839.487 175.307 839.767 174.52 840.007 173.72C840.26 172.907 840.46 172.127 840.607 171.38ZM841.967 173.66C842.1 173.793 842.287 174.007 842.527 174.3C842.767 174.593 843.034 174.927 843.327 175.3C843.62 175.66 843.907 176.027 844.187 176.4C844.48 176.773 844.74 177.107 844.967 177.4C845.194 177.693 845.354 177.913 845.447 178.06L844.527 179.28C844.367 178.987 844.14 178.613 843.847 178.16C843.567 177.707 843.254 177.24 842.907 176.76C842.574 176.267 842.254 175.813 841.947 175.4C841.654 174.973 841.414 174.633 841.227 174.38L841.967 173.66Z" fill="black"/>
<path d="M564.669 182V180.575H567.084V172.895H565.104V171.8C566.139 171.605 566.874 171.35 567.504 170.945H568.809V180.575H570.969V182H564.669ZM576.209 182.195C574.049 182.195 572.639 180.275 572.639 176.435C572.639 172.61 574.049 170.75 576.209 170.75C578.369 170.75 579.779 172.625 579.779 176.435C579.779 180.275 578.369 182.195 576.209 182.195ZM576.209 180.83C577.334 180.83 578.129 179.63 578.129 176.435C578.129 173.27 577.334 172.115 576.209 172.115C575.084 172.115 574.289 173.27 574.289 176.435C574.289 179.63 575.084 180.83 576.209 180.83ZM581.674 185L581.284 184.025C582.319 183.605 582.919 182.84 582.919 181.97C582.859 181.985 582.814 181.985 582.754 181.985C582.139 181.985 581.599 181.595 581.599 180.875C581.599 180.2 582.139 179.765 582.799 179.765C583.639 179.765 584.134 180.47 584.134 181.625C584.134 183.2 583.219 184.415 581.674 185ZM589.232 182.195C587.072 182.195 585.662 180.275 585.662 176.435C585.662 172.61 587.072 170.75 589.232 170.75C591.392 170.75 592.802 172.625 592.802 176.435C592.802 180.275 591.392 182.195 589.232 182.195ZM589.232 180.83C590.357 180.83 591.152 179.63 591.152 176.435C591.152 173.27 590.357 172.115 589.232 172.115C588.107 172.115 587.312 173.27 587.312 176.435C587.312 179.63 588.107 180.83 589.232 180.83ZM597.786 182.195C595.626 182.195 594.216 180.275 594.216 176.435C594.216 172.61 595.626 170.75 597.786 170.75C599.946 170.75 601.356 172.625 601.356 176.435C601.356 180.275 599.946 182.195 597.786 182.195ZM597.786 180.83C598.911 180.83 599.706 179.63 599.706 176.435C599.706 173.27 598.911 172.115 597.786 172.115C596.661 172.115 595.866 173.27 595.866 176.435C595.866 179.63 596.661 180.83 597.786 180.83ZM606.341 182.195C604.181 182.195 602.771 180.275 602.771 176.435C602.771 172.61 604.181 170.75 606.341 170.75C608.501 170.75 609.911 172.625 609.911 176.435C609.911 180.275 608.501 182.195 606.341 182.195ZM606.341 180.83C607.466 180.83 608.261 179.63 608.261 176.435C608.261 173.27 607.466 172.115 606.341 172.115C605.216 172.115 604.421 173.27 604.421 176.435C604.421 179.63 605.216 180.83 606.341 180.83ZM618.766 175.88H622.951V171.785H618.766V175.88ZM613.366 171.785V175.88H617.386V171.785H613.366ZM624.361 170.405V181.445C624.361 182.255 624.181 182.675 623.626 182.915C623.086 183.14 622.216 183.17 620.881 183.17C620.821 182.78 620.596 182.15 620.371 181.775C621.331 181.82 622.291 181.805 622.576 181.79C622.861 181.79 622.951 181.7 622.951 181.43V177.26H613.366V183.185H611.971V170.405H624.361ZM632.581 176.825C631.846 176.09 631.246 175.655 630.181 175.655C629.086 175.655 628.141 176.42 627.541 177.56L626.221 176.84C627.196 175.07 628.606 174.155 630.196 174.155C631.591 174.155 632.611 174.71 633.661 175.775C634.396 176.51 634.996 176.945 636.061 176.945C637.156 176.945 638.101 176.18 638.701 175.04L640.021 175.76C639.046 177.53 637.636 178.445 636.046 178.445C634.651 178.445 633.631 177.89 632.581 176.825ZM650.836 176.3C650.836 173.255 652.096 170.855 653.806 169.13L654.946 169.67C653.311 171.38 652.186 173.54 652.186 176.3C652.186 179.06 653.311 181.22 654.946 182.93L653.806 183.47C652.096 181.745 650.836 179.345 650.836 176.3ZM662.011 177.62L661.201 178.715C660.976 178.295 660.481 177.59 660.031 176.975V183.155H658.681V177.095C658.126 178.46 657.436 179.75 656.761 180.59C656.626 180.2 656.296 179.63 656.086 179.3C656.971 178.28 657.931 176.495 658.501 174.905H656.371V173.585H658.681V171.545C657.991 171.695 657.301 171.8 656.656 171.89C656.596 171.575 656.416 171.11 656.251 170.81C657.916 170.54 659.806 170.105 660.931 169.61L661.891 170.675C661.351 170.885 660.706 171.08 660.031 171.26V173.585H661.786V174.905H660.031V175.595C660.466 175.97 661.741 177.275 662.011 177.62ZM663.646 173.615V176.15H667.906V173.615H663.646ZM667.801 181.73H668.581C668.851 181.73 668.911 181.505 668.941 179.915C669.211 180.125 669.781 180.365 670.141 180.455C670.036 182.465 669.691 182.99 668.731 182.99H667.576C666.421 182.99 666.151 182.57 666.151 181.28V177.38H665.071C664.846 179.9 664.156 182.03 661.531 183.2C661.366 182.87 660.991 182.36 660.691 182.12C662.986 181.16 663.496 179.42 663.706 177.38H662.326V172.4H663.646C663.421 171.71 662.911 170.69 662.401 169.925L663.556 169.43C664.111 170.21 664.696 171.245 664.921 171.95L663.931 172.4H667.696L666.586 171.965C667.051 171.275 667.606 170.195 667.891 169.4L669.316 169.88C668.821 170.78 668.251 171.755 667.786 172.4H669.301V177.38H667.501V181.265C667.501 181.685 667.546 181.73 667.801 181.73ZM676.711 170.105H680.551C680.851 174.53 681.901 178.085 684.931 179.63C684.601 179.855 684.106 180.35 683.836 180.695C681.856 179.525 680.701 177.59 680.026 175.16C679.261 177.59 678.046 179.435 676.276 180.695C676.051 180.425 675.511 179.9 675.181 179.645C677.311 178.325 678.526 176.045 679.081 173.075L679.591 173.15C679.501 172.595 679.441 172.01 679.381 171.425H676.711V170.105ZM675.091 172.055L673.996 172.97C673.516 172.265 672.436 171.26 671.491 170.6L672.526 169.76C673.456 170.405 674.581 171.335 675.091 172.055ZM674.686 175.235V179.975C675.346 181.01 676.576 181.49 678.226 181.55C679.891 181.61 683.221 181.565 685.096 181.445C684.931 181.775 684.706 182.435 684.631 182.87C682.936 182.945 679.921 182.975 678.211 182.9C676.306 182.825 675.016 182.33 674.071 181.175C673.366 181.79 672.646 182.39 671.866 183.035L671.146 181.595C671.821 181.175 672.616 180.62 673.321 180.05V176.525H671.401V175.235H674.686ZM690.406 176.3C690.406 179.345 689.146 181.745 687.436 183.47L686.296 182.93C687.931 181.22 689.056 179.06 689.056 176.3C689.056 173.54 687.931 171.38 686.296 169.67L687.436 169.13C689.146 170.855 690.406 173.255 690.406 176.3Z" fill="black"/>
<path d="M329.936 171L327.686 159.945H329.471L330.506 165.705C330.701 166.875 330.896 168.06 331.091 169.245H331.151C331.391 168.06 331.646 166.875 331.901 165.705L333.326 159.945H334.871L336.296 165.705C336.551 166.86 336.791 168.045 337.046 169.245H337.121C337.301 168.045 337.496 166.86 337.676 165.705L338.726 159.945H340.391L338.216 171H336.071L334.586 164.865C334.391 163.995 334.226 163.17 334.076 162.33H334.016C333.851 163.17 333.671 163.995 333.491 164.865L332.036 171H329.936ZM345.484 171.195C343.249 171.195 341.464 169.605 341.464 166.875C341.464 164.205 343.309 162.54 345.229 162.54C347.419 162.54 348.604 164.115 348.604 166.44C348.604 166.785 348.559 167.115 348.514 167.325H343.159C343.294 168.9 344.284 169.845 345.709 169.845C346.444 169.845 347.074 169.62 347.674 169.23L348.274 170.325C347.509 170.835 346.564 171.195 345.484 171.195ZM343.144 166.125H347.104C347.104 164.715 346.459 163.89 345.259 163.89C344.224 163.89 343.309 164.685 343.144 166.125ZM354.371 171.195C353.621 171.195 352.796 170.805 352.091 170.145H352.046L351.881 171H350.531V159.045H352.256V162.21L352.196 163.62C352.901 163.005 353.786 162.54 354.656 162.54C356.741 162.54 357.926 164.205 357.926 166.74C357.926 169.575 356.231 171.195 354.371 171.195ZM354.041 169.77C355.241 169.77 356.141 168.705 356.141 166.77C356.141 165.045 355.586 163.98 354.206 163.98C353.561 163.98 352.931 164.31 352.256 164.985V169.02C352.886 169.575 353.531 169.77 354.041 169.77ZM361.614 159.885C362.064 159.945 362.574 159.975 363.069 159.975H368.139C368.604 159.975 369.174 159.945 369.639 159.885V161.43C369.159 161.4 368.619 161.37 368.139 161.37H363.084C362.574 161.37 362.019 161.4 361.614 161.43V159.885ZM359.844 163.68C360.264 163.725 360.744 163.755 361.209 163.755H371.034C371.349 163.755 371.904 163.74 372.294 163.68V165.225C371.934 165.21 371.424 165.195 371.034 165.195H367.164C367.104 166.785 366.804 168.105 366.234 169.185C365.694 170.205 364.554 171.315 363.249 171.99L361.869 170.97C362.979 170.52 364.059 169.65 364.644 168.735C365.289 167.73 365.484 166.545 365.544 165.195H361.209C360.759 165.195 360.264 165.21 359.844 165.24V163.68ZM370.464 158.745C370.839 159.285 371.379 160.215 371.679 160.8L370.689 161.22C370.389 160.62 369.909 159.72 369.504 159.15L370.464 158.745ZM372.159 158.1C372.564 158.67 373.134 159.6 373.404 160.14L372.429 160.575C372.114 159.93 371.619 159.075 371.199 158.505L372.159 158.1ZM385.749 159.465C386.019 160.02 386.394 160.935 386.589 161.52L385.719 161.82C385.494 161.175 385.194 160.32 384.894 159.735L385.749 159.465ZM387.264 158.985C387.549 159.555 387.924 160.455 388.119 161.055L387.249 161.34C387.024 160.68 386.709 159.84 386.409 159.255L387.264 158.985ZM384.384 164.475C384.384 168.345 383.499 170.49 379.989 172.05L378.714 170.865C381.519 169.83 382.839 168.54 382.839 164.565V163.965H378.894V166.215C378.894 166.815 378.939 167.46 378.954 167.67H377.289C377.319 167.46 377.364 166.83 377.364 166.215V163.965H375.894C375.189 163.965 374.574 163.995 374.334 164.01V162.39C374.529 162.42 375.204 162.51 375.894 162.51H377.364V160.77C377.364 160.41 377.334 159.96 377.289 159.57H378.969C378.939 159.78 378.894 160.23 378.894 160.785V162.51H382.839V160.77C382.839 160.17 382.794 159.675 382.764 159.465H384.459C384.444 159.675 384.384 160.17 384.384 160.77V162.51H385.779C386.514 162.51 386.994 162.465 387.279 162.42V164.01C387.054 163.98 386.514 163.965 385.794 163.965H384.384V164.475ZM389.799 165.405C392.424 164.7 394.674 163.68 396.339 162.645C397.899 161.685 399.489 160.29 400.509 159.075L401.769 160.275C400.629 161.43 399.219 162.585 397.734 163.56V169.785C397.734 170.4 397.764 171.225 397.839 171.555H395.979C396.024 171.225 396.069 170.4 396.069 169.785V164.565C394.494 165.42 392.514 166.29 390.534 166.89L389.799 165.405ZM407.154 159.825C408.204 160.53 410.154 162.09 410.994 162.96L409.809 164.175C409.029 163.38 407.169 161.745 406.059 160.995L407.154 159.825ZM405.609 169.86C408.114 169.485 410.064 168.645 411.504 167.76C413.919 166.275 415.794 164.025 416.709 162.105L417.624 163.74C416.544 165.69 414.699 167.73 412.359 169.17C410.844 170.1 408.939 170.985 406.614 171.405L405.609 169.86ZM426.969 166.41H430.599V164.19H426.969V166.41ZM422.259 166.41H425.574V164.19H422.319V164.79C422.319 165.3 422.304 165.855 422.259 166.41ZM425.574 160.77H422.319V162.885H425.574V160.77ZM430.599 162.885V160.77H426.969V162.885H430.599ZM431.994 159.435V170.43C431.994 171.24 431.799 171.66 431.259 171.87C430.704 172.095 429.834 172.125 428.454 172.11C428.394 171.735 428.169 171.12 427.989 170.76C428.949 170.805 429.939 170.79 430.224 170.79C430.494 170.79 430.599 170.7 430.599 170.415V167.73H426.969V172.02H425.574V167.73H422.124C421.884 169.38 421.344 171.06 420.249 172.275C420.039 172.005 419.469 171.525 419.154 171.36C420.789 169.545 420.939 166.89 420.939 164.775V159.435H431.994ZM354.126 186.22C354.126 190.09 353.256 192.235 349.746 193.81L348.471 192.61C351.276 191.575 352.596 190.285 352.596 186.31V185.71H348.636V187.96C348.636 188.575 348.681 189.205 348.711 189.415H347.046C347.061 189.205 347.121 188.59 347.121 187.96V185.71H345.651C344.946 185.71 344.331 185.74 344.091 185.77V184.135C344.286 184.18 344.961 184.255 345.651 184.255H347.121V182.53C347.121 182.155 347.091 181.72 347.031 181.33H348.726C348.696 181.525 348.636 181.975 348.636 182.53V184.255H352.596V182.515C352.596 181.915 352.551 181.42 352.521 181.21H354.216C354.186 181.435 354.126 181.915 354.126 182.515V184.255H355.536C356.271 184.255 356.751 184.21 357.036 184.165V185.755C356.796 185.725 356.271 185.71 355.551 185.71H354.126V186.22ZM365.894 181.765C365.729 182.17 365.549 182.62 365.324 183.28C364.874 184.705 363.509 188.95 362.759 190.93C364.799 190.75 367.334 190.465 368.939 190.255C368.369 189.115 367.754 188.02 367.229 187.33L368.684 186.7C369.734 188.275 371.339 191.26 371.984 192.865L370.394 193.585C370.199 193.06 369.929 192.4 369.614 191.71C367.229 191.995 362.429 192.52 360.479 192.7C360.104 192.745 359.609 192.82 359.159 192.88L358.889 191.14C359.354 191.14 359.939 191.14 360.389 191.11C360.569 191.095 360.779 191.095 361.004 191.08C361.844 188.935 363.269 184.45 363.689 182.935C363.899 182.215 363.959 181.81 364.019 181.375L365.894 181.765ZM381.299 180.88C381.254 181.225 381.209 181.795 381.209 182.23V183.115H383.399C383.789 183.115 384.179 183.07 384.464 182.995L385.454 183.94C385.139 184.27 384.749 184.69 384.479 184.99C383.714 185.875 382.499 187.09 381.179 188.035V191.965C381.179 192.52 381.224 193.27 381.254 193.735H379.544C379.604 193.3 379.649 192.52 379.649 191.965V189.01C378.254 189.775 376.634 190.435 374.789 190.975L373.874 189.58C376.739 188.92 378.644 187.915 379.979 187.045C381.239 186.235 382.319 185.2 382.799 184.525H376.919C376.379 184.525 375.494 184.555 375.029 184.585V183.025C375.539 183.085 376.379 183.115 376.889 183.115H379.679V182.23C379.679 181.78 379.649 181.225 379.589 180.88H381.299ZM385.949 191.155C384.644 190.165 383.699 189.55 382.349 188.815L383.324 187.69C384.719 188.44 385.514 188.89 386.939 189.85L385.949 191.155ZM388.994 187.405C391.619 186.7 393.869 185.68 395.534 184.645C397.094 183.685 398.684 182.29 399.704 181.075L400.964 182.275C399.824 183.43 398.414 184.585 396.929 185.56V191.785C396.929 192.4 396.959 193.225 397.034 193.555H395.174C395.219 193.225 395.264 192.4 395.264 191.785V186.565C393.689 187.42 391.709 188.29 389.729 188.89L388.994 187.405ZM410.579 192.67C410.639 192.415 410.684 192.07 410.684 191.725V182.845C410.684 182.23 410.594 181.735 410.594 181.645H412.334C412.319 181.735 412.259 182.23 412.259 182.845V191.14C413.564 190.555 415.259 189.28 416.339 187.69L417.254 188.98C415.979 190.675 413.864 192.25 412.139 193.12C411.869 193.27 411.689 193.405 411.569 193.495L410.579 192.67ZM403.664 192.535C404.969 191.635 405.824 190.27 406.259 188.89C406.694 187.555 406.694 184.63 406.694 182.905C406.694 182.395 406.664 182.035 406.574 181.69H408.314C408.299 181.81 408.239 182.365 408.239 182.89C408.239 184.6 408.179 187.795 407.774 189.295C407.324 190.945 406.379 192.415 405.104 193.495L403.664 192.535Z" fill="black"/>
<path d="M827.213 111V109.48H830.493V98.54H827.873V97.38C828.526 97.26 829.093 97.1133 829.573 96.94C830.066 96.7667 830.513 96.5667 830.913 96.34H832.313V109.48H835.253V111H827.213ZM847.227 98.06H855.567V99.48H847.227V98.06ZM847.507 98.86C847.72 100.06 848.02 101.273 848.407 102.5C848.807 103.727 849.327 104.907 849.967 106.04C850.62 107.16 851.427 108.173 852.387 109.08C853.36 109.987 854.54 110.72 855.927 111.28C855.82 111.387 855.694 111.52 855.547 111.68C855.414 111.853 855.287 112.02 855.167 112.18C855.047 112.353 854.947 112.52 854.867 112.68C853.48 112.027 852.3 111.22 851.327 110.26C850.354 109.287 849.54 108.22 848.887 107.06C848.234 105.887 847.707 104.673 847.307 103.42C846.92 102.167 846.614 100.947 846.387 99.76L847.507 98.86ZM852.727 98.54L854.327 98.78C854.047 100.313 853.68 101.78 853.227 103.18C852.774 104.567 852.187 105.853 851.467 107.04C850.747 108.227 849.847 109.293 848.767 110.24C847.7 111.187 846.407 111.987 844.887 112.64C844.82 112.52 844.727 112.387 844.607 112.24C844.5 112.093 844.387 111.947 844.267 111.8C844.16 111.653 844.054 111.527 843.947 111.42C845.414 110.82 846.654 110.08 847.667 109.2C848.68 108.32 849.52 107.327 850.187 106.22C850.854 105.113 851.387 103.913 851.787 102.62C852.187 101.327 852.5 99.9667 852.727 98.54ZM847.907 94.18L849.467 94.48C849.187 95.7067 848.834 96.8867 848.407 98.02C847.994 99.14 847.514 100.18 846.967 101.14C846.42 102.1 845.814 102.947 845.147 103.68C845.08 103.56 844.98 103.42 844.847 103.26C844.727 103.087 844.6 102.913 844.467 102.74C844.334 102.567 844.214 102.433 844.107 102.34C845.04 101.393 845.82 100.207 846.447 98.78C847.087 97.34 847.574 95.8067 847.907 94.18ZM837.587 98.48H844.867V99.92H837.587V98.48ZM840.687 94.2H842.147V112.58H840.687V94.2ZM840.607 99.38L841.587 99.7C841.414 100.54 841.194 101.413 840.927 102.32C840.674 103.213 840.38 104.093 840.047 104.96C839.727 105.827 839.38 106.633 839.007 107.38C838.647 108.127 838.274 108.76 837.887 109.28C837.807 109.067 837.687 108.833 837.527 108.58C837.367 108.313 837.22 108.093 837.087 107.92C837.46 107.44 837.82 106.873 838.167 106.22C838.527 105.553 838.86 104.84 839.167 104.08C839.487 103.307 839.767 102.52 840.007 101.72C840.26 100.907 840.46 100.127 840.607 99.38ZM841.967 101.66C842.1 101.793 842.287 102.007 842.527 102.3C842.767 102.593 843.034 102.927 843.327 103.3C843.62 103.66 843.907 104.027 844.187 104.4C844.48 104.773 844.74 105.107 844.967 105.4C845.194 105.693 845.354 105.913 845.447 106.06L844.527 107.28C844.367 106.987 844.14 106.613 843.847 106.16C843.567 105.707 843.254 105.24 842.907 104.76C842.574 104.267 842.254 103.813 841.947 103.4C841.654 102.973 841.414 102.633 841.227 102.38L841.967 101.66Z" fill="black"/>
<path d="M579.177 110.195C577.437 110.195 576.342 109.49 575.562 108.725L576.387 107.6C577.017 108.23 577.812 108.785 578.967 108.785C580.212 108.785 581.157 107.9 581.157 106.43C581.157 104.96 580.317 104.12 579.057 104.12C578.352 104.12 577.932 104.33 577.287 104.75L576.447 104.195L576.777 98.945H582.372V100.415H578.277L578.022 103.25C578.502 103.01 578.937 102.86 579.537 102.86C581.382 102.86 582.897 103.955 582.897 106.37C582.897 108.815 581.112 110.195 579.177 110.195ZM584.896 113L584.506 112.025C585.541 111.605 586.141 110.84 586.141 109.97C586.081 109.985 586.036 109.985 585.976 109.985C585.361 109.985 584.821 109.595 584.821 108.875C584.821 108.2 585.361 107.765 586.021 107.765C586.861 107.765 587.356 108.47 587.356 109.625C587.356 111.2 586.441 112.415 584.896 113ZM592.454 110.195C590.294 110.195 588.884 108.275 588.884 104.435C588.884 100.61 590.294 98.75 592.454 98.75C594.614 98.75 596.024 100.625 596.024 104.435C596.024 108.275 594.614 110.195 592.454 110.195ZM592.454 108.83C593.579 108.83 594.374 107.63 594.374 104.435C594.374 101.27 593.579 100.115 592.454 100.115C591.329 100.115 590.534 101.27 590.534 104.435C590.534 107.63 591.329 108.83 592.454 108.83ZM601.009 110.195C598.849 110.195 597.439 108.275 597.439 104.435C597.439 100.61 598.849 98.75 601.009 98.75C603.169 98.75 604.579 100.625 604.579 104.435C604.579 108.275 603.169 110.195 601.009 110.195ZM601.009 108.83C602.134 108.83 602.929 107.63 602.929 104.435C602.929 101.27 602.134 100.115 601.009 100.115C599.884 100.115 599.089 101.27 599.089 104.435C599.089 107.63 599.884 108.83 601.009 108.83ZM609.564 110.195C607.404 110.195 605.994 108.275 605.994 104.435C605.994 100.61 607.404 98.75 609.564 98.75C611.724 98.75 613.134 100.625 613.134 104.435C613.134 108.275 611.724 110.195 609.564 110.195ZM609.564 108.83C610.689 108.83 611.484 107.63 611.484 104.435C611.484 101.27 610.689 100.115 609.564 100.115C608.439 100.115 607.644 101.27 607.644 104.435C607.644 107.63 608.439 108.83 609.564 108.83ZM620.803 104.825C620.068 104.09 619.468 103.655 618.403 103.655C617.308 103.655 616.363 104.42 615.763 105.56L614.443 104.84C615.418 103.07 616.828 102.155 618.418 102.155C619.813 102.155 620.833 102.71 621.883 103.775C622.618 104.51 623.218 104.945 624.283 104.945C625.378 104.945 626.323 104.18 626.923 103.04L628.243 103.76C627.268 105.53 625.858 106.445 624.268 106.445C622.873 106.445 621.853 105.89 620.803 104.825ZM639.058 104.3C639.058 101.255 640.318 98.855 642.028 97.13L643.168 97.67C641.533 99.38 640.408 101.54 640.408 104.3C640.408 107.06 641.533 109.22 643.168 110.93L642.028 111.47C640.318 109.745 639.058 107.345 639.058 104.3ZM650.233 105.62L649.423 106.715C649.198 106.295 648.703 105.59 648.253 104.975V111.155H646.903V105.095C646.348 106.46 645.658 107.75 644.983 108.59C644.848 108.2 644.518 107.63 644.308 107.3C645.193 106.28 646.153 104.495 646.723 102.905H644.593V101.585H646.903V99.545C646.213 99.695 645.523 99.8 644.878 99.89C644.818 99.575 644.638 99.11 644.473 98.81C646.138 98.54 648.028 98.105 649.153 97.61L650.113 98.675C649.573 98.885 648.928 99.08 648.253 99.26V101.585H650.008V102.905H648.253V103.595C648.688 103.97 649.963 105.275 650.233 105.62ZM651.868 101.615V104.15H656.128V101.615H651.868ZM656.023 109.73H656.803C657.073 109.73 657.133 109.505 657.163 107.915C657.433 108.125 658.003 108.365 658.363 108.455C658.258 110.465 657.913 110.99 656.953 110.99H655.798C654.643 110.99 654.373 110.57 654.373 109.28V105.38H653.293C653.068 107.9 652.378 110.03 649.753 111.2C649.588 110.87 649.213 110.36 648.913 110.12C651.208 109.16 651.718 107.42 651.928 105.38H650.548V100.4H651.868C651.643 99.71 651.133 98.69 650.623 97.925L651.778 97.43C652.333 98.21 652.918 99.245 653.143 99.95L652.153 100.4H655.918L654.808 99.965C655.273 99.275 655.828 98.195 656.113 97.4L657.538 97.88C657.043 98.78 656.473 99.755 656.008 100.4H657.523V105.38H655.723V109.265C655.723 109.685 655.768 109.73 656.023 109.73ZM664.933 98.105H668.773C669.073 102.53 670.123 106.085 673.153 107.63C672.823 107.855 672.328 108.35 672.058 108.695C670.078 107.525 668.923 105.59 668.248 103.16C667.483 105.59 666.268 107.435 664.498 108.695C664.273 108.425 663.733 107.9 663.403 107.645C665.533 106.325 666.748 104.045 667.303 101.075L667.813 101.15C667.723 100.595 667.663 100.01 667.603 99.425H664.933V98.105ZM663.313 100.055L662.218 100.97C661.738 100.265 660.658 99.26 659.713 98.6L660.748 97.76C661.678 98.405 662.803 99.335 663.313 100.055ZM662.908 103.235V107.975C663.568 109.01 664.798 109.49 666.448 109.55C668.113 109.61 671.443 109.565 673.318 109.445C673.153 109.775 672.928 110.435 672.853 110.87C671.158 110.945 668.143 110.975 666.433 110.9C664.528 110.825 663.238 110.33 662.293 109.175C661.588 109.79 660.868 110.39 660.088 111.035L659.368 109.595C660.043 109.175 660.838 108.62 661.543 108.05V104.525H659.623V103.235H662.908ZM678.628 104.3C678.628 107.345 677.368 109.745 675.658 111.47L674.518 110.93C676.153 109.22 677.278 107.06 677.278 104.3C677.278 101.54 676.153 99.38 674.518 97.67L675.658 97.13C677.368 98.855 678.628 101.255 678.628 104.3Z" fill="black"/>
<path d="M314.757 110V105.815L311.442 98.945H313.302L314.577 101.885C314.922 102.71 315.237 103.475 315.612 104.315H315.672C316.032 103.475 316.392 102.71 316.722 101.885L318.012 98.945H319.827L316.497 105.815V110H314.757ZM323.622 110.195C321.582 110.195 319.737 108.62 319.737 105.875C319.737 103.13 321.582 101.54 323.622 101.54C325.662 101.54 327.507 103.13 327.507 105.875C327.507 108.62 325.662 110.195 323.622 110.195ZM323.622 108.785C324.927 108.785 325.737 107.63 325.737 105.875C325.737 104.135 324.927 102.965 323.622 102.965C322.332 102.965 321.522 104.135 321.522 105.875C321.522 107.63 322.332 108.785 323.622 108.785ZM331.965 110.195C330.195 110.195 329.43 109.04 329.43 106.94V101.75H331.155V106.73C331.155 108.14 331.56 108.71 332.535 108.71C333.3 108.71 333.825 108.35 334.515 107.48V101.75H336.24V110H334.83L334.695 108.755H334.65C333.9 109.625 333.09 110.195 331.965 110.195ZM340.9 110V100.415H337.66V98.945H345.895V100.415H342.64V110H340.9ZM349.324 110.195C347.554 110.195 346.789 109.04 346.789 106.94V101.75H348.514V106.73C348.514 108.14 348.919 108.71 349.894 108.71C350.659 108.71 351.184 108.35 351.874 107.48V101.75H353.599V110H352.189L352.054 108.755H352.009C351.259 109.625 350.449 110.195 349.324 110.195ZM360.036 110.195C359.286 110.195 358.461 109.805 357.756 109.145H357.711L357.546 110H356.196V98.045H357.921V101.21L357.861 102.62C358.566 102.005 359.451 101.54 360.321 101.54C362.406 101.54 363.591 103.205 363.591 105.74C363.591 108.575 361.896 110.195 360.036 110.195ZM359.706 108.77C360.906 108.77 361.806 107.705 361.806 105.77C361.806 104.045 361.251 102.98 359.871 102.98C359.226 102.98 358.596 103.31 357.921 103.985V108.02C358.551 108.575 359.196 108.77 359.706 108.77ZM369.064 110.195C366.829 110.195 365.044 108.605 365.044 105.875C365.044 103.205 366.889 101.54 368.809 101.54C370.999 101.54 372.184 103.115 372.184 105.44C372.184 105.785 372.139 106.115 372.094 106.325H366.739C366.874 107.9 367.864 108.845 369.289 108.845C370.024 108.845 370.654 108.62 371.254 108.23L371.854 109.325C371.089 109.835 370.144 110.195 369.064 110.195ZM366.724 105.125H370.684C370.684 103.715 370.039 102.89 368.839 102.89C367.804 102.89 366.889 103.685 366.724 105.125ZM383.786 103.22C383.786 107.09 382.916 109.235 379.406 110.81L378.131 109.61C380.936 108.575 382.256 107.285 382.256 103.31V102.71H378.296V104.96C378.296 105.575 378.341 106.205 378.371 106.415H376.706C376.721 106.205 376.781 105.59 376.781 104.96V102.71H375.311C374.606 102.71 373.991 102.74 373.751 102.77V101.135C373.946 101.18 374.621 101.255 375.311 101.255H376.781V99.53C376.781 99.155 376.751 98.72 376.691 98.33H378.386C378.356 98.525 378.296 98.975 378.296 99.53V101.255H382.256V99.515C382.256 98.915 382.211 98.42 382.181 98.21H383.876C383.846 98.435 383.786 98.915 383.786 99.515V101.255H385.196C385.931 101.255 386.411 101.21 386.696 101.165V102.755C386.456 102.725 385.931 102.71 385.211 102.71H383.786V103.22ZM395.553 98.765C395.388 99.17 395.208 99.62 394.983 100.28C394.533 101.705 393.168 105.95 392.418 107.93C394.458 107.75 396.993 107.465 398.598 107.255C398.028 106.115 397.413 105.02 396.888 104.33L398.343 103.7C399.393 105.275 400.998 108.26 401.643 109.865L400.053 110.585C399.858 110.06 399.588 109.4 399.273 108.71C396.888 108.995 392.088 109.52 390.138 109.7C389.763 109.745 389.268 109.82 388.818 109.88L388.548 108.14C389.013 108.14 389.598 108.14 390.048 108.11C390.228 108.095 390.438 108.095 390.663 108.08C391.503 105.935 392.928 101.45 393.348 99.935C393.558 99.215 393.618 98.81 393.678 98.375L395.553 98.765ZM410.958 97.88C410.913 98.225 410.868 98.795 410.868 99.23V100.115H413.058C413.448 100.115 413.838 100.07 414.123 99.995L415.113 100.94C414.798 101.27 414.408 101.69 414.138 101.99C413.373 102.875 412.158 104.09 410.838 105.035V108.965C410.838 109.52 410.883 110.27 410.913 110.735H409.203C409.263 110.3 409.308 109.52 409.308 108.965V106.01C407.913 106.775 406.293 107.435 404.448 107.975L403.533 106.58C406.398 105.92 408.303 104.915 409.638 104.045C410.898 103.235 411.978 102.2 412.458 101.525H406.578C406.038 101.525 405.153 101.555 404.688 101.585V100.025C405.198 100.085 406.038 100.115 406.548 100.115H409.338V99.23C409.338 98.78 409.308 98.225 409.248 97.88H410.958ZM415.608 108.155C414.303 107.165 413.358 106.55 412.008 105.815L412.983 104.69C414.378 105.44 415.173 105.89 416.598 106.85L415.608 108.155ZM418.653 104.405C421.278 103.7 423.528 102.68 425.193 101.645C426.753 100.685 428.343 99.29 429.363 98.075L430.623 99.275C429.483 100.43 428.073 101.585 426.588 102.56V108.785C426.588 109.4 426.618 110.225 426.693 110.555H424.833C424.878 110.225 424.923 109.4 424.923 108.785V103.565C423.348 104.42 421.368 105.29 419.388 105.89L418.653 104.405ZM440.238 109.67C440.298 109.415 440.343 109.07 440.343 108.725V99.845C440.343 99.23 440.253 98.735 440.253 98.645H441.993C441.978 98.735 441.918 99.23 441.918 99.845V108.14C443.223 107.555 444.918 106.28 445.998 104.69L446.913 105.98C445.638 107.675 443.523 109.25 441.798 110.12C441.528 110.27 441.348 110.405 441.228 110.495L440.238 109.67ZM433.323 109.535C434.628 108.635 435.483 107.27 435.918 105.89C436.353 104.555 436.353 101.63 436.353 99.905C436.353 99.395 436.323 99.035 436.233 98.69H437.973C437.958 98.81 437.898 99.365 437.898 99.89C437.898 101.6 437.838 104.795 437.433 106.295C436.983 107.945 436.038 109.415 434.763 110.495L433.323 109.535Z" fill="black"/>
</g>
<defs>
<clipPath id="clip0_89_4">
<rect width="920" height="210" fill="white"/>
</clipPath>
</defs>
</svg>
