<svg width="920" height="350" viewBox="0 0 920 350" fill="none" xmlns="http://www.w3.org/2000/svg">
<g clip-path="url(#clip0_76_3)">
<rect width="920" height="350" fill="white"/>
<rect width="252.055" height="350.076" fill="#787878"/>
<path d="M252.055 0H504.11V70.0152H252.055V0Z" fill="#D9D9D9"/>
<path d="M252.055 70.0152H504.11V140.03H252.055V70.0152Z" fill="#D9D9D9"/>
<path d="M252.055 70.0152H504.11V140.03H252.055V70.0152Z" fill="white"/>
<path d="M252.055 140.03H504.11V210.046H252.055V140.03Z" fill="#D9D9D9"/>
<path d="M252.055 140.03H504.11V210.046H252.055V140.03Z" fill="white"/>
<path d="M252.055 210.046H504.11V280.061H252.055V210.046Z" fill="#D9D9D9"/>
<path d="M252.055 210.046H504.11V280.061H252.055V210.046Z" fill="white"/>
<path d="M252.055 280.061H504.11V350.076H252.055V280.061Z" fill="#D9D9D9"/>
<path d="M252.055 280.061H504.11V350.076H252.055V280.061Z" fill="white"/>
<path d="M504.11 0H756.164V70.0152H504.11V0Z" fill="#D9D9D9"/>
<path d="M504.11 70.0152H756.164V140.03H504.11V70.0152Z" fill="#D9D9D9"/>
<path d="M504.11 70.0152H756.164V140.03H504.11V70.0152Z" fill="white"/>
<path d="M504.11 140.03H756.164V210.046H504.11V140.03Z" fill="#D9D9D9"/>
<path d="M504.11 140.03H756.164V210.046H504.11V140.03Z" fill="white"/>
<path d="M504.11 210.046H756.164V280.061H504.11V210.046Z" fill="#D9D9D9"/>
<path d="M504.11 210.046H756.164V280.061H504.11V210.046Z" fill="white"/>
<path d="M504.11 280.061H756.164V350.076H504.11V280.061Z" fill="#D9D9D9"/>
<path d="M504.11 280.061H756.164V350.076H504.11V280.061Z" fill="white"/>
<path d="M756.164 0H920V70.0152H756.164V0Z" fill="#D9D9D9"/>
<path d="M756.164 70.0152H920V140.03H756.164V70.0152Z" fill="#D9D9D9"/>
<path d="M756.164 70.0152H920V140.03H756.164V70.0152Z" fill="white"/>
<path d="M756.164 140.03H920V210.046H756.164V140.03Z" fill="#D9D9D9"/>
<path d="M756.164 140.03H920V210.046H756.164V140.03Z" fill="white"/>
<path d="M756.164 210.046H920V280.061H756.164V210.046Z" fill="#D9D9D9"/>
<path d="M756.164 210.046H920V280.061H756.164V210.046Z" fill="white"/>
<path d="M756.164 280.061H920V350.076H756.164V280.061Z" fill="#D9D9D9"/>
<path d="M756.164 280.061H920V350.076H756.164V280.061Z" fill="white"/>
<path d="M919.75 280.311V349.826H756.414V280.311H919.75ZM755.914 280.311V349.826H504.359V280.311H755.914ZM503.859 280.311V349.826H252.305V280.311H503.859ZM919.75 210.296V279.811H756.414V210.296H919.75ZM755.914 210.296V279.811H504.359V210.296H755.914ZM503.859 210.296V279.811H252.305V210.296H503.859ZM919.75 140.28V209.796H756.414V140.28H919.75ZM755.914 140.28V209.796H504.359V140.28H755.914ZM503.859 140.28V209.796H252.305V140.28H503.859ZM919.75 70.2656V139.78H756.414V70.2656H919.75ZM755.914 70.2656V139.78H504.359V70.2656H755.914ZM503.859 70.2656V139.78H252.305V70.2656H503.859ZM919.75 0.25V69.7656H756.414V0.25H919.75ZM755.914 0.25V69.7656H504.359V0.25H755.914ZM503.859 0.25V69.7656H252.305V0.25H503.859Z" stroke="black" stroke-width="0.5"/>
<path d="M583.399 182.195C581.659 182.195 580.534 181.505 579.799 180.68L580.639 179.57C581.284 180.23 582.109 180.785 583.249 180.785C584.494 180.785 585.349 180.095 585.349 178.94C585.349 177.725 584.569 176.93 582.079 176.93V175.655C584.254 175.655 584.974 174.83 584.974 173.72C584.974 172.745 584.329 172.145 583.279 172.13C582.424 172.145 581.704 172.55 581.074 173.165L580.174 172.085C581.044 171.305 582.064 170.75 583.339 170.75C585.319 170.75 586.714 171.785 586.714 173.6C586.714 174.875 585.979 175.76 584.809 176.195V176.27C586.084 176.585 587.089 177.545 587.089 179.03C587.089 181.025 585.424 182.195 583.399 182.195ZM591.954 182.195C590.214 182.195 589.119 181.49 588.339 180.725L589.164 179.6C589.794 180.23 590.589 180.785 591.744 180.785C592.989 180.785 593.934 179.9 593.934 178.43C593.934 176.96 593.094 176.12 591.834 176.12C591.129 176.12 590.709 176.33 590.064 176.75L589.224 176.195L589.554 170.945H595.149V172.415H591.054L590.799 175.25C591.279 175.01 591.714 174.86 592.314 174.86C594.159 174.86 595.674 175.955 595.674 178.37C595.674 180.815 593.889 182.195 591.954 182.195ZM597.674 185L597.284 184.025C598.319 183.605 598.919 182.84 598.919 181.97C598.859 181.985 598.814 181.985 598.754 181.985C598.139 181.985 597.599 181.595 597.599 180.875C597.599 180.2 598.139 179.765 598.799 179.765C599.639 179.765 600.134 180.47 600.134 181.625C600.134 183.2 599.219 184.415 597.674 185ZM605.232 182.195C603.072 182.195 601.662 180.275 601.662 176.435C601.662 172.61 603.072 170.75 605.232 170.75C607.392 170.75 608.802 172.625 608.802 176.435C608.802 180.275 607.392 182.195 605.232 182.195ZM605.232 180.83C606.357 180.83 607.152 179.63 607.152 176.435C607.152 173.27 606.357 172.115 605.232 172.115C604.107 172.115 603.312 173.27 603.312 176.435C603.312 179.63 604.107 180.83 605.232 180.83ZM613.786 182.195C611.626 182.195 610.216 180.275 610.216 176.435C610.216 172.61 611.626 170.75 613.786 170.75C615.946 170.75 617.356 172.625 617.356 176.435C617.356 180.275 615.946 182.195 613.786 182.195ZM613.786 180.83C614.911 180.83 615.706 179.63 615.706 176.435C615.706 173.27 614.911 172.115 613.786 172.115C612.661 172.115 611.866 173.27 611.866 176.435C611.866 179.63 612.661 180.83 613.786 180.83ZM622.341 182.195C620.181 182.195 618.771 180.275 618.771 176.435C618.771 172.61 620.181 170.75 622.341 170.75C624.501 170.75 625.911 172.625 625.911 176.435C625.911 180.275 624.501 182.195 622.341 182.195ZM622.341 180.83C623.466 180.83 624.261 179.63 624.261 176.435C624.261 173.27 623.466 172.115 622.341 172.115C621.216 172.115 620.421 173.27 620.421 176.435C620.421 179.63 621.216 180.83 622.341 180.83ZM634.766 175.88H638.951V171.785H634.766V175.88ZM629.366 171.785V175.88H633.386V171.785H629.366ZM640.361 170.405V181.445C640.361 182.255 640.181 182.675 639.626 182.915C639.086 183.14 638.216 183.17 636.881 183.17C636.821 182.78 636.596 182.15 636.371 181.775C637.331 181.82 638.291 181.805 638.576 181.79C638.861 181.79 638.951 181.7 638.951 181.43V177.26H629.366V183.185H627.971V170.405H640.361ZM651.836 176.3C651.836 173.255 653.096 170.855 654.806 169.13L655.946 169.67C654.311 171.38 653.186 173.54 653.186 176.3C653.186 179.06 654.311 181.22 655.946 182.93L654.806 183.47C653.096 181.745 651.836 179.345 651.836 176.3ZM663.011 177.62L662.201 178.715C661.976 178.295 661.481 177.59 661.031 176.975V183.155H659.681V177.095C659.126 178.46 658.436 179.75 657.761 180.59C657.626 180.2 657.296 179.63 657.086 179.3C657.971 178.28 658.931 176.495 659.501 174.905H657.371V173.585H659.681V171.545C658.991 171.695 658.301 171.8 657.656 171.89C657.596 171.575 657.416 171.11 657.251 170.81C658.916 170.54 660.806 170.105 661.931 169.61L662.891 170.675C662.351 170.885 661.706 171.08 661.031 171.26V173.585H662.786V174.905H661.031V175.595C661.466 175.97 662.741 177.275 663.011 177.62ZM664.646 173.615V176.15H668.906V173.615H664.646ZM668.801 181.73H669.581C669.851 181.73 669.911 181.505 669.941 179.915C670.211 180.125 670.781 180.365 671.141 180.455C671.036 182.465 670.691 182.99 669.731 182.99H668.576C667.421 182.99 667.151 182.57 667.151 181.28V177.38H666.071C665.846 179.9 665.156 182.03 662.531 183.2C662.366 182.87 661.991 182.36 661.691 182.12C663.986 181.16 664.496 179.42 664.706 177.38H663.326V172.4H664.646C664.421 171.71 663.911 170.69 663.401 169.925L664.556 169.43C665.111 170.21 665.696 171.245 665.921 171.95L664.931 172.4H668.696L667.586 171.965C668.051 171.275 668.606 170.195 668.891 169.4L670.316 169.88C669.821 170.78 669.251 171.755 668.786 172.4H670.301V177.38H668.501V181.265C668.501 181.685 668.546 181.73 668.801 181.73ZM677.711 170.105H681.551C681.851 174.53 682.901 178.085 685.931 179.63C685.601 179.855 685.106 180.35 684.836 180.695C682.856 179.525 681.701 177.59 681.026 175.16C680.261 177.59 679.046 179.435 677.276 180.695C677.051 180.425 676.511 179.9 676.181 179.645C678.311 178.325 679.526 176.045 680.081 173.075L680.591 173.15C680.501 172.595 680.441 172.01 680.381 171.425H677.711V170.105ZM676.091 172.055L674.996 172.97C674.516 172.265 673.436 171.26 672.491 170.6L673.526 169.76C674.456 170.405 675.581 171.335 676.091 172.055ZM675.686 175.235V179.975C676.346 181.01 677.576 181.49 679.226 181.55C680.891 181.61 684.221 181.565 686.096 181.445C685.931 181.775 685.706 182.435 685.631 182.87C683.936 182.945 680.921 182.975 679.211 182.9C677.306 182.825 676.016 182.33 675.071 181.175C674.366 181.79 673.646 182.39 672.866 183.035L672.146 181.595C672.821 181.175 673.616 180.62 674.321 180.05V176.525H672.401V175.235H675.686ZM691.406 176.3C691.406 179.345 690.146 181.745 688.436 183.47L687.296 182.93C688.931 181.22 690.056 179.06 690.056 176.3C690.056 173.54 688.931 171.38 687.296 169.67L688.436 169.13C690.146 170.855 691.406 173.255 691.406 176.3Z" fill="black"/>
<path d="M343.276 171.92H337.081V174.455L337.336 174.155C339.046 174.98 341.401 176.315 342.556 177.215L341.536 178.49C340.576 177.68 338.701 176.51 337.081 175.61V183.155H335.596V171.92H330.031V170.495H343.276V171.92ZM355.531 179.615H350.266V180.32H355.531V179.615ZM350.266 181.865H355.531V181.115H350.266V181.865ZM348.916 183.185V178.715H356.926V183.17H355.531V182.765H350.266V183.185H348.916ZM356.101 172.22V171.17H347.656V172.22H356.101ZM351.436 174.2H354.001C354.226 173.945 354.481 173.6 354.676 173.315H350.836C351.091 173.6 351.316 173.93 351.436 174.2ZM356.116 175.775V175.01H353.446V175.775H356.116ZM356.116 177.335V176.555H353.446V177.335H356.116ZM349.591 176.555V177.335H352.156V176.555H349.591ZM349.591 175.01V175.775H352.156V175.01H349.591ZM357.496 170.075V173.315H355.786L356.041 173.39C355.816 173.69 355.561 173.96 355.336 174.2H357.466V178.16H348.286V174.2H350.116C349.966 173.93 349.756 173.66 349.546 173.435L349.876 173.315H347.656V174.425C347.656 176.975 347.446 180.695 345.901 183.125C345.631 182.9 345.016 182.54 344.656 182.405C346.141 180.095 346.261 176.81 346.261 174.425V170.075H357.496ZM369.826 172.925C369.826 173.495 370.291 173.96 370.861 173.96C371.431 173.96 371.896 173.495 371.896 172.925C371.896 172.34 371.431 171.89 370.861 171.89C370.291 171.89 369.826 172.34 369.826 172.925ZM369.001 172.925C369.001 171.875 369.826 171.035 370.861 171.035C371.911 171.035 372.751 171.875 372.751 172.925C372.751 173.96 371.911 174.785 370.861 174.785C369.826 174.785 369.001 173.96 369.001 172.925ZM359.821 177.905C360.241 177.56 360.541 177.275 360.961 176.855C361.666 176.15 362.911 174.56 363.886 173.39C364.726 172.4 365.521 172.235 366.601 173.27C367.546 174.155 368.776 175.445 369.661 176.39C370.681 177.47 372.196 179.105 373.351 180.35L372.046 181.73C370.996 180.47 369.706 178.925 368.776 177.845C367.906 176.84 366.541 175.37 365.941 174.785C365.401 174.26 365.101 174.305 364.636 174.89C363.976 175.7 362.806 177.275 362.146 178.1C361.831 178.535 361.486 179.015 361.246 179.36L359.821 177.905ZM375.601 175.31C376.096 175.34 377.026 175.4 377.836 175.4H385.996C386.716 175.4 387.301 175.34 387.676 175.31V177.17C387.346 177.155 386.656 177.095 385.996 177.095H377.836C377.011 177.095 376.111 177.125 375.601 177.17V175.31ZM399.684 170.66C400.089 171.245 400.719 172.295 401.064 173L400.014 173.45C399.624 172.595 399.189 171.815 398.664 171.095L399.684 170.66ZM401.694 169.94C402.114 170.495 402.744 171.53 403.119 172.22L402.069 172.685C401.649 171.83 401.184 171.08 400.659 170.375L401.694 169.94ZM393.234 170.405C394.164 170.93 395.844 172.04 396.564 172.55L395.664 173.84C394.899 173.285 393.294 172.235 392.379 171.71L393.234 170.405ZM390.744 181.1C392.409 180.815 394.239 180.26 395.814 179.39C398.319 177.965 400.359 175.955 401.559 173.825L402.474 175.415C401.124 177.455 399.039 179.375 396.609 180.8C395.094 181.67 392.994 182.39 391.629 182.645L390.744 181.1ZM390.939 173.81C391.884 174.32 393.594 175.37 394.299 175.865L393.429 177.2C392.649 176.63 391.044 175.61 390.099 175.1L390.939 173.81ZM405.669 174.125H408.084V172.76H406.329C406.134 173.27 405.909 173.75 405.669 174.125ZM409.404 172.76V174.125H412.854V175.4H409.404V176.735H412.404V180.68C412.404 181.25 412.314 181.61 411.924 181.82C411.534 182.03 410.964 182.045 410.184 182.03C410.154 181.685 409.989 181.175 409.809 180.845C410.349 180.86 410.799 180.86 410.949 180.845C411.099 180.845 411.144 180.8 411.144 180.65V177.98H409.404V183.185H408.084V177.98H406.449V181.985H405.204V176.735H408.084V175.4H404.559V174.125H405.594C405.309 173.96 404.754 173.765 404.424 173.645C405.084 172.655 405.579 171.17 405.864 169.745L407.169 170.015C407.049 170.51 406.914 171.02 406.779 171.5H408.084V169.505H409.404V171.5H412.269V172.76H409.404ZM415.059 170.735V179.03H413.769V170.735H415.059ZM416.409 169.625H417.759V181.4C417.759 182.24 417.579 182.63 417.084 182.87C416.604 183.11 415.764 183.14 414.639 183.14C414.579 182.765 414.384 182.12 414.189 181.715C415.029 181.745 415.839 181.745 416.094 181.73C416.334 181.73 416.409 181.655 416.409 181.415V169.625ZM422.964 169.475L424.299 169.895C423.894 170.945 423.384 172.025 422.814 173.03V183.155H421.404V175.235C421.014 175.775 420.594 176.27 420.174 176.705C420.039 176.36 419.634 175.58 419.394 175.265C420.819 173.855 422.154 171.665 422.964 169.475ZM433.269 173.21H428.829V175.115H432.909V176.39H428.829V178.385H433.119V179.69H428.829V183.17H427.404V173.21H426.564C425.934 174.38 425.244 175.43 424.524 176.225C424.299 175.985 423.759 175.49 423.444 175.28C424.764 173.9 425.964 171.74 426.684 169.58L428.019 169.94C427.779 170.585 427.524 171.245 427.239 171.875H433.269V173.21Z" fill="black"/>
<path d="M831.706 172C831.706 172.3 831.811 172.56 832.021 172.78C832.241 172.99 832.506 173.095 832.816 173.095C833.116 173.095 833.371 172.99 833.581 172.78C833.801 172.56 833.911 172.3 833.911 172C833.911 171.69 833.801 171.43 833.581 171.22C833.371 171.01 833.116 170.905 832.816 170.905C832.506 170.905 832.241 171.01 832.021 171.22C831.811 171.43 831.706 171.69 831.706 172ZM830.986 172C830.986 171.66 831.066 171.355 831.226 171.085C831.396 170.805 831.616 170.585 831.886 170.425C832.166 170.255 832.476 170.17 832.816 170.17C833.146 170.17 833.446 170.255 833.716 170.425C833.996 170.585 834.216 170.805 834.376 171.085C834.546 171.355 834.631 171.66 834.631 172C834.631 172.33 834.546 172.635 834.376 172.915C834.216 173.185 833.996 173.405 833.716 173.575C833.446 173.735 833.146 173.815 832.816 173.815C832.476 173.815 832.166 173.735 831.886 173.575C831.616 173.405 831.396 173.185 831.226 172.915C831.066 172.635 830.986 172.33 830.986 172ZM821.941 177.055C822.141 176.885 822.316 176.725 822.466 176.575C822.626 176.425 822.806 176.25 823.006 176.05C823.186 175.87 823.391 175.64 823.621 175.36C823.861 175.08 824.116 174.78 824.386 174.46C824.666 174.13 824.941 173.8 825.211 173.47C825.481 173.13 825.731 172.825 825.961 172.555C826.361 172.085 826.756 171.825 827.146 171.775C827.536 171.715 827.986 171.925 828.496 172.405C828.806 172.685 829.141 173.015 829.501 173.395C829.871 173.765 830.236 174.14 830.596 174.52C830.956 174.9 831.281 175.245 831.571 175.555C831.911 175.905 832.291 176.31 832.711 176.77C833.131 177.22 833.561 177.685 834.001 178.165C834.441 178.635 834.851 179.075 835.231 179.485L834.196 180.58C833.846 180.15 833.471 179.705 833.071 179.245C832.681 178.775 832.291 178.32 831.901 177.88C831.521 177.43 831.171 177.025 830.851 176.665C830.631 176.415 830.386 176.145 830.116 175.855C829.846 175.565 829.576 175.275 829.306 174.985C829.036 174.695 828.781 174.425 828.541 174.175C828.311 173.925 828.116 173.725 827.956 173.575C827.666 173.295 827.426 173.165 827.236 173.185C827.056 173.205 826.836 173.37 826.576 173.68C826.396 173.9 826.191 174.16 825.961 174.46C825.731 174.75 825.491 175.055 825.241 175.375C824.991 175.695 824.751 176 824.521 176.29C824.291 176.58 824.091 176.83 823.921 177.04C823.771 177.23 823.616 177.43 823.456 177.64C823.306 177.85 823.176 178.035 823.066 178.195L821.941 177.055ZM837.676 174.505C837.826 174.515 838.011 174.53 838.231 174.55C838.451 174.56 838.691 174.57 838.951 174.58C839.221 174.58 839.491 174.58 839.761 174.58C839.921 174.58 840.166 174.58 840.496 174.58C840.836 174.58 841.231 174.58 841.681 174.58C842.131 174.58 842.606 174.58 843.106 174.58C843.616 174.58 844.121 174.58 844.621 174.58C845.131 174.58 845.611 174.58 846.061 174.58C846.521 174.58 846.916 174.58 847.246 174.58C847.576 174.58 847.821 174.58 847.981 174.58C848.361 174.58 848.686 174.57 848.956 174.55C849.226 174.53 849.441 174.515 849.601 174.505V175.975C849.451 175.965 849.226 175.95 848.926 175.93C848.636 175.91 848.326 175.9 847.996 175.9C847.836 175.9 847.586 175.9 847.246 175.9C846.906 175.9 846.511 175.9 846.061 175.9C845.621 175.9 845.146 175.9 844.636 175.9C844.126 175.9 843.616 175.9 843.106 175.9C842.606 175.9 842.131 175.9 841.681 175.9C841.241 175.9 840.851 175.9 840.511 175.9C840.171 175.9 839.921 175.9 839.761 175.9C839.351 175.9 838.961 175.91 838.591 175.93C838.221 175.94 837.916 175.955 837.676 175.975V174.505ZM861.594 169.81C861.724 169.98 861.874 170.205 862.044 170.485C862.224 170.765 862.399 171.05 862.569 171.34C862.739 171.63 862.879 171.895 862.989 172.135L862.134 172.525C862.014 172.265 861.879 172 861.729 171.73C861.579 171.45 861.424 171.175 861.264 170.905C861.104 170.635 860.939 170.385 860.769 170.155L861.594 169.81ZM863.559 169.09C863.699 169.26 863.854 169.48 864.024 169.75C864.194 170.02 864.369 170.3 864.549 170.59C864.729 170.88 864.879 171.145 864.999 171.385L864.144 171.775C864.014 171.505 863.869 171.235 863.709 170.965C863.549 170.695 863.384 170.43 863.214 170.17C863.054 169.91 862.889 169.67 862.719 169.45L863.559 169.09ZM855.189 169.585C855.409 169.705 855.669 169.865 855.969 170.065C856.269 170.255 856.579 170.455 856.899 170.665C857.219 170.865 857.514 171.06 857.784 171.25C858.064 171.43 858.284 171.58 858.444 171.7L857.739 172.735C857.559 172.595 857.329 172.43 857.049 172.24C856.779 172.05 856.489 171.855 856.179 171.655C855.879 171.445 855.579 171.25 855.279 171.07C854.989 170.88 854.734 170.72 854.514 170.59L855.189 169.585ZM852.939 180.31C853.489 180.21 854.054 180.08 854.634 179.92C855.214 179.76 855.789 179.565 856.359 179.335C856.929 179.105 857.464 178.85 857.964 178.57C858.794 178.09 859.564 177.56 860.274 176.98C860.984 176.39 861.624 175.765 862.194 175.105C862.764 174.445 863.249 173.765 863.649 173.065L864.369 174.31C863.719 175.31 862.894 176.28 861.894 177.22C860.894 178.15 859.794 178.965 858.594 179.665C858.094 179.955 857.544 180.225 856.944 180.475C856.354 180.715 855.769 180.925 855.189 181.105C854.619 181.295 854.099 181.435 853.629 181.525L852.939 180.31ZM852.924 172.96C853.144 173.08 853.409 173.23 853.719 173.41C854.029 173.59 854.344 173.78 854.664 173.98C854.984 174.18 855.279 174.37 855.549 174.55C855.829 174.72 856.049 174.865 856.209 174.985L855.534 176.035C855.344 175.895 855.109 175.735 854.829 175.555C854.559 175.375 854.269 175.185 853.959 174.985C853.649 174.785 853.344 174.6 853.044 174.43C852.744 174.25 852.479 174.1 852.249 173.98L852.924 172.96Z" fill="black"/>
<path d="M580.039 250V248.995C583.294 246.115 584.974 243.97 584.974 242.155C584.974 240.955 584.344 240.13 583.099 240.13C582.229 240.13 581.509 240.685 580.924 241.36L579.949 240.4C580.894 239.365 581.869 238.75 583.309 238.75C585.334 238.75 586.639 240.07 586.639 242.065C586.639 244.195 584.944 246.4 582.604 248.635C583.174 248.575 583.864 248.53 584.404 248.53H587.164V250H580.039ZM592.209 250.195C590.049 250.195 588.639 248.275 588.639 244.435C588.639 240.61 590.049 238.75 592.209 238.75C594.369 238.75 595.779 240.625 595.779 244.435C595.779 248.275 594.369 250.195 592.209 250.195ZM592.209 248.83C593.334 248.83 594.129 247.63 594.129 244.435C594.129 241.27 593.334 240.115 592.209 240.115C591.084 240.115 590.289 241.27 590.289 244.435C590.289 247.63 591.084 248.83 592.209 248.83ZM597.674 253L597.284 252.025C598.319 251.605 598.919 250.84 598.919 249.97C598.859 249.985 598.814 249.985 598.754 249.985C598.139 249.985 597.599 249.595 597.599 248.875C597.599 248.2 598.139 247.765 598.799 247.765C599.639 247.765 600.134 248.47 600.134 249.625C600.134 251.2 599.219 252.415 597.674 253ZM605.232 250.195C603.072 250.195 601.662 248.275 601.662 244.435C601.662 240.61 603.072 238.75 605.232 238.75C607.392 238.75 608.802 240.625 608.802 244.435C608.802 248.275 607.392 250.195 605.232 250.195ZM605.232 248.83C606.357 248.83 607.152 247.63 607.152 244.435C607.152 241.27 606.357 240.115 605.232 240.115C604.107 240.115 603.312 241.27 603.312 244.435C603.312 247.63 604.107 248.83 605.232 248.83ZM613.786 250.195C611.626 250.195 610.216 248.275 610.216 244.435C610.216 240.61 611.626 238.75 613.786 238.75C615.946 238.75 617.356 240.625 617.356 244.435C617.356 248.275 615.946 250.195 613.786 250.195ZM613.786 248.83C614.911 248.83 615.706 247.63 615.706 244.435C615.706 241.27 614.911 240.115 613.786 240.115C612.661 240.115 611.866 241.27 611.866 244.435C611.866 247.63 612.661 248.83 613.786 248.83ZM622.341 250.195C620.181 250.195 618.771 248.275 618.771 244.435C618.771 240.61 620.181 238.75 622.341 238.75C624.501 238.75 625.911 240.625 625.911 244.435C625.911 248.275 624.501 250.195 622.341 250.195ZM622.341 248.83C623.466 248.83 624.261 247.63 624.261 244.435C624.261 241.27 623.466 240.115 622.341 240.115C621.216 240.115 620.421 241.27 620.421 244.435C620.421 247.63 621.216 248.83 622.341 248.83ZM634.766 243.88H638.951V239.785H634.766V243.88ZM629.366 239.785V243.88H633.386V239.785H629.366ZM640.361 238.405V249.445C640.361 250.255 640.181 250.675 639.626 250.915C639.086 251.14 638.216 251.17 636.881 251.17C636.821 250.78 636.596 250.15 636.371 249.775C637.331 249.82 638.291 249.805 638.576 249.79C638.861 249.79 638.951 249.7 638.951 249.43V245.26H629.366V251.185H627.971V238.405H640.361ZM651.836 244.3C651.836 241.255 653.096 238.855 654.806 237.13L655.946 237.67C654.311 239.38 653.186 241.54 653.186 244.3C653.186 247.06 654.311 249.22 655.946 250.93L654.806 251.47C653.096 249.745 651.836 247.345 651.836 244.3ZM663.011 245.62L662.201 246.715C661.976 246.295 661.481 245.59 661.031 244.975V251.155H659.681V245.095C659.126 246.46 658.436 247.75 657.761 248.59C657.626 248.2 657.296 247.63 657.086 247.3C657.971 246.28 658.931 244.495 659.501 242.905H657.371V241.585H659.681V239.545C658.991 239.695 658.301 239.8 657.656 239.89C657.596 239.575 657.416 239.11 657.251 238.81C658.916 238.54 660.806 238.105 661.931 237.61L662.891 238.675C662.351 238.885 661.706 239.08 661.031 239.26V241.585H662.786V242.905H661.031V243.595C661.466 243.97 662.741 245.275 663.011 245.62ZM664.646 241.615V244.15H668.906V241.615H664.646ZM668.801 249.73H669.581C669.851 249.73 669.911 249.505 669.941 247.915C670.211 248.125 670.781 248.365 671.141 248.455C671.036 250.465 670.691 250.99 669.731 250.99H668.576C667.421 250.99 667.151 250.57 667.151 249.28V245.38H666.071C665.846 247.9 665.156 250.03 662.531 251.2C662.366 250.87 661.991 250.36 661.691 250.12C663.986 249.16 664.496 247.42 664.706 245.38H663.326V240.4H664.646C664.421 239.71 663.911 238.69 663.401 237.925L664.556 237.43C665.111 238.21 665.696 239.245 665.921 239.95L664.931 240.4H668.696L667.586 239.965C668.051 239.275 668.606 238.195 668.891 237.4L670.316 237.88C669.821 238.78 669.251 239.755 668.786 240.4H670.301V245.38H668.501V249.265C668.501 249.685 668.546 249.73 668.801 249.73ZM677.711 238.105H681.551C681.851 242.53 682.901 246.085 685.931 247.63C685.601 247.855 685.106 248.35 684.836 248.695C682.856 247.525 681.701 245.59 681.026 243.16C680.261 245.59 679.046 247.435 677.276 248.695C677.051 248.425 676.511 247.9 676.181 247.645C678.311 246.325 679.526 244.045 680.081 241.075L680.591 241.15C680.501 240.595 680.441 240.01 680.381 239.425H677.711V238.105ZM676.091 240.055L674.996 240.97C674.516 240.265 673.436 239.26 672.491 238.6L673.526 237.76C674.456 238.405 675.581 239.335 676.091 240.055ZM675.686 243.235V247.975C676.346 249.01 677.576 249.49 679.226 249.55C680.891 249.61 684.221 249.565 686.096 249.445C685.931 249.775 685.706 250.435 685.631 250.87C683.936 250.945 680.921 250.975 679.211 250.9C677.306 250.825 676.016 250.33 675.071 249.175C674.366 249.79 673.646 250.39 672.866 251.035L672.146 249.595C672.821 249.175 673.616 248.62 674.321 248.05V244.525H672.401V243.235H675.686ZM691.406 244.3C691.406 247.345 690.146 249.745 688.436 251.47L687.296 250.93C688.931 249.22 690.056 247.06 690.056 244.3C690.056 241.54 688.931 239.38 687.296 237.67L688.436 237.13C690.146 238.855 691.406 241.255 691.406 244.3Z" fill="black"/>
<path d="M334.861 242.095H332.041V242.77H334.861V242.095ZM332.041 244.285H334.861V243.58H332.041V244.285ZM336.136 245.125H332.041V251.17H330.766V241.24H336.136V245.125ZM338.206 246.625H335.131V247.435H338.206V246.625ZM335.131 249.085H338.206V248.26H335.131V249.085ZM339.436 249.925H335.131V250.45H333.871V245.815H339.436V249.925ZM338.476 244.285H341.416V243.58H338.476V244.285ZM341.416 242.095H338.476V242.77H341.416V242.095ZM342.736 241.24V249.685C342.736 250.375 342.571 250.75 342.106 250.96C341.626 251.155 340.861 251.17 339.766 251.17C339.706 250.825 339.526 250.27 339.346 249.94C340.111 249.97 340.891 249.97 341.116 249.955C341.356 249.955 341.416 249.88 341.416 249.67V245.125H337.216V241.24H342.736ZM338.761 238.51H343.351V239.605H340.516C340.816 239.98 341.086 240.4 341.236 240.715L339.991 241.09C339.826 240.7 339.436 240.1 339.046 239.605H338.041C337.636 240.145 337.201 240.61 336.766 240.985C336.466 240.775 335.881 240.445 335.536 240.295C335.821 240.1 336.091 239.86 336.346 239.605H333.901C334.126 239.995 334.321 240.4 334.441 240.7L333.226 241.06C333.106 240.685 332.821 240.1 332.536 239.605H332.116C331.711 240.19 331.276 240.715 330.856 241.12C330.586 240.895 330.046 240.535 329.716 240.355C330.616 239.605 331.426 238.465 331.891 237.325L333.196 237.67C333.076 237.955 332.941 238.24 332.791 238.51H336.436V239.515C337.036 238.885 337.546 238.12 337.846 237.325L339.181 237.655C339.061 237.94 338.911 238.225 338.761 238.51ZM348.286 241.525V242.785H355.156V241.525H348.286ZM348.286 239.23V240.445H355.156V239.23H348.286ZM349.246 245.035H357.676C357.676 245.035 357.646 245.41 357.616 245.605C357.316 248.905 357.001 250.225 356.536 250.705C356.221 251.02 355.891 251.14 355.441 251.17C355.036 251.215 354.331 251.215 353.596 251.17C353.566 250.825 353.431 250.315 353.221 249.985C353.911 250.06 354.556 250.06 354.826 250.06C355.081 250.06 355.216 250.03 355.366 249.88C355.666 249.61 355.936 248.59 356.161 246.25H354.586C353.791 248.32 352.516 250.105 351.121 251.275C350.896 251.035 350.326 250.6 350.026 250.405C351.346 249.445 352.441 247.96 353.146 246.25H351.451C350.341 248.155 348.661 249.79 346.966 250.87C346.741 250.6 346.231 250.105 345.916 249.865C347.461 249.025 348.901 247.75 349.876 246.25H348.136C347.371 247 346.546 247.645 345.766 248.155C345.541 247.885 345.016 247.39 344.701 247.165C346.111 246.385 347.491 245.23 348.421 243.91H346.921V238.09H356.581V243.91H350.056C349.801 244.3 349.531 244.66 349.246 245.035ZM369.826 240.925C369.826 241.495 370.291 241.96 370.861 241.96C371.431 241.96 371.896 241.495 371.896 240.925C371.896 240.34 371.431 239.89 370.861 239.89C370.291 239.89 369.826 240.34 369.826 240.925ZM369.001 240.925C369.001 239.875 369.826 239.035 370.861 239.035C371.911 239.035 372.751 239.875 372.751 240.925C372.751 241.96 371.911 242.785 370.861 242.785C369.826 242.785 369.001 241.96 369.001 240.925ZM359.821 245.905C360.241 245.56 360.541 245.275 360.961 244.855C361.666 244.15 362.911 242.56 363.886 241.39C364.726 240.4 365.521 240.235 366.601 241.27C367.546 242.155 368.776 243.445 369.661 244.39C370.681 245.47 372.196 247.105 373.351 248.35L372.046 249.73C370.996 248.47 369.706 246.925 368.776 245.845C367.906 244.84 366.541 243.37 365.941 242.785C365.401 242.26 365.101 242.305 364.636 242.89C363.976 243.7 362.806 245.275 362.146 246.1C361.831 246.535 361.486 247.015 361.246 247.36L359.821 245.905ZM375.601 243.31C376.096 243.34 377.026 243.4 377.836 243.4H385.996C386.716 243.4 387.301 243.34 387.676 243.31V245.17C387.346 245.155 386.656 245.095 385.996 245.095H377.836C377.011 245.095 376.111 245.125 375.601 245.17V243.31ZM399.684 238.66C400.089 239.245 400.719 240.295 401.064 241L400.014 241.45C399.624 240.595 399.189 239.815 398.664 239.095L399.684 238.66ZM401.694 237.94C402.114 238.495 402.744 239.53 403.119 240.22L402.069 240.685C401.649 239.83 401.184 239.08 400.659 238.375L401.694 237.94ZM393.234 238.405C394.164 238.93 395.844 240.04 396.564 240.55L395.664 241.84C394.899 241.285 393.294 240.235 392.379 239.71L393.234 238.405ZM390.744 249.1C392.409 248.815 394.239 248.26 395.814 247.39C398.319 245.965 400.359 243.955 401.559 241.825L402.474 243.415C401.124 245.455 399.039 247.375 396.609 248.8C395.094 249.67 392.994 250.39 391.629 250.645L390.744 249.1ZM390.939 241.81C391.884 242.32 393.594 243.37 394.299 243.865L393.429 245.2C392.649 244.63 391.044 243.61 390.099 243.1L390.939 241.81ZM405.669 242.125H408.084V240.76H406.329C406.134 241.27 405.909 241.75 405.669 242.125ZM409.404 240.76V242.125H412.854V243.4H409.404V244.735H412.404V248.68C412.404 249.25 412.314 249.61 411.924 249.82C411.534 250.03 410.964 250.045 410.184 250.03C410.154 249.685 409.989 249.175 409.809 248.845C410.349 248.86 410.799 248.86 410.949 248.845C411.099 248.845 411.144 248.8 411.144 248.65V245.98H409.404V251.185H408.084V245.98H406.449V249.985H405.204V244.735H408.084V243.4H404.559V242.125H405.594C405.309 241.96 404.754 241.765 404.424 241.645C405.084 240.655 405.579 239.17 405.864 237.745L407.169 238.015C407.049 238.51 406.914 239.02 406.779 239.5H408.084V237.505H409.404V239.5H412.269V240.76H409.404ZM415.059 238.735V247.03H413.769V238.735H415.059ZM416.409 237.625H417.759V249.4C417.759 250.24 417.579 250.63 417.084 250.87C416.604 251.11 415.764 251.14 414.639 251.14C414.579 250.765 414.384 250.12 414.189 249.715C415.029 249.745 415.839 249.745 416.094 249.73C416.334 249.73 416.409 249.655 416.409 249.415V237.625ZM422.964 237.475L424.299 237.895C423.894 238.945 423.384 240.025 422.814 241.03V251.155H421.404V243.235C421.014 243.775 420.594 244.27 420.174 244.705C420.039 244.36 419.634 243.58 419.394 243.265C420.819 241.855 422.154 239.665 422.964 237.475ZM433.269 241.21H428.829V243.115H432.909V244.39H428.829V246.385H433.119V247.69H428.829V251.17H427.404V241.21H426.564C425.934 242.38 425.244 243.43 424.524 244.225C424.299 243.985 423.759 243.49 423.444 243.28C424.764 241.9 425.964 239.74 426.684 237.58L428.019 237.94C427.779 238.585 427.524 239.245 427.239 239.875H433.269V241.21Z" fill="black"/>
<path d="M831.706 240C831.706 240.3 831.811 240.56 832.021 240.78C832.241 240.99 832.506 241.095 832.816 241.095C833.116 241.095 833.371 240.99 833.581 240.78C833.801 240.56 833.911 240.3 833.911 240C833.911 239.69 833.801 239.43 833.581 239.22C833.371 239.01 833.116 238.905 832.816 238.905C832.506 238.905 832.241 239.01 832.021 239.22C831.811 239.43 831.706 239.69 831.706 240ZM830.986 240C830.986 239.66 831.066 239.355 831.226 239.085C831.396 238.805 831.616 238.585 831.886 238.425C832.166 238.255 832.476 238.17 832.816 238.17C833.146 238.17 833.446 238.255 833.716 238.425C833.996 238.585 834.216 238.805 834.376 239.085C834.546 239.355 834.631 239.66 834.631 240C834.631 240.33 834.546 240.635 834.376 240.915C834.216 241.185 833.996 241.405 833.716 241.575C833.446 241.735 833.146 241.815 832.816 241.815C832.476 241.815 832.166 241.735 831.886 241.575C831.616 241.405 831.396 241.185 831.226 240.915C831.066 240.635 830.986 240.33 830.986 240ZM821.941 245.055C822.141 244.885 822.316 244.725 822.466 244.575C822.626 244.425 822.806 244.25 823.006 244.05C823.186 243.87 823.391 243.64 823.621 243.36C823.861 243.08 824.116 242.78 824.386 242.46C824.666 242.13 824.941 241.8 825.211 241.47C825.481 241.13 825.731 240.825 825.961 240.555C826.361 240.085 826.756 239.825 827.146 239.775C827.536 239.715 827.986 239.925 828.496 240.405C828.806 240.685 829.141 241.015 829.501 241.395C829.871 241.765 830.236 242.14 830.596 242.52C830.956 242.9 831.281 243.245 831.571 243.555C831.911 243.905 832.291 244.31 832.711 244.77C833.131 245.22 833.561 245.685 834.001 246.165C834.441 246.635 834.851 247.075 835.231 247.485L834.196 248.58C833.846 248.15 833.471 247.705 833.071 247.245C832.681 246.775 832.291 246.32 831.901 245.88C831.521 245.43 831.171 245.025 830.851 244.665C830.631 244.415 830.386 244.145 830.116 243.855C829.846 243.565 829.576 243.275 829.306 242.985C829.036 242.695 828.781 242.425 828.541 242.175C828.311 241.925 828.116 241.725 827.956 241.575C827.666 241.295 827.426 241.165 827.236 241.185C827.056 241.205 826.836 241.37 826.576 241.68C826.396 241.9 826.191 242.16 825.961 242.46C825.731 242.75 825.491 243.055 825.241 243.375C824.991 243.695 824.751 244 824.521 244.29C824.291 244.58 824.091 244.83 823.921 245.04C823.771 245.23 823.616 245.43 823.456 245.64C823.306 245.85 823.176 246.035 823.066 246.195L821.941 245.055ZM837.676 242.505C837.826 242.515 838.011 242.53 838.231 242.55C838.451 242.56 838.691 242.57 838.951 242.58C839.221 242.58 839.491 242.58 839.761 242.58C839.921 242.58 840.166 242.58 840.496 242.58C840.836 242.58 841.231 242.58 841.681 242.58C842.131 242.58 842.606 242.58 843.106 242.58C843.616 242.58 844.121 242.58 844.621 242.58C845.131 242.58 845.611 242.58 846.061 242.58C846.521 242.58 846.916 242.58 847.246 242.58C847.576 242.58 847.821 242.58 847.981 242.58C848.361 242.58 848.686 242.57 848.956 242.55C849.226 242.53 849.441 242.515 849.601 242.505V243.975C849.451 243.965 849.226 243.95 848.926 243.93C848.636 243.91 848.326 243.9 847.996 243.9C847.836 243.9 847.586 243.9 847.246 243.9C846.906 243.9 846.511 243.9 846.061 243.9C845.621 243.9 845.146 243.9 844.636 243.9C844.126 243.9 843.616 243.9 843.106 243.9C842.606 243.9 842.131 243.9 841.681 243.9C841.241 243.9 840.851 243.9 840.511 243.9C840.171 243.9 839.921 243.9 839.761 243.9C839.351 243.9 838.961 243.91 838.591 243.93C838.221 243.94 837.916 243.955 837.676 243.975V242.505ZM861.594 237.81C861.724 237.98 861.874 238.205 862.044 238.485C862.224 238.765 862.399 239.05 862.569 239.34C862.739 239.63 862.879 239.895 862.989 240.135L862.134 240.525C862.014 240.265 861.879 240 861.729 239.73C861.579 239.45 861.424 239.175 861.264 238.905C861.104 238.635 860.939 238.385 860.769 238.155L861.594 237.81ZM863.559 237.09C863.699 237.26 863.854 237.48 864.024 237.75C864.194 238.02 864.369 238.3 864.549 238.59C864.729 238.88 864.879 239.145 864.999 239.385L864.144 239.775C864.014 239.505 863.869 239.235 863.709 238.965C863.549 238.695 863.384 238.43 863.214 238.17C863.054 237.91 862.889 237.67 862.719 237.45L863.559 237.09ZM855.189 237.585C855.409 237.705 855.669 237.865 855.969 238.065C856.269 238.255 856.579 238.455 856.899 238.665C857.219 238.865 857.514 239.06 857.784 239.25C858.064 239.43 858.284 239.58 858.444 239.7L857.739 240.735C857.559 240.595 857.329 240.43 857.049 240.24C856.779 240.05 856.489 239.855 856.179 239.655C855.879 239.445 855.579 239.25 855.279 239.07C854.989 238.88 854.734 238.72 854.514 238.59L855.189 237.585ZM852.939 248.31C853.489 248.21 854.054 248.08 854.634 247.92C855.214 247.76 855.789 247.565 856.359 247.335C856.929 247.105 857.464 246.85 857.964 246.57C858.794 246.09 859.564 245.56 860.274 244.98C860.984 244.39 861.624 243.765 862.194 243.105C862.764 242.445 863.249 241.765 863.649 241.065L864.369 242.31C863.719 243.31 862.894 244.28 861.894 245.22C860.894 246.15 859.794 246.965 858.594 247.665C858.094 247.955 857.544 248.225 856.944 248.475C856.354 248.715 855.769 248.925 855.189 249.105C854.619 249.295 854.099 249.435 853.629 249.525L852.939 248.31ZM852.924 240.96C853.144 241.08 853.409 241.23 853.719 241.41C854.029 241.59 854.344 241.78 854.664 241.98C854.984 242.18 855.279 242.37 855.549 242.55C855.829 242.72 856.049 242.865 856.209 242.985L855.534 244.035C855.344 243.895 855.109 243.735 854.829 243.555C854.559 243.375 854.269 243.185 853.959 242.985C853.649 242.785 853.344 242.6 853.044 242.43C852.744 242.25 852.479 242.1 852.249 241.98L852.924 240.96Z" fill="black"/>
<path d="M582.392 112V110.575H584.807V102.895H582.827V101.8C583.862 101.605 584.597 101.35 585.227 100.945H586.532V110.575H588.692V112H582.392ZM593.932 112.195C591.772 112.195 590.362 110.275 590.362 106.435C590.362 102.61 591.772 100.75 593.932 100.75C596.092 100.75 597.502 102.625 597.502 106.435C597.502 110.275 596.092 112.195 593.932 112.195ZM593.932 110.83C595.057 110.83 595.852 109.63 595.852 106.435C595.852 103.27 595.057 102.115 593.932 102.115C592.807 102.115 592.012 103.27 592.012 106.435C592.012 109.63 592.807 110.83 593.932 110.83ZM602.486 112.195C600.326 112.195 598.916 110.275 598.916 106.435C598.916 102.61 600.326 100.75 602.486 100.75C604.646 100.75 606.056 102.625 606.056 106.435C606.056 110.275 604.646 112.195 602.486 112.195ZM602.486 110.83C603.611 110.83 604.406 109.63 604.406 106.435C604.406 103.27 603.611 102.115 602.486 102.115C601.361 102.115 600.566 103.27 600.566 106.435C600.566 109.63 601.361 110.83 602.486 110.83ZM607.951 115L607.561 114.025C608.596 113.605 609.196 112.84 609.196 111.97C609.136 111.985 609.091 111.985 609.031 111.985C608.416 111.985 607.876 111.595 607.876 110.875C607.876 110.2 608.416 109.765 609.076 109.765C609.916 109.765 610.411 110.47 610.411 111.625C610.411 113.2 609.496 114.415 607.951 115ZM615.509 112.195C613.349 112.195 611.939 110.275 611.939 106.435C611.939 102.61 613.349 100.75 615.509 100.75C617.669 100.75 619.079 102.625 619.079 106.435C619.079 110.275 617.669 112.195 615.509 112.195ZM615.509 110.83C616.634 110.83 617.429 109.63 617.429 106.435C617.429 103.27 616.634 102.115 615.509 102.115C614.384 102.115 613.589 103.27 613.589 106.435C613.589 109.63 614.384 110.83 615.509 110.83ZM624.064 112.195C621.904 112.195 620.494 110.275 620.494 106.435C620.494 102.61 621.904 100.75 624.064 100.75C626.224 100.75 627.634 102.625 627.634 106.435C627.634 110.275 626.224 112.195 624.064 112.195ZM624.064 110.83C625.189 110.83 625.984 109.63 625.984 106.435C625.984 103.27 625.189 102.115 624.064 102.115C622.939 102.115 622.144 103.27 622.144 106.435C622.144 109.63 622.939 110.83 624.064 110.83ZM632.618 112.195C630.458 112.195 629.048 110.275 629.048 106.435C629.048 102.61 630.458 100.75 632.618 100.75C634.778 100.75 636.188 102.625 636.188 106.435C636.188 110.275 634.778 112.195 632.618 112.195ZM632.618 110.83C633.743 110.83 634.538 109.63 634.538 106.435C634.538 103.27 633.743 102.115 632.618 102.115C631.493 102.115 630.698 103.27 630.698 106.435C630.698 109.63 631.493 110.83 632.618 110.83ZM645.043 105.88H649.228V101.785H645.043V105.88ZM639.643 101.785V105.88H643.663V101.785H639.643ZM650.638 100.405V111.445C650.638 112.255 650.458 112.675 649.903 112.915C649.363 113.14 648.493 113.17 647.158 113.17C647.098 112.78 646.873 112.15 646.648 111.775C647.608 111.82 648.568 111.805 648.853 111.79C649.138 111.79 649.228 111.7 649.228 111.43V107.26H639.643V113.185H638.248V100.405H650.638ZM662.113 106.3C662.113 103.255 663.373 100.855 665.083 99.13L666.223 99.67C664.588 101.38 663.463 103.54 663.463 106.3C663.463 109.06 664.588 111.22 666.223 112.93L665.083 113.47C663.373 111.745 662.113 109.345 662.113 106.3ZM673.288 107.62L672.478 108.715C672.253 108.295 671.758 107.59 671.308 106.975V113.155H669.958V107.095C669.403 108.46 668.713 109.75 668.038 110.59C667.903 110.2 667.573 109.63 667.363 109.3C668.248 108.28 669.208 106.495 669.778 104.905H667.648V103.585H669.958V101.545C669.268 101.695 668.578 101.8 667.933 101.89C667.873 101.575 667.693 101.11 667.528 100.81C669.193 100.54 671.083 100.105 672.208 99.61L673.168 100.675C672.628 100.885 671.983 101.08 671.308 101.26V103.585H673.063V104.905H671.308V105.595C671.743 105.97 673.018 107.275 673.288 107.62ZM674.923 103.615V106.15H679.183V103.615H674.923ZM679.078 111.73H679.858C680.128 111.73 680.188 111.505 680.218 109.915C680.488 110.125 681.058 110.365 681.418 110.455C681.313 112.465 680.968 112.99 680.008 112.99H678.853C677.698 112.99 677.428 112.57 677.428 111.28V107.38H676.348C676.123 109.9 675.433 112.03 672.808 113.2C672.643 112.87 672.268 112.36 671.968 112.12C674.263 111.16 674.773 109.42 674.983 107.38H673.603V102.4H674.923C674.698 101.71 674.188 100.69 673.678 99.925L674.833 99.43C675.388 100.21 675.973 101.245 676.198 101.95L675.208 102.4H678.973L677.863 101.965C678.328 101.275 678.883 100.195 679.168 99.4L680.593 99.88C680.098 100.78 679.528 101.755 679.063 102.4H680.578V107.38H678.778V111.265C678.778 111.685 678.823 111.73 679.078 111.73ZM687.988 100.105H691.828C692.128 104.53 693.178 108.085 696.208 109.63C695.878 109.855 695.383 110.35 695.113 110.695C693.133 109.525 691.978 107.59 691.303 105.16C690.538 107.59 689.323 109.435 687.553 110.695C687.328 110.425 686.788 109.9 686.458 109.645C688.588 108.325 689.803 106.045 690.358 103.075L690.868 103.15C690.778 102.595 690.718 102.01 690.658 101.425H687.988V100.105ZM686.368 102.055L685.273 102.97C684.793 102.265 683.713 101.26 682.768 100.6L683.803 99.76C684.733 100.405 685.858 101.335 686.368 102.055ZM685.963 105.235V109.975C686.623 111.01 687.853 111.49 689.503 111.55C691.168 111.61 694.498 111.565 696.373 111.445C696.208 111.775 695.983 112.435 695.908 112.87C694.213 112.945 691.198 112.975 689.488 112.9C687.583 112.825 686.293 112.33 685.348 111.175C684.643 111.79 683.923 112.39 683.143 113.035L682.423 111.595C683.098 111.175 683.893 110.62 684.598 110.05V106.525H682.678V105.235H685.963ZM701.683 106.3C701.683 109.345 700.423 111.745 698.713 113.47L697.573 112.93C699.208 111.22 700.333 109.06 700.333 106.3C700.333 103.54 699.208 101.38 697.573 99.67L698.713 99.13C700.423 100.855 701.683 103.255 701.683 106.3Z" fill="black"/>
<path d="M327.051 110.62V101.95C327.051 101.47 327.006 100.78 326.916 100.27H328.761C328.716 100.765 328.656 101.425 328.656 101.95V104.29C330.651 104.89 333.501 105.955 335.001 106.69L334.326 108.325C332.751 107.47 330.306 106.525 328.656 105.985V110.62C328.656 111.085 328.701 112 328.776 112.54H326.931C327.006 112.015 327.051 111.205 327.051 110.62ZM344.541 103.24C344.811 103.87 345.546 105.835 345.741 106.495L344.331 107.005C344.151 106.3 343.476 104.425 343.131 103.705L344.541 103.24ZM350.016 104.2C349.881 104.575 349.791 104.845 349.731 105.085C349.326 106.69 348.681 108.28 347.631 109.615C346.251 111.385 344.391 112.6 342.696 113.245L341.451 111.97C343.146 111.49 345.126 110.35 346.371 108.805C347.406 107.515 348.156 105.565 348.366 103.675L350.016 104.2ZM341.046 104.02C341.391 104.71 342.141 106.6 342.426 107.425L341.001 107.95C340.746 107.155 339.966 105.115 339.636 104.53L341.046 104.02ZM364.221 101.125C364.221 101.635 364.641 102.055 365.151 102.055C365.661 102.055 366.096 101.635 366.096 101.125C366.096 100.615 365.661 100.18 365.151 100.18C364.641 100.18 364.221 100.615 364.221 101.125ZM363.426 101.125C363.426 100.18 364.191 99.4 365.151 99.4C366.111 99.4 366.891 100.18 366.891 101.125C366.891 102.085 366.111 102.85 365.151 102.85C365.016 102.85 364.881 102.835 364.746 102.805C364.731 102.895 364.701 103 364.686 103.09C364.341 104.62 363.651 106.99 362.436 108.595C361.071 110.365 359.196 111.805 356.481 112.66L355.191 111.25C358.116 110.53 359.811 109.24 361.056 107.68C362.076 106.36 362.721 104.44 362.931 103.075H355.551C354.921 103.075 354.321 103.105 353.931 103.135V101.455C354.351 101.5 355.056 101.56 355.551 101.56H362.826C363.006 101.56 363.231 101.56 363.471 101.53C363.441 101.395 363.426 101.26 363.426 101.125ZM377.826 102.925C377.826 103.495 378.291 103.96 378.861 103.96C379.431 103.96 379.896 103.495 379.896 102.925C379.896 102.34 379.431 101.89 378.861 101.89C378.291 101.89 377.826 102.34 377.826 102.925ZM377.001 102.925C377.001 101.875 377.826 101.035 378.861 101.035C379.911 101.035 380.751 101.875 380.751 102.925C380.751 103.96 379.911 104.785 378.861 104.785C377.826 104.785 377.001 103.96 377.001 102.925ZM367.821 107.905C368.241 107.56 368.541 107.275 368.961 106.855C369.666 106.15 370.911 104.56 371.886 103.39C372.726 102.4 373.521 102.235 374.601 103.27C375.546 104.155 376.776 105.445 377.661 106.39C378.681 107.47 380.196 109.105 381.351 110.35L380.046 111.73C378.996 110.47 377.706 108.925 376.776 107.845C375.906 106.84 374.541 105.37 373.941 104.785C373.401 104.26 373.101 104.305 372.636 104.89C371.976 105.7 370.806 107.275 370.146 108.1C369.831 108.535 369.486 109.015 369.246 109.36L367.821 107.905ZM383.601 105.31C384.096 105.34 385.026 105.4 385.836 105.4H393.996C394.716 105.4 395.301 105.34 395.676 105.31V107.17C395.346 107.155 394.656 107.095 393.996 107.095H385.836C385.011 107.095 384.111 107.125 383.601 107.17V105.31ZM407.684 100.66C408.089 101.245 408.719 102.295 409.064 103L408.014 103.45C407.624 102.595 407.189 101.815 406.664 101.095L407.684 100.66ZM409.694 99.94C410.114 100.495 410.744 101.53 411.119 102.22L410.069 102.685C409.649 101.83 409.184 101.08 408.659 100.375L409.694 99.94ZM401.234 100.405C402.164 100.93 403.844 102.04 404.564 102.55L403.664 103.84C402.899 103.285 401.294 102.235 400.379 101.71L401.234 100.405ZM398.744 111.1C400.409 110.815 402.239 110.26 403.814 109.39C406.319 107.965 408.359 105.955 409.559 103.825L410.474 105.415C409.124 107.455 407.039 109.375 404.609 110.8C403.094 111.67 400.994 112.39 399.629 112.645L398.744 111.1ZM398.939 103.81C399.884 104.32 401.594 105.37 402.299 105.865L401.429 107.2C400.649 106.63 399.044 105.61 398.099 105.1L398.939 103.81ZM413.669 104.125H416.084V102.76H414.329C414.134 103.27 413.909 103.75 413.669 104.125ZM417.404 102.76V104.125H420.854V105.4H417.404V106.735H420.404V110.68C420.404 111.25 420.314 111.61 419.924 111.82C419.534 112.03 418.964 112.045 418.184 112.03C418.154 111.685 417.989 111.175 417.809 110.845C418.349 110.86 418.799 110.86 418.949 110.845C419.099 110.845 419.144 110.8 419.144 110.65V107.98H417.404V113.185H416.084V107.98H414.449V111.985H413.204V106.735H416.084V105.4H412.559V104.125H413.594C413.309 103.96 412.754 103.765 412.424 103.645C413.084 102.655 413.579 101.17 413.864 99.745L415.169 100.015C415.049 100.51 414.914 101.02 414.779 101.5H416.084V99.505H417.404V101.5H420.269V102.76H417.404ZM423.059 100.735V109.03H421.769V100.735H423.059ZM424.409 99.625H425.759V111.4C425.759 112.24 425.579 112.63 425.084 112.87C424.604 113.11 423.764 113.14 422.639 113.14C422.579 112.765 422.384 112.12 422.189 111.715C423.029 111.745 423.839 111.745 424.094 111.73C424.334 111.73 424.409 111.655 424.409 111.415V99.625ZM430.964 99.475L432.299 99.895C431.894 100.945 431.384 102.025 430.814 103.03V113.155H429.404V105.235C429.014 105.775 428.594 106.27 428.174 106.705C428.039 106.36 427.634 105.58 427.394 105.265C428.819 103.855 430.154 101.665 430.964 99.475ZM441.269 103.21H436.829V105.115H440.909V106.39H436.829V108.385H441.119V109.69H436.829V113.17H435.404V103.21H434.564C433.934 104.38 433.244 105.43 432.524 106.225C432.299 105.985 431.759 105.49 431.444 105.28C432.764 103.9 433.964 101.74 434.684 99.58L436.019 99.94C435.779 100.585 435.524 101.245 435.239 101.875H441.269V103.21Z" fill="black"/>
<path d="M828.66 104.535H842.4V105.765H828.66V104.535ZM853.635 99.135L854.4 98.505C854.65 98.675 854.915 98.87 855.195 99.09C855.475 99.3 855.735 99.515 855.975 99.735C856.225 99.945 856.425 100.14 856.575 100.32L855.795 101.025C855.645 100.845 855.45 100.645 855.21 100.425C854.98 100.195 854.725 99.97 854.445 99.75C854.175 99.52 853.905 99.315 853.635 99.135ZM843.825 101.205H857.205V102.3H843.825V101.205ZM844.35 104.535H850.98V105.63H844.35V104.535ZM847.05 105.12H848.175V110.475H847.05V105.12ZM843.885 110.64C844.485 110.52 845.19 110.38 846 110.22C846.82 110.05 847.69 109.87 848.61 109.68C849.54 109.48 850.465 109.28 851.385 109.08L851.475 110.1C850.625 110.3 849.765 110.5 848.895 110.7C848.035 110.9 847.205 111.09 846.405 111.27C845.605 111.45 844.885 111.61 844.245 111.75L843.885 110.64ZM851.475 98.46H852.675C852.665 99.85 852.705 101.175 852.795 102.435C852.895 103.695 853.035 104.85 853.215 105.9C853.405 106.95 853.63 107.86 853.89 108.63C854.16 109.4 854.455 110 854.775 110.43C855.105 110.85 855.455 111.06 855.825 111.06C856.035 111.06 856.19 110.835 856.29 110.385C856.39 109.935 856.465 109.21 856.515 108.21C856.635 108.33 856.79 108.45 856.98 108.57C857.17 108.69 857.345 108.78 857.505 108.84C857.445 109.71 857.35 110.39 857.22 110.88C857.09 111.37 856.905 111.715 856.665 111.915C856.435 112.125 856.125 112.23 855.735 112.23C855.235 112.23 854.78 112.06 854.37 111.72C853.97 111.38 853.615 110.9 853.305 110.28C852.995 109.65 852.725 108.915 852.495 108.075C852.265 107.225 852.075 106.29 851.925 105.27C851.785 104.24 851.675 103.15 851.595 102C851.525 100.85 851.485 99.67 851.475 98.46Z" fill="black"/>
<path d="M583.399 320.195C581.659 320.195 580.564 319.49 579.784 318.725L580.609 317.6C581.239 318.23 582.034 318.785 583.189 318.785C584.434 318.785 585.379 317.9 585.379 316.43C585.379 314.96 584.539 314.12 583.279 314.12C582.574 314.12 582.154 314.33 581.509 314.75L580.669 314.195L580.999 308.945H586.594V310.415H582.499L582.244 313.25C582.724 313.01 583.159 312.86 583.759 312.86C585.604 312.86 587.119 313.955 587.119 316.37C587.119 318.815 585.334 320.195 583.399 320.195ZM592.209 320.195C590.049 320.195 588.639 318.275 588.639 314.435C588.639 310.61 590.049 308.75 592.209 308.75C594.369 308.75 595.779 310.625 595.779 314.435C595.779 318.275 594.369 320.195 592.209 320.195ZM592.209 318.83C593.334 318.83 594.129 317.63 594.129 314.435C594.129 311.27 593.334 310.115 592.209 310.115C591.084 310.115 590.289 311.27 590.289 314.435C590.289 317.63 591.084 318.83 592.209 318.83ZM597.674 323L597.284 322.025C598.319 321.605 598.919 320.84 598.919 319.97C598.859 319.985 598.814 319.985 598.754 319.985C598.139 319.985 597.599 319.595 597.599 318.875C597.599 318.2 598.139 317.765 598.799 317.765C599.639 317.765 600.134 318.47 600.134 319.625C600.134 321.2 599.219 322.415 597.674 323ZM605.232 320.195C603.072 320.195 601.662 318.275 601.662 314.435C601.662 310.61 603.072 308.75 605.232 308.75C607.392 308.75 608.802 310.625 608.802 314.435C608.802 318.275 607.392 320.195 605.232 320.195ZM605.232 318.83C606.357 318.83 607.152 317.63 607.152 314.435C607.152 311.27 606.357 310.115 605.232 310.115C604.107 310.115 603.312 311.27 603.312 314.435C603.312 317.63 604.107 318.83 605.232 318.83ZM613.786 320.195C611.626 320.195 610.216 318.275 610.216 314.435C610.216 310.61 611.626 308.75 613.786 308.75C615.946 308.75 617.356 310.625 617.356 314.435C617.356 318.275 615.946 320.195 613.786 320.195ZM613.786 318.83C614.911 318.83 615.706 317.63 615.706 314.435C615.706 311.27 614.911 310.115 613.786 310.115C612.661 310.115 611.866 311.27 611.866 314.435C611.866 317.63 612.661 318.83 613.786 318.83ZM622.341 320.195C620.181 320.195 618.771 318.275 618.771 314.435C618.771 310.61 620.181 308.75 622.341 308.75C624.501 308.75 625.911 310.625 625.911 314.435C625.911 318.275 624.501 320.195 622.341 320.195ZM622.341 318.83C623.466 318.83 624.261 317.63 624.261 314.435C624.261 311.27 623.466 310.115 622.341 310.115C621.216 310.115 620.421 311.27 620.421 314.435C620.421 317.63 621.216 318.83 622.341 318.83ZM634.766 313.88H638.951V309.785H634.766V313.88ZM629.366 309.785V313.88H633.386V309.785H629.366ZM640.361 308.405V319.445C640.361 320.255 640.181 320.675 639.626 320.915C639.086 321.14 638.216 321.17 636.881 321.17C636.821 320.78 636.596 320.15 636.371 319.775C637.331 319.82 638.291 319.805 638.576 319.79C638.861 319.79 638.951 319.7 638.951 319.43V315.26H629.366V321.185H627.971V308.405H640.361ZM651.836 314.3C651.836 311.255 653.096 308.855 654.806 307.13L655.946 307.67C654.311 309.38 653.186 311.54 653.186 314.3C653.186 317.06 654.311 319.22 655.946 320.93L654.806 321.47C653.096 319.745 651.836 317.345 651.836 314.3ZM663.011 315.62L662.201 316.715C661.976 316.295 661.481 315.59 661.031 314.975V321.155H659.681V315.095C659.126 316.46 658.436 317.75 657.761 318.59C657.626 318.2 657.296 317.63 657.086 317.3C657.971 316.28 658.931 314.495 659.501 312.905H657.371V311.585H659.681V309.545C658.991 309.695 658.301 309.8 657.656 309.89C657.596 309.575 657.416 309.11 657.251 308.81C658.916 308.54 660.806 308.105 661.931 307.61L662.891 308.675C662.351 308.885 661.706 309.08 661.031 309.26V311.585H662.786V312.905H661.031V313.595C661.466 313.97 662.741 315.275 663.011 315.62ZM664.646 311.615V314.15H668.906V311.615H664.646ZM668.801 319.73H669.581C669.851 319.73 669.911 319.505 669.941 317.915C670.211 318.125 670.781 318.365 671.141 318.455C671.036 320.465 670.691 320.99 669.731 320.99H668.576C667.421 320.99 667.151 320.57 667.151 319.28V315.38H666.071C665.846 317.9 665.156 320.03 662.531 321.2C662.366 320.87 661.991 320.36 661.691 320.12C663.986 319.16 664.496 317.42 664.706 315.38H663.326V310.4H664.646C664.421 309.71 663.911 308.69 663.401 307.925L664.556 307.43C665.111 308.21 665.696 309.245 665.921 309.95L664.931 310.4H668.696L667.586 309.965C668.051 309.275 668.606 308.195 668.891 307.4L670.316 307.88C669.821 308.78 669.251 309.755 668.786 310.4H670.301V315.38H668.501V319.265C668.501 319.685 668.546 319.73 668.801 319.73ZM677.711 308.105H681.551C681.851 312.53 682.901 316.085 685.931 317.63C685.601 317.855 685.106 318.35 684.836 318.695C682.856 317.525 681.701 315.59 681.026 313.16C680.261 315.59 679.046 317.435 677.276 318.695C677.051 318.425 676.511 317.9 676.181 317.645C678.311 316.325 679.526 314.045 680.081 311.075L680.591 311.15C680.501 310.595 680.441 310.01 680.381 309.425H677.711V308.105ZM676.091 310.055L674.996 310.97C674.516 310.265 673.436 309.26 672.491 308.6L673.526 307.76C674.456 308.405 675.581 309.335 676.091 310.055ZM675.686 313.235V317.975C676.346 319.01 677.576 319.49 679.226 319.55C680.891 319.61 684.221 319.565 686.096 319.445C685.931 319.775 685.706 320.435 685.631 320.87C683.936 320.945 680.921 320.975 679.211 320.9C677.306 320.825 676.016 320.33 675.071 319.175C674.366 319.79 673.646 320.39 672.866 321.035L672.146 319.595C672.821 319.175 673.616 318.62 674.321 318.05V314.525H672.401V313.235H675.686ZM691.406 314.3C691.406 317.345 690.146 319.745 688.436 321.47L687.296 320.93C688.931 319.22 690.056 317.06 690.056 314.3C690.056 311.54 688.931 309.38 687.296 307.67L688.436 307.13C690.146 308.855 691.406 311.255 691.406 314.3Z" fill="black"/>
<path d="M831.706 310C831.706 310.3 831.811 310.56 832.021 310.78C832.241 310.99 832.506 311.095 832.816 311.095C833.116 311.095 833.371 310.99 833.581 310.78C833.801 310.56 833.911 310.3 833.911 310C833.911 309.69 833.801 309.43 833.581 309.22C833.371 309.01 833.116 308.905 832.816 308.905C832.506 308.905 832.241 309.01 832.021 309.22C831.811 309.43 831.706 309.69 831.706 310ZM830.986 310C830.986 309.66 831.066 309.355 831.226 309.085C831.396 308.805 831.616 308.585 831.886 308.425C832.166 308.255 832.476 308.17 832.816 308.17C833.146 308.17 833.446 308.255 833.716 308.425C833.996 308.585 834.216 308.805 834.376 309.085C834.546 309.355 834.631 309.66 834.631 310C834.631 310.33 834.546 310.635 834.376 310.915C834.216 311.185 833.996 311.405 833.716 311.575C833.446 311.735 833.146 311.815 832.816 311.815C832.476 311.815 832.166 311.735 831.886 311.575C831.616 311.405 831.396 311.185 831.226 310.915C831.066 310.635 830.986 310.33 830.986 310ZM821.941 315.055C822.141 314.885 822.316 314.725 822.466 314.575C822.626 314.425 822.806 314.25 823.006 314.05C823.186 313.87 823.391 313.64 823.621 313.36C823.861 313.08 824.116 312.78 824.386 312.46C824.666 312.13 824.941 311.8 825.211 311.47C825.481 311.13 825.731 310.825 825.961 310.555C826.361 310.085 826.756 309.825 827.146 309.775C827.536 309.715 827.986 309.925 828.496 310.405C828.806 310.685 829.141 311.015 829.501 311.395C829.871 311.765 830.236 312.14 830.596 312.52C830.956 312.9 831.281 313.245 831.571 313.555C831.911 313.905 832.291 314.31 832.711 314.77C833.131 315.22 833.561 315.685 834.001 316.165C834.441 316.635 834.851 317.075 835.231 317.485L834.196 318.58C833.846 318.15 833.471 317.705 833.071 317.245C832.681 316.775 832.291 316.32 831.901 315.88C831.521 315.43 831.171 315.025 830.851 314.665C830.631 314.415 830.386 314.145 830.116 313.855C829.846 313.565 829.576 313.275 829.306 312.985C829.036 312.695 828.781 312.425 828.541 312.175C828.311 311.925 828.116 311.725 827.956 311.575C827.666 311.295 827.426 311.165 827.236 311.185C827.056 311.205 826.836 311.37 826.576 311.68C826.396 311.9 826.191 312.16 825.961 312.46C825.731 312.75 825.491 313.055 825.241 313.375C824.991 313.695 824.751 314 824.521 314.29C824.291 314.58 824.091 314.83 823.921 315.04C823.771 315.23 823.616 315.43 823.456 315.64C823.306 315.85 823.176 316.035 823.066 316.195L821.941 315.055ZM837.676 312.505C837.826 312.515 838.011 312.53 838.231 312.55C838.451 312.56 838.691 312.57 838.951 312.58C839.221 312.58 839.491 312.58 839.761 312.58C839.921 312.58 840.166 312.58 840.496 312.58C840.836 312.58 841.231 312.58 841.681 312.58C842.131 312.58 842.606 312.58 843.106 312.58C843.616 312.58 844.121 312.58 844.621 312.58C845.131 312.58 845.611 312.58 846.061 312.58C846.521 312.58 846.916 312.58 847.246 312.58C847.576 312.58 847.821 312.58 847.981 312.58C848.361 312.58 848.686 312.57 848.956 312.55C849.226 312.53 849.441 312.515 849.601 312.505V313.975C849.451 313.965 849.226 313.95 848.926 313.93C848.636 313.91 848.326 313.9 847.996 313.9C847.836 313.9 847.586 313.9 847.246 313.9C846.906 313.9 846.511 313.9 846.061 313.9C845.621 313.9 845.146 313.9 844.636 313.9C844.126 313.9 843.616 313.9 843.106 313.9C842.606 313.9 842.131 313.9 841.681 313.9C841.241 313.9 840.851 313.9 840.511 313.9C840.171 313.9 839.921 313.9 839.761 313.9C839.351 313.9 838.961 313.91 838.591 313.93C838.221 313.94 837.916 313.955 837.676 313.975V312.505ZM861.594 307.81C861.724 307.98 861.874 308.205 862.044 308.485C862.224 308.765 862.399 309.05 862.569 309.34C862.739 309.63 862.879 309.895 862.989 310.135L862.134 310.525C862.014 310.265 861.879 310 861.729 309.73C861.579 309.45 861.424 309.175 861.264 308.905C861.104 308.635 860.939 308.385 860.769 308.155L861.594 307.81ZM863.559 307.09C863.699 307.26 863.854 307.48 864.024 307.75C864.194 308.02 864.369 308.3 864.549 308.59C864.729 308.88 864.879 309.145 864.999 309.385L864.144 309.775C864.014 309.505 863.869 309.235 863.709 308.965C863.549 308.695 863.384 308.43 863.214 308.17C863.054 307.91 862.889 307.67 862.719 307.45L863.559 307.09ZM855.189 307.585C855.409 307.705 855.669 307.865 855.969 308.065C856.269 308.255 856.579 308.455 856.899 308.665C857.219 308.865 857.514 309.06 857.784 309.25C858.064 309.43 858.284 309.58 858.444 309.7L857.739 310.735C857.559 310.595 857.329 310.43 857.049 310.24C856.779 310.05 856.489 309.855 856.179 309.655C855.879 309.445 855.579 309.25 855.279 309.07C854.989 308.88 854.734 308.72 854.514 308.59L855.189 307.585ZM852.939 318.31C853.489 318.21 854.054 318.08 854.634 317.92C855.214 317.76 855.789 317.565 856.359 317.335C856.929 317.105 857.464 316.85 857.964 316.57C858.794 316.09 859.564 315.56 860.274 314.98C860.984 314.39 861.624 313.765 862.194 313.105C862.764 312.445 863.249 311.765 863.649 311.065L864.369 312.31C863.719 313.31 862.894 314.28 861.894 315.22C860.894 316.15 859.794 316.965 858.594 317.665C858.094 317.955 857.544 318.225 856.944 318.475C856.354 318.715 855.769 318.925 855.189 319.105C854.619 319.295 854.099 319.435 853.629 319.525L852.939 318.31ZM852.924 310.96C853.144 311.08 853.409 311.23 853.719 311.41C854.029 311.59 854.344 311.78 854.664 311.98C854.984 312.18 855.279 312.37 855.549 312.55C855.829 312.72 856.049 312.865 856.209 312.985L855.534 314.035C855.344 313.895 855.109 313.735 854.829 313.555C854.559 313.375 854.269 313.185 853.959 312.985C853.649 312.785 853.344 312.6 853.044 312.43C852.744 312.25 852.479 312.1 852.249 311.98L852.924 310.96Z" fill="black"/>
<path d="M293.372 307.925C293.327 308.21 293.282 308.72 293.252 309.08C293.237 309.44 293.222 309.92 293.192 310.46C294.242 310.34 295.322 310.13 296.147 309.89L296.177 311.36C295.307 311.555 294.197 311.735 293.162 311.855C293.147 312.455 293.132 313.055 293.132 313.595C293.132 313.76 293.132 313.94 293.132 314.12C294.227 313.805 295.337 313.64 296.252 313.64C298.487 313.64 300.167 314.84 300.167 316.76C300.167 318.545 299.132 319.79 296.927 320.315C296.252 320.465 295.577 320.51 295.022 320.54L294.482 319.01C295.082 319.025 295.727 319.025 296.282 318.905C297.542 318.665 298.637 318.005 298.637 316.745C298.637 315.59 297.602 314.945 296.237 314.945C295.187 314.945 294.152 315.125 293.162 315.44C293.177 316.685 293.222 317.945 293.222 318.545C293.222 320.135 292.637 320.6 291.752 320.6C290.447 320.6 288.452 319.4 288.452 317.96C288.452 316.685 289.997 315.35 291.767 314.585C291.767 314.27 291.767 313.955 291.767 313.655C291.767 313.13 291.767 312.56 291.782 311.99C291.407 312.02 291.077 312.035 290.792 312.035C289.877 312.035 289.307 312.005 288.812 311.96L288.767 310.52C289.622 310.625 290.207 310.64 290.762 310.64C291.077 310.64 291.422 310.625 291.797 310.595C291.797 309.92 291.812 309.38 291.812 309.11C291.812 308.795 291.767 308.195 291.722 307.925H293.372ZM297.857 309.575C298.967 310.13 300.647 311.15 301.397 311.735L300.662 312.935C299.942 312.275 298.142 311.21 297.197 310.715L297.857 309.575ZM289.922 317.885C289.922 318.485 290.822 318.995 291.332 318.995C291.632 318.995 291.842 318.8 291.842 318.305C291.842 317.825 291.812 316.955 291.797 315.98C290.702 316.52 289.922 317.285 289.922 317.885ZM307.607 309.125H304.787V310.175H307.607V309.125ZM304.787 312.29H307.607V311.165H304.787V312.29ZM308.927 313.385H304.787V321.185H303.407V308.015H308.927V313.385ZM311.012 315.755H307.952V317.93H311.012V315.755ZM312.317 319.085H307.952V319.955H306.662V314.585H312.317V319.085ZM311.447 312.305H314.342V311.165H311.447V312.305ZM314.342 309.11H311.447V310.175H314.342V309.11ZM315.767 308.015V319.415C315.767 320.255 315.572 320.69 315.032 320.93C314.477 321.155 313.592 321.17 312.242 321.17C312.197 320.78 311.972 320.135 311.762 319.745C312.707 319.79 313.682 319.775 313.982 319.775C314.267 319.76 314.342 319.67 314.342 319.4V313.4H310.112V308.015H315.767ZM320.627 309.425C320.552 309.86 320.477 310.64 320.477 311.045C320.462 311.99 320.477 313.25 320.582 314.42C320.807 316.775 321.422 318.365 322.427 318.365C323.177 318.365 323.837 316.73 324.182 315.365L325.367 316.76C324.422 319.325 323.492 320.21 322.397 320.21C320.882 320.21 319.487 318.77 319.082 314.825C318.932 313.505 318.917 311.705 318.917 310.805C318.917 310.43 318.887 309.8 318.797 309.395L320.627 309.425ZM328.307 309.8C329.687 311.54 330.797 314.975 330.992 317.405L329.447 318.005C329.192 315.425 328.337 312.095 326.822 310.295L328.307 309.8ZM342.782 316.43H336.332V319.37H342.782V316.43ZM334.967 321.2V315.17H344.207V321.2H342.782V320.615H336.332V321.2H334.967ZM336.122 312.23H343.037C341.627 311.18 340.337 309.965 339.497 308.81C338.732 309.92 337.532 311.15 336.122 312.23ZM338.717 307.445H340.142C341.747 309.68 344.282 311.66 346.637 312.68C346.292 313.025 345.962 313.505 345.722 313.925C344.927 313.505 344.087 312.995 343.292 312.41V313.475H335.822V312.455C335.057 313.025 334.232 313.535 333.407 313.985C333.242 313.655 332.837 313.16 332.552 312.875C335.117 311.57 337.577 309.32 338.717 307.445ZM351.302 309.2C351.302 308.81 351.302 308.39 351.242 307.985L352.997 308.045C352.907 308.435 352.787 309.23 352.682 310.205H352.697L353.207 310.835C353.027 311.105 352.742 311.54 352.502 311.915C352.487 312.155 352.457 312.41 352.442 312.65C354.047 311.405 355.667 310.925 357.062 310.925C359.237 310.925 361.082 312.455 361.082 314.825C361.097 317.855 359.027 319.535 355.547 320.21L354.857 318.785C357.437 318.395 359.537 317.27 359.522 314.795C359.522 313.625 358.607 312.305 356.822 312.305C355.157 312.305 353.657 313.13 352.337 314.345C352.307 314.9 352.292 315.425 352.292 315.905C352.292 317.21 352.277 318.275 352.367 319.64C352.382 319.91 352.412 320.345 352.442 320.66H350.822C350.837 320.39 350.867 319.91 350.867 319.67C350.882 318.26 350.882 317.405 350.927 315.74C350.222 316.775 349.337 318.065 348.707 318.935L347.777 317.63C348.617 316.58 350.237 314.42 351.047 313.19C351.077 312.77 351.107 312.32 351.137 311.9C350.432 311.99 349.187 312.155 348.287 312.275L348.137 310.745C348.512 310.76 348.827 310.76 349.262 310.73C349.727 310.7 350.507 310.61 351.227 310.505C351.272 309.86 351.302 309.365 351.302 309.2ZM373.307 308.345C373.262 308.585 373.232 309.17 373.232 309.53C373.217 310.175 373.217 310.82 373.202 311.42C373.712 311.375 374.207 311.345 374.627 311.315C375.017 311.3 375.527 311.255 375.917 311.225V312.695C375.662 312.68 375.002 312.695 374.612 312.71C374.222 312.71 373.727 312.74 373.172 312.77C373.142 313.91 373.082 315.185 372.947 315.86C372.797 316.58 372.452 316.775 371.732 316.775C371.192 316.775 370.082 316.625 369.632 316.55L369.662 315.245C370.157 315.35 370.787 315.44 371.102 315.44C371.447 315.44 371.597 315.38 371.627 315.05C371.702 314.6 371.747 313.73 371.777 312.875C370.322 312.995 368.687 313.145 367.292 313.295C367.277 314.765 367.262 316.25 367.292 316.865C367.337 318.41 367.397 318.89 369.842 318.89C371.402 318.89 373.277 318.71 374.312 318.515L374.267 320.12C373.262 320.24 371.417 320.375 369.932 320.375C366.287 320.375 365.897 319.565 365.837 317.09C365.822 316.445 365.822 314.9 365.822 313.46C365.267 313.52 364.802 313.565 364.472 313.61C364.007 313.67 363.227 313.775 362.837 313.835L362.672 312.305C363.122 312.305 363.737 312.275 364.367 312.215C364.697 312.185 365.192 312.14 365.822 312.08C365.822 311.21 365.822 310.505 365.822 310.25C365.822 309.725 365.792 309.29 365.717 308.81H367.382C367.337 309.215 367.307 309.635 367.307 310.175C367.307 310.595 367.307 311.225 367.292 311.945C368.672 311.81 370.307 311.66 371.807 311.525C371.807 310.88 371.807 310.19 371.807 309.575C371.807 309.23 371.747 308.615 371.702 308.345H373.307ZM393.507 310.025C393.387 310.265 393.312 310.595 393.237 310.895C392.907 312.425 392.217 314.81 391.002 316.4C389.637 318.185 387.762 319.61 385.032 320.465L383.742 319.055C386.682 318.335 388.377 317.06 389.607 315.485C390.642 314.18 391.287 312.26 391.482 310.88H384.117C383.472 310.88 382.872 310.91 382.497 310.94V309.26C382.917 309.32 383.622 309.38 384.117 309.38H391.392C391.647 309.38 392.022 309.365 392.352 309.275L393.507 310.025ZM405.327 310.76C405.267 311.09 405.267 311.51 405.267 311.87C405.267 312.155 405.282 312.53 405.282 312.965H407.277C407.622 312.965 408.147 312.92 408.372 312.875V314.345C408.072 314.33 407.637 314.315 407.322 314.315H405.312C405.357 316.16 405.402 318.425 405.417 319.895C405.417 320.6 404.892 321.05 404.142 321.05C403.482 321.05 402.537 321.005 401.907 320.96L401.817 319.595C402.417 319.685 403.182 319.745 403.602 319.745C403.872 319.745 403.992 319.58 403.992 319.28C403.992 318.425 403.977 317.015 403.962 315.605C402.927 317 400.812 318.815 398.892 319.835L397.857 318.65C400.047 317.63 402.252 315.785 403.287 314.315H399.612C399.207 314.315 398.757 314.33 398.367 314.36V312.875C398.712 312.935 399.207 312.965 399.582 312.965H403.917C403.902 312.53 403.887 312.17 403.872 311.87C403.857 311.555 403.827 311.12 403.767 310.76H405.327ZM411.867 313.31C412.362 313.34 413.292 313.4 414.102 313.4H422.262C422.982 313.4 423.567 313.34 423.942 313.31V315.17C423.612 315.155 422.922 315.095 422.262 315.095H414.102C413.277 315.095 412.377 315.125 411.867 315.17V313.31ZM432.998 308.765C432.833 309.17 432.653 309.62 432.428 310.28C431.978 311.705 430.613 315.95 429.863 317.93C431.903 317.75 434.438 317.465 436.043 317.255C435.473 316.115 434.858 315.02 434.333 314.33L435.788 313.7C436.838 315.275 438.443 318.26 439.088 319.865L437.498 320.585C437.303 320.06 437.033 319.4 436.718 318.71C434.333 318.995 429.533 319.52 427.583 319.7C427.208 319.745 426.713 319.82 426.263 319.88L425.993 318.14C426.458 318.14 427.043 318.14 427.493 318.11C427.673 318.095 427.883 318.095 428.108 318.08C428.948 315.935 430.373 311.45 430.793 309.935C431.003 309.215 431.063 308.81 431.123 308.375L432.998 308.765ZM445.778 315.41L445.028 316.43C444.833 315.95 444.398 315.125 444.008 314.42V321.17H442.718V314.825C442.268 316.25 441.713 317.57 441.113 318.425C440.978 318.05 440.648 317.525 440.453 317.225C441.338 315.995 442.193 313.775 442.598 311.87H440.768V310.58H442.718V307.415H444.008V310.58H445.613V311.87H444.008V312.755C444.428 313.31 445.538 315.005 445.778 315.41ZM450.518 317.735H452.288V316.805H450.518V317.735ZM447.593 316.805V317.735H449.258V316.805H447.593ZM449.258 314.99H447.593V315.845H449.258V314.99ZM452.288 314.99H450.518V315.845H452.288V314.99ZM448.883 311.375V312.215H450.938V311.375H448.883ZM448.883 309.575V310.4H450.938V309.575H448.883ZM454.478 317.735V318.785H453.593V319.775C453.593 320.405 453.458 320.72 453.023 320.93C452.588 321.095 451.913 321.11 450.953 321.11C450.893 320.78 450.728 320.3 450.578 319.985C451.208 320.015 451.853 320.015 452.048 320C452.228 320 452.288 319.94 452.288 319.76V318.785H447.593V321.11H446.318V318.785H445.358V317.735H446.318V313.985H449.258V313.25H445.613V312.215H447.578V311.375H446.258V310.4H447.578V309.575H445.943V308.57H447.578V307.415H448.883V308.57H450.938V307.415H452.243V308.57H454.028V309.575H452.243V310.4H453.803V311.375H452.243V312.215H454.328V313.25H450.518V313.985H453.593V317.735H454.478ZM458.363 309.635H457.898C457.508 310.19 457.088 310.685 456.668 311.09C456.413 310.865 455.858 310.49 455.528 310.31C456.428 309.575 457.238 308.45 457.703 307.325L459.008 307.67C458.888 307.955 458.738 308.24 458.588 308.51H462.248V309.515C462.833 308.87 463.313 308.105 463.613 307.325L464.963 307.655C464.843 307.94 464.708 308.225 464.543 308.51H469.283V309.635H466.238C466.538 310.01 466.793 310.4 466.928 310.7L465.758 311.075C465.578 310.685 465.218 310.115 464.843 309.635H463.823C463.418 310.19 462.968 310.67 462.533 311.06C462.248 310.85 461.648 310.52 461.318 310.37C461.603 310.16 461.873 309.905 462.128 309.635H459.638C459.863 310.025 460.058 310.43 460.163 310.715L459.038 311.06C458.918 310.685 458.648 310.115 458.363 309.635ZM469.163 317.645H464.123C465.473 318.545 467.528 319.25 469.433 319.58C469.133 319.865 468.728 320.42 468.548 320.78C466.643 320.315 464.543 319.37 463.118 318.185V321.14H461.768V318.185C460.343 319.385 458.273 320.33 456.368 320.825C456.188 320.465 455.783 319.955 455.498 319.67C457.343 319.325 459.383 318.56 460.703 317.645H455.798V316.535H461.768V315.755C461.498 315.92 461.198 316.07 460.853 316.205C460.673 315.95 460.193 315.455 459.923 315.275C460.343 315.125 460.673 314.96 460.943 314.795C459.158 315.08 457.313 315.365 455.933 315.605L455.738 314.465C456.398 314.375 457.193 314.27 458.063 314.15V312.365H456.053V311.375H461.333V312.365H459.338V313.955C459.998 313.85 460.673 313.745 461.348 313.64L461.378 314.48C461.993 313.94 462.113 313.355 462.113 312.77V311.285H467.438V314.12C467.438 314.375 467.438 314.54 467.483 314.585C467.528 314.645 467.603 314.66 467.693 314.66H468.008C468.113 314.66 468.203 314.645 468.263 314.615C468.323 314.57 468.368 314.48 468.398 314.315C468.428 314.135 468.443 313.73 468.458 313.205C468.683 313.4 469.088 313.61 469.403 313.685C469.373 314.255 469.313 314.885 469.223 315.11C469.133 315.35 468.983 315.53 468.773 315.62C468.593 315.725 468.293 315.77 468.038 315.77H467.333C467.018 315.77 466.658 315.68 466.448 315.47C466.208 315.245 466.118 314.99 466.118 314.12V312.23H463.388V312.8C463.388 313.73 463.133 314.705 462.158 315.485H463.118V316.535H469.163V317.645ZM463.373 313.46L464.168 312.74C464.858 313.145 465.683 313.775 466.088 314.225L465.233 315.035C464.843 314.555 464.048 313.895 463.373 313.46Z" fill="black"/>
<path d="M827.26 40.28H831.5V38.5H827.26V40.28ZM831.5 37.02V35.26H827.26V37.02H831.5ZM837.86 37.02V35.26H833.4V37.02H837.86ZM837.86 40.28V38.5H833.4V40.28H837.86ZM841.42 43.42V45.16H833.4V48.58H831.5V45.16H823.62V43.42H831.5V41.84H825.44V33.7H827.2C826.82 32.92 826.08 31.88 825.42 31.1L827.04 30.38C827.78 31.2 828.64 32.38 829.04 33.16L827.92 33.7H831.92C831.62 32.86 830.98 31.68 830.38 30.8L832.04 30.16C832.72 31.1 833.44 32.36 833.74 33.18L832.46 33.7H835.78C836.5 32.74 837.34 31.3 837.8 30.22L839.84 30.86C839.22 31.84 838.52 32.86 837.88 33.7H839.76V41.84H833.4V43.42H841.42ZM849.24 33.98H854.18V30.46H856.06V33.98H861.32V35.74H849.24V33.98ZM853.96 44.74L852.12 45.14C852 43.16 851.44 39.78 850.76 37.18L852.44 36.88C853.16 39.48 853.8 42.78 853.96 44.74ZM847.9 30.26L849.64 30.82C849.1 32.18 848.44 33.52 847.68 34.82V48.52H845.92V37.48C845.28 38.32 844.62 39.1 843.96 39.76C843.78 39.34 843.24 38.34 842.94 37.86C844.9 36.04 846.78 33.18 847.9 30.26ZM857.32 45.92H861.78V47.68H848.8V45.92H855.52C856.36 43.44 857.3 39.56 857.76 36.74L859.76 37.08C859.12 40 858.18 43.52 857.32 45.92Z" fill="black"/>
<path d="M614.26 40.28H618.5V38.5H614.26V40.28ZM618.5 37.02V35.26H614.26V37.02H618.5ZM624.86 37.02V35.26H620.4V37.02H624.86ZM624.86 40.28V38.5H620.4V40.28H624.86ZM628.42 43.42V45.16H620.4V48.58H618.5V45.16H610.62V43.42H618.5V41.84H612.44V33.7H614.2C613.82 32.92 613.08 31.88 612.42 31.1L614.04 30.38C614.78 31.2 615.64 32.38 616.04 33.16L614.92 33.7H618.92C618.62 32.86 617.98 31.68 617.38 30.8L619.04 30.16C619.72 31.1 620.44 32.36 620.74 33.18L619.46 33.7H622.78C623.5 32.74 624.34 31.3 624.8 30.22L626.84 30.86C626.22 31.84 625.52 32.86 624.88 33.7H626.76V41.84H620.4V43.42H628.42ZM634.42 30.26L636.1 30.8C635.6 32.18 634.96 33.58 634.24 34.9V48.56H632.5V37.68C631.98 38.38 631.46 39.04 630.92 39.6C630.76 39.2 630.22 38.22 629.94 37.78C631.72 35.96 633.4 33.14 634.42 30.26ZM643.04 36.78V33.86H641.16V36.78H643.04ZM646.52 45.36V38.44H644.62V45.36H646.52ZM637.78 38.44V45.36H639.58V38.44H637.78ZM643.04 38.44H641.16V45.36H643.04V38.44ZM648.46 33.86H644.8V36.78H648.32V48.1H646.52V46.98H637.78V48.2H636.06V36.78H639.42V33.86H635.84V32.18H648.46V33.86Z" fill="black"/>
<path d="M371.26 36.1V32.84H363.76V36.1H371.26ZM373.16 31.06V37.88H361.98V31.06H373.16ZM364.56 41.6H360.92V45.76H364.56V41.6ZM359.16 48.58V39.82H366.4V48.44H364.56V47.54H360.92V48.58H359.16ZM370.14 45.76H374.1V41.6H370.14V45.76ZM368.36 39.82H375.96V48.48H374.1V47.54H370.14V48.58H368.36V39.82ZM382.46 45.3H392.34V42.44H382.46V45.3ZM392.34 37.8H382.46V40.68H392.34V37.8ZM392.34 33.2H382.46V36.04H392.34V33.2ZM380.58 31.38H394.3V48.44H392.34V47.12H382.46V48.44H380.58V31.38Z" fill="black"/>
<path d="M81.3191 153.7C81.3191 154.575 82.0191 155.275 82.8941 155.275C83.7691 155.275 84.4941 154.575 84.4941 153.7C84.4941 152.825 83.7691 152.1 82.8941 152.1C82.0191 152.1 81.3191 152.825 81.3191 153.7ZM79.6691 153.7C79.6691 151.9 81.0941 150.45 82.8941 150.45C84.6941 150.45 86.1441 151.9 86.1441 153.7C86.1441 155.5 84.6941 156.925 82.8941 156.925C81.0941 156.925 79.6691 155.5 79.6691 153.7ZM64.1191 161.875C64.8691 161.275 65.4191 160.725 66.1941 159.975C67.3191 158.825 69.2691 156.375 70.9941 154.325C72.4691 152.575 73.9441 152.3 75.8941 154.125C77.5691 155.7 79.4941 157.7 80.9941 159.325C82.6691 161.1 85.2191 163.875 87.1441 165.925L84.3941 168.875C82.7191 166.8 80.5941 164.225 79.1191 162.5C77.6691 160.775 75.4441 158.35 74.5441 157.425C73.7441 156.625 73.2191 156.675 72.4941 157.575C71.5191 158.825 69.7441 161.3 68.7441 162.65C68.1691 163.45 67.5691 164.325 67.1191 164.975L64.1191 161.875ZM90.5441 157.425C91.4441 157.5 93.2691 157.575 94.5691 157.575H107.994C109.169 157.575 110.269 157.475 110.919 157.425V161.35C110.319 161.325 109.044 161.225 107.994 161.225H94.5691C93.1441 161.225 91.4691 161.275 90.5441 161.35V157.425ZM131.006 149.8C131.706 150.85 132.706 152.525 133.281 153.675L131.106 154.6C130.381 153.025 129.806 151.95 128.906 150.675L131.006 149.8ZM134.431 148.6C135.206 149.6 136.181 151.225 136.781 152.325L134.656 153.275C133.856 151.7 133.231 150.725 132.306 149.475L134.431 148.6ZM120.131 149.325C121.781 150.225 124.531 151.975 125.831 152.9L123.981 155.65C122.581 154.675 119.981 153 118.331 152.075L120.131 149.325ZM115.506 167.075C118.306 166.6 121.306 165.75 124.006 164.25C128.256 161.875 131.756 158.45 133.731 154.875L135.656 158.275C133.356 161.75 129.806 164.9 125.731 167.275C123.181 168.7 119.581 169.95 117.381 170.35L115.506 167.075ZM116.281 155.025C117.981 155.925 120.731 157.65 122.006 158.55L120.181 161.35C118.756 160.35 116.156 158.675 114.481 157.775L116.281 155.025ZM141.031 155.7H144.406V153.825H141.881C141.606 154.525 141.306 155.15 141.031 155.7ZM147.231 153.825V155.7H152.706V158.375H147.231V160.2H152.106V166.575C152.106 167.725 151.931 168.425 151.206 168.85C150.506 169.275 149.556 169.325 148.306 169.3C148.231 168.55 147.906 167.5 147.581 166.775C148.281 166.825 148.906 166.825 149.131 166.8C149.356 166.8 149.431 166.75 149.431 166.5V162.85H147.231V171.15H144.406V162.85H142.356V169.175H139.706V160.2H144.406V158.375H138.731V155.7H140.606C139.956 155.375 138.931 154.95 138.356 154.75C139.381 153.175 140.206 150.65 140.656 148.275L143.381 148.85C143.231 149.625 143.031 150.375 142.806 151.125H144.406V147.975H147.231V151.125H151.706V153.825H147.231ZM156.606 149.875V163.95H153.831V149.875H156.606ZM158.306 148.25H161.156V167.65C161.156 169.25 160.831 170.05 159.931 170.55C159.006 171.025 157.556 171.125 155.631 171.125C155.531 170.3 155.131 169 154.756 168.125C156.031 168.175 157.331 168.175 157.756 168.175C158.156 168.15 158.306 168.05 158.306 167.625V148.25ZM169.056 147.925L171.956 148.825C171.306 150.575 170.481 152.35 169.556 154.025V171.15H166.556V158.65C166.031 159.275 165.506 159.9 165.006 160.45C164.731 159.725 163.881 158.025 163.356 157.275C165.631 155.025 167.806 151.475 169.056 147.925ZM186.981 154.725H179.881V157.35H186.356V160.05H179.881V162.875H186.681V165.625H179.881V171.175H176.831V154.725H175.881C174.881 156.575 173.731 158.275 172.606 159.575C172.131 159.025 170.956 157.975 170.331 157.5C172.531 155.25 174.506 151.65 175.631 148.075L178.506 148.8C178.156 149.85 177.756 150.875 177.281 151.9H186.981V154.725ZM107.75 193.65V194.675H118.5V193.65H107.75ZM114.35 185.125H111.025C110.75 185.725 110.35 186.275 109.8 186.775H114.35V185.125ZM106.3 182.4L105.975 183.375H108.7C108.8 183.075 108.85 182.75 108.85 182.4H106.3ZM111.575 179.675V180.675H114.35V179.675H111.575ZM119.775 179.675H117.175V180.675H119.775V179.675ZM114.35 183.375V182.4H111.575C111.55 182.725 111.525 183.05 111.5 183.375H114.35ZM121.175 185.125H117.175V186.775H119.35C119.275 186.475 119.15 186.175 119.05 185.95C119.625 186.025 120.15 186.05 120.425 186.025C120.65 186.025 120.8 186.025 120.95 185.85C121.05 185.725 121.125 185.5 121.175 185.125ZM118.5 189.45V188.475H107.75V189.45H118.5ZM118.5 192.05V191.05H107.75V192.05H118.5ZM121.525 196.375H117.75C120.15 197.15 122.775 198.1 124.35 198.775L121.05 200.2C119.575 199.45 116.975 198.4 114.375 197.55L116.275 196.375H109.6L111.575 197.275C109.5 198.5 106.325 199.625 103.775 200.25C103.3 199.675 102.25 198.625 101.625 198.125C103.95 197.725 106.5 197.1 108.25 196.375H104.85V188.95C104.275 189.075 103.675 189.175 103 189.275C102.75 188.65 102.05 187.525 101.6 186.975C104.7 186.575 106.5 185.95 107.525 185.125H105.325L105.25 185.35L102.55 185.175C103.1 183.95 103.7 182.15 104.125 180.675H108.875V179.675H103.2V177.925H108.875V176.85H111.575V177.925H114.35V176.85H117.175V177.925H122.475V182.4H117.175V183.375H124.1C124.1 183.375 124.075 183.875 124.05 184.15C123.925 185.775 123.775 186.675 123.35 187.125C122.975 187.5 122.425 187.7 121.9 187.725C121.8 187.725 121.675 187.75 121.525 187.75V196.375ZM139.75 190.075H145.025V187H139.75V190.075ZM131.975 190.075H136.75V187H132.05V187.45C132.05 188.25 132.025 189.15 131.975 190.075ZM136.75 181.325H132.05V184.225H136.75V181.325ZM145.025 184.225V181.325H139.75V184.225H145.025ZM147.975 178.5V196.65C147.975 198.25 147.625 199.05 146.625 199.5C145.6 200 144.075 200.05 141.825 200.025C141.725 199.225 141.25 197.95 140.875 197.175C142.275 197.25 143.925 197.225 144.375 197.225C144.85 197.225 145.025 197.075 145.025 196.625V192.875H139.75V199.85H136.75V192.875H131.65C131.2 195.6 130.3 198.35 128.5 200.3C128.025 199.75 126.825 198.725 126.15 198.375C128.875 195.375 129.1 190.925 129.1 187.425V178.5H147.975Z" fill="white"/>
</g>
<defs>
<clipPath id="clip0_76_3">
<rect width="920" height="350" fill="white"/>
</clipPath>
</defs>
</svg>
